<svg width="1466" height="2747" viewBox="0 0 1466 2747" fill="none" xmlns="http://www.w3.org/2000/svg">
<rect width="1465.97" height="2746.82" fill="white"/>
<path fill-rule="evenodd" clip-rule="evenodd" d="M438.139 128.134C505.12 115.134 574.551 54.5085 633.814 88.3234C691.886 121.459 676.013 210.098 694.428 274.373C711.974 335.611 754.912 393.719 738.987 455.398C722.762 518.239 665.014 559.547 611.369 596.077C559.193 631.608 501.243 658.662 438.139 660.266C373.907 661.899 309.68 643.75 258.388 605.053C207.68 566.798 165.423 511.802 157.765 448.745C150.618 389.892 195.268 340.686 219.724 286.679C240.831 240.068 249.423 184.951 290.831 154.894C332.231 124.841 387.918 137.882 438.139 128.134Z" stroke="#F5B2CA" stroke-dasharray="10 10"/>
<path fill-rule="evenodd" clip-rule="evenodd" d="M872.4 455.954C839.04 396.434 759.691 349.531 773.203 282.652C786.445 217.115 875.588 204.375 930.839 166.722C983.479 130.848 1025.18 71.8467 1088.74 67.6144C1153.5 63.3023 1210.84 105.174 1262.36 144.647C1312.47 183.04 1356.34 229.575 1377.66 288.989C1399.36 349.465 1402.28 416.143 1381.63 476.987C1361.22 537.137 1322.26 594.517 1264.79 621.572C1211.15 646.825 1150.42 619.868 1091.47 613.593C1040.59 608.177 985.56 617.313 944.028 587.427C902.503 557.546 897.413 500.58 872.4 455.954Z" stroke="#F5E7B2" stroke-dasharray="10 10"/>
<path fill-rule="evenodd" clip-rule="evenodd" d="M215.473 1008.51C225.985 941.098 192.532 855.208 244.458 810.946C295.341 767.572 373.326 812.595 440.036 817.094C503.593 821.381 572.827 800.721 625.437 836.64C679.037 873.235 698.287 941.578 714.435 1004.44C730.141 1065.58 735.915 1129.27 716 1189.17C695.73 1250.14 656.853 1304.39 603.041 1339.5C549.843 1374.21 483.767 1395.29 421.856 1381.08C364.071 1367.82 332.947 1309.12 290.45 1267.78C253.774 1232.1 204.847 1205.31 190.632 1156.16C176.42 1107.01 207.592 1059.06 215.473 1008.51Z" stroke="#B2F5DD" stroke-dasharray="10 10"/>
<path fill-rule="evenodd" clip-rule="evenodd" d="M846.418 977.401C856.929 909.985 823.476 824.095 875.402 779.833C926.286 736.459 1004.27 781.482 1070.98 785.981C1134.54 790.268 1203.77 769.608 1256.38 805.527C1309.98 842.122 1329.23 910.465 1345.38 973.325C1361.09 1034.46 1366.86 1098.16 1346.94 1158.06C1326.67 1219.03 1287.8 1273.28 1233.99 1308.39C1180.79 1343.1 1114.71 1364.17 1052.8 1349.97C995.015 1336.71 963.891 1278.01 921.395 1236.67C884.718 1200.99 835.791 1174.2 821.577 1125.05C807.365 1075.9 838.536 1027.95 846.418 977.401Z" stroke="#D4D2D9" stroke-dasharray="10 10"/>
<path fill-rule="evenodd" clip-rule="evenodd" d="M1108.48 1967.65C1048.92 2000.94 1001.93 2080.23 935.064 2066.64C869.543 2053.33 856.906 1964.17 819.316 1908.88C783.503 1856.19 724.55 1814.42 720.391 1750.86C716.154 1686.1 758.091 1628.8 797.624 1577.33C836.075 1527.27 882.66 1483.45 942.099 1462.2C1002.6 1440.56 1069.28 1437.72 1130.1 1458.44C1190.23 1478.92 1247.56 1517.95 1274.55 1575.45C1299.74 1629.12 1272.72 1689.82 1266.37 1748.76C1260.9 1799.63 1269.97 1854.67 1240.04 1896.17C1210.11 1937.66 1153.14 1942.69 1108.48 1967.65Z" stroke="#C7B2F5" stroke-dasharray="10 10"/>
<path fill-rule="evenodd" clip-rule="evenodd" d="M455.48 1967.65C395.923 2000.94 348.928 2080.23 282.064 2066.64C216.543 2053.33 203.906 1964.17 166.316 1908.88C130.503 1856.19 71.5499 1814.42 67.391 1750.86C63.1537 1686.1 105.091 1628.8 144.624 1577.33C183.075 1527.27 229.66 1483.45 289.099 1462.2C349.599 1440.56 416.281 1437.72 477.101 1458.44C537.228 1478.92 594.562 1517.95 621.552 1575.45C646.742 1629.12 619.716 1689.82 613.372 1748.76C607.897 1799.63 616.97 1854.67 587.036 1896.17C557.107 1937.66 500.136 1942.69 455.48 1967.65Z" stroke="#F5B2CA" stroke-dasharray="10 10"/>
<path fill-rule="evenodd" clip-rule="evenodd" d="M711.543 2150.7C769.22 2187.15 861.33 2190.61 881.294 2255.86C900.858 2319.79 828.537 2373.44 797.883 2432.86C768.677 2489.48 760.102 2561.22 706.226 2595.2C651.335 2629.83 580.973 2620.32 516.875 2610.14C454.531 2600.24 393.795 2580.21 346.752 2538.12C298.868 2495.27 264.55 2438.03 253.734 2374.7C243.042 2312.08 249.978 2243.07 287.629 2191.92C322.772 2144.17 389.011 2138.95 443.839 2116.4C491.159 2096.93 535.199 2062.7 585.951 2069.2C636.694 2075.7 668.297 2123.37 711.543 2150.7Z" stroke="#B2F5DD" stroke-dasharray="10 10"/>
</svg>
