<svg width="1466" height="2193" viewBox="0 0 1466 2193" fill="none" xmlns="http://www.w3.org/2000/svg">
<path fill-rule="evenodd" clip-rule="evenodd" d="M477.772 57.9567C554.196 43.1289 633.415 -26.0179 701.032 12.55C767.291 50.3437 749.18 151.441 770.192 224.751C790.211 294.596 839.201 360.872 821.032 431.22C802.52 502.894 736.63 550.009 675.423 591.674C615.892 632.198 549.773 663.055 477.772 664.885C404.486 666.748 331.204 646.047 272.681 601.911C214.824 558.279 166.61 495.552 157.873 423.633C149.718 356.506 200.663 300.385 228.567 238.787C252.649 185.624 262.452 122.76 309.697 88.4775C356.934 54.201 420.471 69.0743 477.772 57.9567Z" stroke="#F5B2CA" stroke-dasharray="10 10"/>
<path fill-rule="evenodd" clip-rule="evenodd" d="M872.4 537.757C839.04 478.237 759.691 431.334 773.204 364.455C786.445 298.918 875.588 286.178 930.839 248.525C983.479 212.651 1025.18 153.65 1088.74 149.418C1153.5 145.106 1210.84 186.977 1262.36 226.45C1312.47 264.843 1356.34 311.378 1377.66 370.792C1399.36 431.268 1402.28 497.946 1381.63 558.79C1361.22 618.94 1322.26 676.32 1264.79 703.375C1211.15 728.628 1150.42 701.672 1091.47 695.396C1040.59 689.98 985.56 699.116 944.028 669.23C902.503 639.349 897.413 582.383 872.4 537.757Z" stroke="#F5E7B2" stroke-dasharray="10 10"/>
<path fill-rule="evenodd" clip-rule="evenodd" d="M204.837 997.437C217.333 917.295 177.566 815.193 239.293 762.576C299.781 711.015 392.487 764.537 471.788 769.885C547.342 774.981 629.645 750.421 692.185 793.12C755.902 836.623 778.785 917.866 797.982 992.592C816.653 1065.27 823.516 1140.99 799.842 1212.19C775.746 1284.67 729.531 1349.17 665.562 1390.9C602.322 1432.16 523.773 1457.22 450.176 1440.33C381.484 1424.57 344.485 1354.79 293.967 1305.64C250.367 1263.23 192.205 1231.38 175.308 1172.95C158.413 1114.53 195.468 1057.53 204.837 997.437Z" stroke="#B2F5DD" stroke-dasharray="10 10"/>
<path fill-rule="evenodd" clip-rule="evenodd" d="M846.418 1059.2C856.929 991.788 823.476 905.898 875.402 861.636C926.286 818.262 1004.27 863.286 1070.98 867.785C1134.54 872.071 1203.77 851.412 1256.38 887.33C1309.98 923.925 1329.23 992.268 1345.38 1055.13C1361.09 1116.27 1366.86 1179.96 1346.94 1239.86C1326.67 1300.83 1287.8 1355.08 1233.99 1390.19C1180.79 1424.9 1114.71 1445.98 1052.8 1431.77C995.016 1418.52 963.891 1359.81 921.395 1318.47C884.718 1282.8 835.791 1256 821.577 1206.85C807.365 1157.7 838.536 1109.75 846.418 1059.2Z" stroke="#D4D2D9" stroke-dasharray="10 10"/>
<path fill-rule="evenodd" clip-rule="evenodd" d="M1108.48 2049.45C1048.92 2082.74 1001.93 2162.04 935.064 2148.45C869.543 2135.13 856.906 2045.97 819.316 1990.68C783.503 1938 724.55 1896.23 720.391 1832.66C716.154 1767.9 758.091 1710.61 797.624 1659.13C836.075 1609.07 882.66 1565.25 942.099 1544C1002.6 1522.36 1069.28 1519.52 1130.1 1540.24C1190.23 1560.72 1247.56 1599.75 1274.55 1657.25C1299.74 1710.92 1272.72 1771.62 1266.37 1830.56C1260.9 1881.44 1269.97 1936.48 1240.04 1977.97C1210.11 2019.47 1153.14 2024.49 1108.48 2049.45Z" stroke="#C7B2F5" stroke-dasharray="10 10"/>
<path fill-rule="evenodd" clip-rule="evenodd" d="M455.48 2049.45C395.923 2082.74 348.928 2162.04 282.064 2148.45C216.543 2135.13 203.906 2045.97 166.316 1990.68C130.503 1938 71.5501 1896.23 67.3911 1832.66C63.1538 1767.9 105.091 1710.61 144.624 1659.13C183.075 1609.07 229.66 1565.25 289.099 1544C349.6 1522.36 416.281 1519.52 477.102 1540.24C537.228 1560.72 594.562 1599.75 621.552 1657.25C646.742 1710.92 619.716 1771.62 613.372 1830.56C607.897 1881.44 616.97 1936.48 587.036 1977.97C557.108 2019.47 500.136 2024.49 455.48 2049.45Z" stroke="#F5B2CA" stroke-dasharray="10 10"/>
</svg>
