<svg width="34" height="34" viewBox="0 0 34 34" fill="none" xmlns="http://www.w3.org/2000/svg">
<path d="M17 0.333252C26.2 0.333252 33.6667 7.79992 33.6667 16.9999C33.6667 26.1999 26.2 33.6666 17 33.6666C7.80004 33.6666 0.333374 26.1999 0.333374 16.9999C0.333374 7.79992 7.80004 0.333252 17 0.333252ZM17 30.3333C24.3667 30.3333 30.3334 24.3666 30.3334 16.9999C30.3334 9.63325 24.3667 3.66659 17 3.66659C9.63337 3.66659 3.66671 9.63325 3.66671 16.9999C3.66671 24.3666 9.63337 30.3333 17 30.3333ZM18.6667 16.9999H23.6667L17 23.6666L10.3334 16.9999H15.3334V10.3333H18.6667V16.9999Z" fill="#D4D2D9"/>
</svg>
