<svg width="169" height="40" viewBox="0 0 169 40" fill="none" xmlns="http://www.w3.org/2000/svg">
<path d="M79.4976 4.63344H74.2647V12.2154H79.4976V16.8489H87.5656V12.2154H92.7985V4.63344H87.5656V0H79.4976V4.63344Z" fill="#C7CDD5"/>
<path d="M0 32.7905V13.7059H19.441C19.797 13.6818 20.1543 13.6818 20.5103 13.7059C20.8704 13.7627 21.2273 13.8384 21.5795 13.9328C21.9244 14.0606 22.2601 14.2121 22.584 14.3864C22.908 14.5704 23.2121 14.7876 23.4912 15.0344C23.6876 15.2619 23.8715 15.4998 24.0421 15.7472C24.2103 16.0215 24.3566 16.3086 24.4795 16.6059C24.6073 16.9465 24.6996 17.2994 24.7549 17.6589C24.8214 18.066 24.8539 18.4778 24.8521 18.8902V25.3705C24.8533 25.7614 24.8207 26.1517 24.7549 26.537C24.704 26.8765 24.6115 27.2084 24.4795 27.5253C24.3876 27.8198 24.251 28.0984 24.0745 28.3515C23.9171 28.5983 23.7323 28.8266 23.5236 29.0319C23.3166 29.2565 23.0762 29.4478 22.8108 29.599C22.5491 29.7649 22.2725 29.9059 21.9846 30.0202C21.6215 30.1749 21.2405 30.2838 20.8505 30.3442C20.4582 30.3948 20.0633 30.4219 19.6678 30.4252H9.20208V39.9999H0V32.7905ZM9.13728 18.0316V26.2292H14.5808C14.7334 26.228 14.8813 26.1768 15.002 26.0834C15.1399 25.979 15.2603 25.8532 15.3584 25.7108C15.4514 25.5654 15.5224 25.4071 15.569 25.2409C15.5899 25.0796 15.5899 24.9163 15.569 24.7549V19.3276C15.5712 19.1448 15.5382 18.9633 15.4718 18.793C15.4181 18.6482 15.3354 18.5159 15.2288 18.4042C15.1396 18.286 15.0228 18.1914 14.8886 18.1288C14.7921 18.0794 14.6881 18.0466 14.5808 18.0316H9.13728Z" fill="#233A73"/>
<path d="M48.6025 20.5589V35.1397C48.6063 35.2696 48.6395 35.397 48.6997 35.5123C48.7695 35.6423 48.8567 35.7623 48.9589 35.8687C49.081 35.9612 49.2112 36.0425 49.3478 36.1117C49.4679 36.1743 49.6011 36.2076 49.7366 36.2089H53.7382C53.8714 36.2037 54.0028 36.1763 54.127 36.1279C54.2583 36.0833 54.3756 36.0051 54.4672 35.9011C54.5661 35.8097 54.6532 35.7063 54.7264 35.5933C54.8001 35.4951 54.8399 35.3758 54.8399 35.2531V20.6723H63.7665V39.9999H44.9897C44.5974 39.9986 44.2063 39.9552 43.8233 39.8703C43.4667 39.7937 43.1191 39.6797 42.7864 39.5301C42.4783 39.3493 42.1857 39.1434 41.9116 38.9145C41.6445 38.6908 41.4003 38.4411 41.1825 38.1692C40.9552 37.8824 40.7495 37.5792 40.5669 37.262C40.3861 36.9414 40.2342 36.6052 40.1133 36.2575C40.0161 35.9173 39.9351 35.5609 39.8703 35.2045C39.8117 34.862 39.7846 34.515 39.7893 34.1676V20.5589H48.6025Z" fill="#233A73"/>
<path d="M87.5656 20.6885V24.2365H75.739C75.6475 24.2249 75.555 24.2249 75.4636 24.2365L75.1557 24.3661C75.0657 24.412 74.9836 24.4722 74.9127 24.5443C74.8509 24.6166 74.8165 24.7084 74.8155 24.8035V25.8727C74.817 25.9188 74.8278 25.9641 74.8473 26.0059C74.8668 26.0477 74.8945 26.0851 74.9289 26.1158L75.1881 26.2778C75.2846 26.3271 75.3886 26.36 75.496 26.375H75.8038H84.5198C84.7948 26.3521 85.0711 26.3521 85.3461 26.375C85.6146 26.4225 85.8798 26.4875 86.1399 26.5694C86.6652 26.7505 87.1419 27.0498 87.5332 27.4442C87.702 27.6243 87.8538 27.8195 87.9868 28.0275C88.128 28.2645 88.2473 28.514 88.3432 28.7727C88.4457 29.0444 88.5164 29.3271 88.5538 29.6151C88.6069 29.9528 88.634 30.294 88.6348 30.6358V35.1558C88.6363 35.4877 88.6037 35.8189 88.5376 36.1441C88.4803 36.4611 88.3879 36.7708 88.2622 37.0675C88.1664 37.3403 88.0298 37.597 87.8572 37.829C87.679 38.0558 87.517 38.2664 87.3388 38.4608C86.9072 38.8402 86.4279 39.1615 85.9131 39.4167C85.5755 39.5642 85.2222 39.6729 84.8601 39.7407C84.5167 39.7912 84.1703 39.8182 83.8232 39.8217H66.7799V36.5167H79.3842C79.4912 36.5108 79.5959 36.4832 79.692 36.4357C79.7918 36.3898 79.8846 36.3298 79.9674 36.2575C80.0617 36.2033 80.14 36.125 80.1942 36.0307C80.2169 35.9348 80.2169 35.8349 80.1942 35.7391V34.6698C80.2168 34.5794 80.2168 34.4848 80.1942 34.3944C80.1343 34.3132 80.0568 34.2467 79.9674 34.2C79.8815 34.1278 79.7825 34.0728 79.6758 34.038C79.5799 34.0152 79.48 34.0152 79.3842 34.038H70.7005C70.3534 34.0345 70.007 34.0075 69.6637 33.957C69.3015 33.8892 68.9482 33.7805 68.6106 33.633C68.3847 33.533 68.1679 33.4138 67.9626 33.2765C67.7663 33.1288 67.5918 32.9543 67.4441 32.7581C67.2962 32.5823 67.166 32.3924 67.0553 32.1911C66.9402 31.9857 66.8479 31.7684 66.7799 31.543C66.725 31.3413 66.6871 31.1354 66.6665 30.9274C66.65 30.6901 66.65 30.4519 66.6665 30.2146V25.0141C66.6614 24.6972 66.6995 24.3811 66.7799 24.0745C66.848 23.7896 66.9457 23.5127 67.0715 23.2482C67.2173 23.0052 67.3793 22.7784 67.5413 22.5516C67.7192 22.3413 67.9143 22.1462 68.1246 21.9683C68.3501 21.7722 68.5943 21.5985 68.8536 21.4499C69.1018 21.3085 69.3621 21.1892 69.6312 21.0935C69.9795 20.9643 70.3369 20.8614 70.7005 20.7857C71.0535 20.7226 71.4112 20.6901 71.7698 20.6885H87.5656Z" fill="#233A73"/>
<path d="M114.329 15.8768V19.846H100.348L100.105 24.5929H109.971C110.56 24.5909 111.146 24.6839 111.705 24.8683C112.03 24.9745 112.34 25.1215 112.628 25.3057C112.91 25.4803 113.166 25.6929 113.39 25.9376C113.599 26.1382 113.779 26.3673 113.924 26.618C114.084 26.853 114.209 27.1093 114.297 27.3794C114.413 27.6727 114.499 27.9766 114.556 28.2867C114.609 28.6025 114.636 28.9222 114.637 29.2425V35.5609C114.637 35.8866 114.61 36.2117 114.556 36.5329C114.502 36.8226 114.415 37.1053 114.297 37.3754C114.197 37.6987 114.037 38.0008 113.827 38.2664C113.638 38.5172 113.427 38.7503 113.195 38.963L112.483 39.4005C112.237 39.5306 111.976 39.6286 111.705 39.6921C111.436 39.7869 111.16 39.8574 110.879 39.9027C110.587 39.9256 110.295 39.9256 110.004 39.9027H92.4745V36.0631H105.435C105.501 36.0653 105.568 36.0535 105.629 36.0284C105.69 36.0033 105.746 35.9654 105.792 35.9173C105.898 35.8023 105.986 35.671 106.051 35.5285C106.109 35.3708 106.152 35.2081 106.18 35.0424C106.18 34.8642 106.18 34.7184 106.18 34.5888V29.842C106.21 29.665 106.21 29.4843 106.18 29.3073C106.132 29.1685 106.055 29.0414 105.954 28.9347C105.875 28.8271 105.769 28.7431 105.646 28.6917C105.535 28.663 105.42 28.6521 105.306 28.6593H92.037L92.1991 15.9092L114.329 15.8768Z" fill="#233A73"/>
<path d="M122.77 15.8444H136.476C136.852 15.8456 137.227 15.8891 137.594 15.974C137.918 16.0443 138.238 16.1363 138.55 16.2494C138.877 16.3961 139.182 16.5869 139.457 16.8165C139.722 17.0249 139.961 17.2642 140.17 17.5293C140.434 17.848 140.653 18.2025 140.818 18.5824C141.162 19.3254 141.386 20.1183 141.482 20.9315C141.506 21.3253 141.506 21.7203 141.482 22.1141V33.7464C141.507 34.1564 141.507 34.5676 141.482 34.9776C141.436 35.3569 141.354 35.7311 141.239 36.0955C141.135 36.5164 140.982 36.9241 140.785 37.3105C140.614 37.6651 140.408 38.0016 140.17 38.315C139.95 38.5859 139.7 38.8306 139.425 39.044C139.167 39.2527 138.884 39.427 138.582 39.5625C138.281 39.7211 137.959 39.8357 137.626 39.9027C137.301 39.9679 136.97 40.0004 136.638 39.9999H122.705C122.324 40.0022 121.944 39.9642 121.571 39.8865C121.193 39.8083 120.828 39.6774 120.486 39.4977C120.149 39.3116 119.834 39.0888 119.546 38.8334C119.232 38.5677 118.959 38.2564 118.736 37.91C118.549 37.5964 118.381 37.2718 118.234 36.9379C118.071 36.5625 117.946 36.1717 117.861 35.7715C117.861 35.4312 117.748 35.0748 117.699 34.7022C117.673 34.303 117.673 33.9025 117.699 33.5033V22.4382C117.667 22.0067 117.667 21.5735 117.699 21.1421C117.754 20.7044 117.841 20.2713 117.958 19.846C118.039 19.4269 118.169 19.0189 118.347 18.631C118.527 18.2538 118.744 17.8956 118.995 17.5617C119.225 17.2697 119.486 17.0036 119.773 16.7679C120.077 16.5336 120.416 16.3478 120.777 16.217C121.41 15.9796 122.078 15.8536 122.754 15.8444H122.77ZM131.794 19.8946H127.322C127.151 19.8912 126.983 19.9361 126.836 20.0242C126.67 20.1002 126.525 20.2173 126.415 20.3645C126.28 20.4875 126.169 20.6362 126.091 20.8019C126.012 20.9571 125.973 21.1298 125.978 21.3041V34.6212C125.978 34.8041 126.029 34.9833 126.124 35.1396C126.22 35.2974 126.34 35.4394 126.48 35.5609C126.62 35.6959 126.778 35.8104 126.95 35.9011C127.117 35.982 127.299 36.0262 127.484 36.0307H131.794C131.94 36.0278 132.083 35.9947 132.215 35.9335C132.368 35.8629 132.51 35.7701 132.636 35.6581C132.753 35.5671 132.847 35.4507 132.912 35.3178C132.99 35.2029 133.035 35.0682 133.041 34.929V20.9963C133.023 20.834 132.955 20.6812 132.847 20.5589C132.773 20.4318 132.681 20.317 132.572 20.2187C132.441 20.1171 132.3 20.0302 132.15 19.9594C132.036 19.9174 131.916 19.8955 131.794 19.8946Z" fill="#233A73"/>
<path d="M149.712 15.8445H163.402C163.784 15.843 164.164 15.8865 164.536 15.9741C164.86 16.0443 165.18 16.1364 165.492 16.2495C165.819 16.3961 166.124 16.5869 166.399 16.8165C166.664 17.025 166.903 17.2643 167.112 17.5293C167.382 17.8439 167.601 18.1993 167.76 18.5824C168.104 19.3254 168.328 20.1183 168.424 20.9315C168.448 21.3254 168.448 21.7203 168.424 22.1142V33.7464C168.449 34.1564 168.449 34.5676 168.424 34.9777C168.378 35.357 168.296 35.7312 168.181 36.0955C168.076 36.5165 167.924 36.9241 167.727 37.3106C167.562 37.6684 167.356 38.0055 167.112 38.315C166.892 38.586 166.642 38.8306 166.367 39.0441C166.107 39.2492 165.824 39.4232 165.524 39.5625C165.223 39.7211 164.901 39.8357 164.568 39.9027C164.259 39.9648 163.944 39.9973 163.629 39.9999H149.696C149.315 40.0023 148.935 39.9643 148.562 39.8865C148.184 39.8083 147.818 39.6774 147.476 39.4977C147.14 39.3116 146.824 39.0889 146.537 38.8335C146.226 38.5634 145.954 38.2528 145.727 37.91C145.54 37.5964 145.372 37.2718 145.224 36.938C145.069 36.5598 144.944 36.1697 144.852 35.7715C144.852 35.4313 144.738 35.0749 144.69 34.7022C144.664 34.303 144.664 33.9026 144.69 33.5034V22.4382C144.693 22.005 144.72 21.5724 144.771 21.1421C144.826 20.7044 144.913 20.2713 145.03 19.8461C145.108 19.4244 145.245 19.0155 145.435 18.631C145.597 18.2479 145.809 17.8883 146.067 17.5617C146.297 17.2698 146.557 17.0036 146.844 16.7679C147.149 16.5336 147.488 16.3478 147.849 16.2171C148.481 15.9797 149.15 15.8536 149.825 15.8445H149.712ZM158.768 19.8947H154.264C154.093 19.8912 153.925 19.9361 153.778 20.0243C153.612 20.1003 153.467 20.2173 153.357 20.3645C153.222 20.4876 153.111 20.6362 153.033 20.8019C152.954 20.9571 152.915 21.1299 152.92 21.3041V34.6212C152.92 34.8041 152.971 34.9834 153.066 35.1397C153.157 35.301 153.278 35.4439 153.422 35.5609C153.562 35.6959 153.72 35.8105 153.892 35.9011C154.059 35.9821 154.241 36.0263 154.426 36.0307H158.768C158.914 36.0278 159.057 35.9947 159.19 35.9335C159.341 35.8591 159.482 35.7667 159.611 35.6581C159.727 35.5671 159.821 35.4508 159.886 35.3179C159.965 35.2029 160.01 35.0682 160.016 34.9291V20.9963C160.01 20.852 159.965 20.712 159.886 20.5913C159.813 20.4643 159.72 20.3495 159.611 20.2511C159.478 20.1531 159.337 20.0664 159.19 19.9919C159.057 19.9307 158.914 19.8976 158.768 19.8947Z" fill="#233A73"/>
<path d="M36.7921 39.8703C36.7921 39.8703 32.4179 39.8703 32.0614 39.8703C31.6887 39.7907 31.336 39.6364 31.0246 39.4167C30.7025 39.1815 30.4089 38.9097 30.1497 38.6066C29.8747 38.3021 29.6305 37.971 29.4207 37.6184C29.1833 37.2417 28.9774 36.8462 28.8051 36.4357C28.6269 36.0136 28.4754 35.5807 28.3514 35.1396C28.2542 34.686 28.1732 34.2162 28.1084 33.7626C28.0444 33.3009 28.0119 32.8354 28.0112 32.3693V14.3864H36.8407L36.7921 39.8703Z" fill="#233A73"/>
</svg>
