<svg width="345" height="592" viewBox="0 0 345 592" fill="none" xmlns="http://www.w3.org/2000/svg">
<circle cx="337" cy="8" r="8" fill="#F5F4F7"/>
<circle cx="289" cy="56" r="8" fill="#F5F4F7"/>
<circle cx="337" cy="56" r="8" fill="#F5F4F7"/>
<circle cx="193" cy="104" r="8" fill="#F5F4F7"/>
<circle cx="241" cy="104" r="8" fill="#F5F4F7"/>
<circle cx="289" cy="104" r="8" fill="white"/>
<circle cx="337" cy="104" r="8" fill="#F5F4F7"/>
<circle cx="49" cy="152" r="8" fill="#F5F4F7"/>
<circle cx="97" cy="152" r="8" fill="white"/>
<circle cx="145" cy="152" r="8" fill="#F5F4F7"/>
<circle cx="193" cy="152" r="8" fill="#F5F4F7"/>
<circle cx="241" cy="152" r="8" fill="#F5F4F7"/>
<circle cx="289" cy="152" r="8" fill="white"/>
<circle cx="337" cy="152" r="8" fill="#F5F4F7"/>
<circle cx="1" cy="200" r="8" fill="#F5F4F7"/>
<circle cx="49" cy="200" r="8" fill="#F5F4F7"/>
<circle cx="97" cy="200" r="8" fill="#F5F4F7"/>
<circle cx="145" cy="200" r="8" fill="white"/>
<circle cx="193" cy="200" r="8" fill="#F5F4F7"/>
<circle cx="241" cy="200" r="8" fill="#F5F4F7"/>
<circle cx="289" cy="200" r="8" fill="#F5F4F7"/>
<circle cx="337" cy="200" r="8" fill="#F5F4F7"/>
<circle cx="1" cy="248" r="8" fill="white"/>
<circle cx="49" cy="248" r="8" fill="#F5F4F7"/>
<circle cx="97" cy="248" r="8" fill="#F5F4F7"/>
<circle cx="145" cy="248" r="8" fill="#F5F4F7"/>
<circle cx="193" cy="248" r="8" fill="#F5F4F7"/>
<circle cx="241" cy="248" r="8" fill="white"/>
<circle cx="289" cy="248" r="8" fill="#F5F4F7"/>
<circle cx="337" cy="248" r="8" fill="#F5F4F7"/>
<circle cx="1" cy="296" r="8" fill="white"/>
<circle cx="49" cy="296" r="8" fill="white"/>
<circle cx="97" cy="296" r="8" fill="#F5F4F7"/>
<circle cx="145" cy="296" r="8" fill="#F5F4F7"/>
<circle cx="193" cy="296" r="8" fill="#F5F4F7"/>
<circle cx="241" cy="296" r="8" fill="#F5F4F7"/>
<circle cx="289" cy="296" r="8" fill="white"/>
<circle cx="337" cy="296" r="8" fill="#F5F4F7"/>
<circle cx="1" cy="344" r="8" fill="#F5F4F7"/>
<circle cx="49" cy="344" r="8" fill="#F5F4F7"/>
<circle cx="97" cy="344" r="8" fill="#F5F4F7"/>
<circle cx="145" cy="344" r="8" fill="#F5F4F7"/>
<circle cx="193" cy="344" r="8" fill="#F5F4F7"/>
<circle cx="241" cy="344" r="8" fill="#F5F4F7"/>
<circle cx="289" cy="344" r="8" fill="white"/>
<circle cx="337" cy="344" r="8" fill="#F5F4F7"/>
<circle cx="1" cy="392" r="8" fill="#F5F4F7"/>
<circle cx="49" cy="392" r="8" fill="#F5F4F7"/>
<circle cx="97" cy="392" r="8" fill="#F5F4F7"/>
<circle cx="145" cy="392" r="8" fill="#F5F4F7"/>
<circle cx="193" cy="392" r="8" fill="white"/>
<circle cx="241" cy="392" r="8" fill="#F5F4F7"/>
<circle cx="289" cy="392" r="8" fill="#F5F4F7"/>
<circle cx="337" cy="392" r="8" fill="#F5F4F7"/>
<circle cx="1" cy="440" r="8" fill="#F5F4F7"/>
<circle cx="49" cy="440" r="8" fill="#F5F4F7"/>
<circle cx="97" cy="440" r="8" fill="white"/>
<circle cx="145" cy="440" r="8" fill="#F5F4F7"/>
<circle cx="193" cy="440" r="8" fill="#F5F4F7"/>
<circle cx="241" cy="440" r="8" fill="#F5F4F7"/>
<circle cx="289" cy="440" r="8" fill="#F5F4F7"/>
<circle cx="337" cy="440" r="8" fill="#F5F4F7"/>
<circle cx="1" cy="488" r="8" fill="#F5F4F7"/>
<circle cx="49" cy="488" r="8" fill="#F5F4F7"/>
<circle cx="97" cy="488" r="8" fill="#F5F4F7"/>
<circle cx="145" cy="488" r="8" fill="white"/>
<circle cx="193" cy="488" r="8" fill="#F5F4F7"/>
<circle cx="241" cy="488" r="8" fill="white"/>
<circle cx="289" cy="488" r="8" fill="white"/>
<circle cx="337" cy="488" r="8" fill="white"/>
<circle cx="1" cy="536" r="8" fill="#F5F4F7"/>
<circle cx="49" cy="536" r="8" fill="#F5F4F7"/>
<circle cx="97" cy="536" r="8" fill="#F5F4F7"/>
<circle cx="145" cy="536" r="8" fill="#F5F4F7"/>
<circle cx="193" cy="536" r="8" fill="#F5F4F7"/>
<circle cx="241" cy="536" r="8" fill="#F5F4F7"/>
<circle cx="289" cy="536" r="8" fill="#F5F4F7"/>
<circle cx="337" cy="536" r="8" fill="white"/>
<circle cx="1" cy="584" r="8" fill="white"/>
<circle cx="49" cy="584" r="8" fill="#F5F4F7"/>
<circle cx="97" cy="584" r="8" fill="#F5F4F7"/>
<circle cx="145" cy="584" r="8" fill="white"/>
<circle cx="193" cy="584" r="8" fill="#F5F4F7"/>
<circle cx="241" cy="584" r="8" fill="white"/>
<circle cx="289" cy="584" r="8" fill="#F5F4F7"/>
<circle cx="337" cy="584" r="8" fill="#F5F4F7"/>
</svg>
