<svg width="1360" height="592" viewBox="0 0 1360 592" fill="none" xmlns="http://www.w3.org/2000/svg">
<circle cx="1352" cy="8" r="8" fill="#44FDBA"/>
<circle cx="1304" cy="56" r="8" fill="#F5F4F7"/>
<circle cx="1352" cy="56" r="8" fill="#F5F4F7"/>
<circle cx="1208" cy="104" r="8" fill="#F5F4F7"/>
<circle cx="1256" cy="104" r="8" fill="#F5F4F7"/>
<circle cx="1304" cy="104" r="8" fill="white"/>
<circle cx="1352" cy="104" r="8" fill="#F5F4F7"/>
<circle cx="1064" cy="152" r="8" fill="#FDD444"/>
<circle cx="1112" cy="152" r="8" fill="white"/>
<circle cx="1160" cy="152" r="8" fill="#F5F4F7"/>
<circle cx="1208" cy="152" r="8" fill="#F5F4F7"/>
<circle cx="1256" cy="152" r="8" fill="#F5F4F7"/>
<circle cx="1304" cy="152" r="8" fill="white"/>
<circle cx="1352" cy="152" r="8" fill="#F5F4F7"/>
<circle cx="968" cy="200" r="8" fill="white"/>
<circle cx="1016" cy="200" r="8" fill="#F5F4F7"/>
<circle cx="1064" cy="200" r="8" fill="#F5F4F7"/>
<circle cx="1112" cy="200" r="8" fill="#F5F4F7"/>
<circle cx="1160" cy="200" r="8" fill="white"/>
<circle cx="1208" cy="200" r="8" fill="#F5F4F7"/>
<circle cx="1256" cy="200" r="8" fill="#FD4487"/>
<circle cx="1304" cy="200" r="8" fill="#7D44FD"/>
<circle cx="1352" cy="200" r="8" fill="#F5F4F7"/>
<circle cx="968" cy="248" r="8" fill="#F5F4F7"/>
<circle cx="1016" cy="248" r="8" fill="white"/>
<circle cx="1064" cy="248" r="8" fill="#F5F4F7"/>
<circle cx="1112" cy="248" r="8" fill="#F5F4F7"/>
<circle cx="1160" cy="248" r="8" fill="#F5F4F7"/>
<circle cx="1208" cy="248" r="8" fill="#F5F4F7"/>
<circle cx="1256" cy="248" r="8" fill="white"/>
<circle cx="1304" cy="248" r="8" fill="#F5F4F7"/>
<circle cx="1352" cy="248" r="8" fill="#F5F4F7"/>
<circle cx="824" cy="296" r="8" fill="#F5F4F7"/>
<circle cx="872" cy="296" r="8" fill="#F5F4F7"/>
<circle cx="920" cy="296" r="8" fill="white"/>
<circle cx="968" cy="296" r="8" fill="#F5F4F7"/>
<circle cx="1016" cy="296" r="8" fill="white"/>
<circle cx="1064" cy="296" r="8" fill="white"/>
<circle cx="1112" cy="296" r="8" fill="#F5F4F7"/>
<circle cx="1160" cy="296" r="8" fill="#F5F4F7"/>
<circle cx="1208" cy="296" r="8" fill="#F5F4F7"/>
<circle cx="1256" cy="296" r="8" fill="#F5F4F7"/>
<circle cx="1304" cy="296" r="8" fill="white"/>
<circle cx="1352" cy="296" r="8" fill="#F5F4F7"/>
<circle cx="680" cy="344" r="8" fill="white"/>
<circle cx="728" cy="344" r="8" fill="#FD4487"/>
<circle cx="776" cy="344" r="8" fill="#F5F4F7"/>
<circle cx="824" cy="344" r="8" fill="#F5F4F7"/>
<circle cx="872" cy="344" r="8" fill="#F5F4F7"/>
<circle cx="920" cy="344" r="8" fill="white"/>
<circle cx="968" cy="344" r="8" fill="#F5F4F7"/>
<circle cx="1016" cy="344" r="8" fill="#F5F4F7"/>
<circle cx="1064" cy="344" r="8" fill="#F5F4F7"/>
<circle cx="1112" cy="344" r="8" fill="#F5F4F7"/>
<circle cx="1160" cy="344" r="8" fill="#F5F4F7"/>
<circle cx="1208" cy="344" r="8" fill="#F5F4F7"/>
<circle cx="1256" cy="344" r="8" fill="#F5F4F7"/>
<circle cx="1304" cy="344" r="8" fill="white"/>
<circle cx="1352" cy="344" r="8" fill="#F5F4F7"/>
<circle cx="584" cy="392" r="8" fill="white"/>
<circle cx="632" cy="392" r="8" fill="#F5F4F7"/>
<circle cx="680" cy="392" r="8" fill="#F5F4F7"/>
<circle cx="728" cy="392" r="8" fill="#F5F4F7"/>
<circle cx="776" cy="392" r="8" fill="#F5F4F7"/>
<circle cx="824" cy="392" r="8" fill="#F5F4F7"/>
<circle cx="872" cy="392" r="8" fill="#F5F4F7"/>
<circle cx="920" cy="392" r="8" fill="white"/>
<circle cx="968" cy="392" r="8" fill="#F5F4F7"/>
<circle cx="1016" cy="392" r="8" fill="#F5F4F7"/>
<circle cx="1064" cy="392" r="8" fill="#F5F4F7"/>
<circle cx="1112" cy="392" r="8" fill="#F5F4F7"/>
<circle cx="1160" cy="392" r="8" fill="#F5F4F7"/>
<circle cx="1208" cy="392" r="8" fill="white"/>
<circle cx="1256" cy="392" r="8" fill="#F5F4F7"/>
<circle cx="1304" cy="392" r="8" fill="#F5F4F7"/>
<circle cx="1352" cy="392" r="8" fill="#F5F4F7"/>
<circle cx="392" cy="440" r="8" fill="#F5F4F7"/>
<circle cx="440" cy="440" r="8" fill="white"/>
<circle cx="488" cy="440" r="8" fill="white"/>
<circle cx="536" cy="440" r="8" fill="#F5F4F7"/>
<circle cx="584" cy="440" r="8" fill="white"/>
<circle cx="632" cy="440" r="8" fill="#F5F4F7"/>
<circle cx="680" cy="440" r="8" fill="#F5F4F7"/>
<circle cx="728" cy="440" r="8" fill="#F5F4F7"/>
<circle cx="776" cy="440" r="8" fill="#F5F4F7"/>
<circle cx="824" cy="440" r="8" fill="#F5F4F7"/>
<circle cx="872" cy="440" r="8" fill="white"/>
<circle cx="920" cy="440" r="8" fill="#7D44FD"/>
<circle cx="968" cy="440" r="8" fill="white"/>
<circle cx="1016" cy="440" r="8" fill="#44FDBA"/>
<circle cx="1064" cy="440" r="8" fill="#F5F4F7"/>
<circle cx="1112" cy="440" r="8" fill="white"/>
<circle cx="1160" cy="440" r="8" fill="#F5F4F7"/>
<circle cx="1208" cy="440" r="8" fill="#F5F4F7"/>
<circle cx="1256" cy="440" r="8" fill="#F5F4F7"/>
<circle cx="1304" cy="440" r="8" fill="#F5F4F7"/>
<circle cx="1352" cy="440" r="8" fill="#F5F4F7"/>
<circle cx="296" cy="488" r="8" fill="#F5F4F7"/>
<circle cx="344" cy="488" r="8" fill="#F5F4F7"/>
<circle cx="392" cy="488" r="8" fill="#F5F4F7"/>
<circle cx="440" cy="488" r="8" fill="#F5F4F7"/>
<circle cx="488" cy="488" r="8" fill="#F5F4F7"/>
<circle cx="536" cy="488" r="8" fill="white"/>
<circle cx="584" cy="488" r="8" fill="#F5F4F7"/>
<circle cx="632" cy="488" r="8" fill="#F5F4F7"/>
<circle cx="680" cy="488" r="8" fill="#F5F4F7"/>
<circle cx="728" cy="488" r="8" fill="#F5F4F7"/>
<circle cx="776" cy="488" r="8" fill="#F5F4F7"/>
<circle cx="824" cy="488" r="8" fill="#F5F4F7"/>
<circle cx="872" cy="488" r="8" fill="#F5F4F7"/>
<circle cx="920" cy="488" r="8" fill="#F5F4F7"/>
<circle cx="968" cy="488" r="8" fill="#F5F4F7"/>
<circle cx="1016" cy="488" r="8" fill="#FDD444"/>
<circle cx="1064" cy="488" r="8" fill="#F5F4F7"/>
<circle cx="1112" cy="488" r="8" fill="#F5F4F7"/>
<circle cx="1160" cy="488" r="8" fill="white"/>
<circle cx="1208" cy="488" r="8" fill="#F5F4F7"/>
<circle cx="1256" cy="488" r="8" fill="white"/>
<circle cx="1304" cy="488" r="8" fill="white"/>
<circle cx="1352" cy="488" r="8" fill="white"/>
<circle cx="200" cy="536" r="8" fill="#F5F4F7"/>
<circle cx="248" cy="536" r="8" fill="#F5F4F7"/>
<circle cx="296" cy="536" r="8" fill="white"/>
<circle cx="344" cy="536" r="8" fill="white"/>
<circle cx="392" cy="536" r="8" fill="#F5F4F7"/>
<circle cx="440" cy="536" r="8" fill="#F5F4F7"/>
<circle cx="488" cy="536" r="8" fill="#F5F4F7"/>
<circle cx="536" cy="536" r="8" fill="#F5F4F7"/>
<circle cx="584" cy="536" r="8" fill="white"/>
<circle cx="632" cy="536" r="8" fill="#F5F4F7"/>
<circle cx="680" cy="536" r="8" fill="#F5F4F7"/>
<circle cx="728" cy="536" r="8" fill="#F5F4F7"/>
<circle cx="776" cy="536" r="8" fill="#F5F4F7"/>
<circle cx="824" cy="536" r="8" fill="#F5F4F7"/>
<circle cx="872" cy="536" r="8" fill="#F5F4F7"/>
<circle cx="920" cy="536" r="8" fill="#F5F4F7"/>
<circle cx="968" cy="536" r="8" fill="white"/>
<circle cx="1016" cy="536" r="8" fill="#F5F4F7"/>
<circle cx="1064" cy="536" r="8" fill="#F5F4F7"/>
<circle cx="1112" cy="536" r="8" fill="#F5F4F7"/>
<circle cx="1160" cy="536" r="8" fill="#F5F4F7"/>
<circle cx="1208" cy="536" r="8" fill="#F5F4F7"/>
<circle cx="1256" cy="536" r="8" fill="#F5F4F7"/>
<circle cx="1304" cy="536" r="8" fill="#F5F4F7"/>
<circle cx="1352" cy="536" r="8" fill="white"/>
<circle cx="8" cy="584" r="8" fill="#F5F4F7"/>
<circle cx="56" cy="584" r="8" fill="white"/>
<circle cx="104" cy="584" r="8" fill="#F5F4F7"/>
<circle cx="152" cy="584" r="8" fill="#F5F4F7"/>
<circle cx="200" cy="584" r="8" fill="#F5F4F7"/>
<circle cx="248" cy="584" r="8" fill="#F5F4F7"/>
<circle cx="296" cy="584" r="8" fill="#F5F4F7"/>
<circle cx="344" cy="584" r="8" fill="white"/>
<circle cx="392" cy="584" r="8" fill="white"/>
<circle cx="440" cy="584" r="8" fill="#F5F4F7"/>
<circle cx="488" cy="584" r="8" fill="#F5F4F7"/>
<circle cx="536" cy="584" r="8" fill="#F5F4F7"/>
<circle cx="584" cy="584" r="8" fill="white"/>
<circle cx="632" cy="584" r="8" fill="#F5F4F7"/>
<circle cx="680" cy="584" r="8" fill="#F5F4F7"/>
<circle cx="728" cy="584" r="8" fill="#F5F4F7"/>
<circle cx="776" cy="584" r="8" fill="#F5F4F7"/>
<circle cx="824" cy="584" r="8" fill="#F5F4F7"/>
<circle cx="872" cy="584" r="8" fill="#F5F4F7"/>
<circle cx="920" cy="584" r="8" fill="#F5F4F7"/>
<circle cx="968" cy="584" r="8" fill="#F5F4F7"/>
<circle cx="1016" cy="584" r="8" fill="white"/>
<circle cx="1064" cy="584" r="8" fill="#F5F4F7"/>
<circle cx="1112" cy="584" r="8" fill="#F5F4F7"/>
<circle cx="1160" cy="584" r="8" fill="white"/>
<circle cx="1208" cy="584" r="8" fill="#F5F4F7"/>
<circle cx="1256" cy="584" r="8" fill="white"/>
<circle cx="1304" cy="584" r="8" fill="#F5F4F7"/>
<circle cx="1352" cy="584" r="8" fill="#F5F4F7"/>
</svg>
