<svg width="128" height="40" viewBox="0 0 128 40" fill="none" xmlns="http://www.w3.org/2000/svg">
<path d="M11.7248 0.000886517C11.316 -0.0201547 11.0456 0.34034 11.0456 0.34034C11.0456 0.34034 6.63604 5.6488 4.04 8.84799C1.4437 12.0471 0.506022 14.2746 0.506022 14.2746C-1.31966 18.8807 2.38193 21.8958 2.38193 21.8958C6.23439 25.0781 10.4216 25.0613 10.4216 25.0613C10.3547 22.1469 10.4717 20.4218 10.4717 20.4218C10.7565 17.3232 14.0559 14.2581 14.0559 14.2581C12.933 14.3447 10.6906 14.3398 9.45346 13.221C8.21642 12.1021 8.99865 9.44597 8.99865 9.44597L12.2008 0.958889C12.2008 0.958889 12.6011 0.376567 12.028 0.0855021C11.9205 0.0309175 11.8188 0.00577405 11.7245 0.000886517H11.7248ZM115.314 0.000886517C115.22 0.00320608 115.118 0.0309407 115.01 0.0855021C114.436 0.376567 114.837 0.958889 114.837 0.958889L118.045 9.44597C118.045 9.44597 118.829 12.1021 117.59 13.221C116.35 14.3398 114.103 14.3447 112.978 14.2581C112.978 14.2581 116.284 17.3232 116.569 20.4218C116.569 20.4218 116.687 22.1469 116.62 25.0613C116.62 25.0613 120.815 25.0782 124.675 21.8958C124.675 21.8958 128.385 18.8807 126.555 14.2746C126.555 14.2746 125.616 12.0471 123.014 8.84799C120.413 5.6488 115.995 0.34034 115.995 0.34034C115.995 0.34034 115.723 -0.0200984 115.314 0.000886517H115.314ZM23.0731 13.6681C23.0731 13.6681 14.064 13.634 12.9081 21.5892V32.0262C12.9081 32.0262 13.0442 39.4374 23.515 39.9813C23.515 39.9813 29.0222 40.5592 32.9999 35.2898L28.5126 32.3322C28.5126 32.3322 26.3708 35.0858 23.6171 34.9158C20.8635 34.7458 18.2458 33.7259 18.2458 30.9042V28.5926H32.3539C32.3539 28.5926 33.3399 28.7965 33.3399 27.0287V21.8272C33.3399 21.8272 33.476 14.008 23.0731 13.6681ZM103.116 13.7387C103.116 13.7387 94.0786 13.9092 92.7996 21.8386V32.1128C92.7996 32.1128 93.1408 38.8484 102.946 39.7436C102.946 39.7436 112.751 40.3406 113.987 31.8571V21.0715C113.987 21.0715 113.092 14.0797 103.116 13.7387ZM66.3056 13.8066C66.3056 13.8066 57.2678 13.9772 55.9889 21.9066V32.1805C55.9889 32.1805 56.33 38.9163 66.1352 39.8116C66.1352 39.8116 75.9404 40.4083 77.1767 31.9248V21.1392C77.1767 21.1392 76.2813 14.1477 66.3056 13.8066ZM90.7652 13.8881C81.4595 14.0055 80.3588 21.3535 80.3588 21.3535V39.6453H85.6163V22.1677C85.6163 22.1677 86.5469 19.352 89.8378 19.1484C89.8378 19.1484 91.263 15.111 93.8754 14.0932C92.9239 13.9633 92.0384 13.898 91.2146 13.8881C91.0628 13.8874 90.913 13.8874 90.7652 13.8881ZM46.0676 14.1975C45.7101 14.1962 45.349 14.1981 44.9859 14.2108C39.1742 14.4067 36.9215 14.864 33.5259 15.8762C33.5259 15.8762 35.7132 17.9656 35.8112 20.3817C35.8112 20.3817 39.6965 19.3044 42.1126 19.4023V39.6452H47.4018V19.5329C47.4018 19.5329 51.4179 19.4677 53.5401 20.4146C53.5401 20.4146 53.3116 18.3902 56.0216 15.8762C56.0216 15.8762 51.4303 14.2404 46.0676 14.1974V14.1975ZM23.6788 18.8327C26.0627 18.8534 28.1055 20.3636 28.1384 22.0652V24.2071H18.2458V21.6912C18.2458 21.6912 19.4034 18.9649 23.4472 18.8356C23.5246 18.8346 23.602 18.8339 23.6788 18.8343V18.8327ZM103.202 18.9824C107.55 18.9398 108.616 20.7728 108.616 22.0517V30.8765C108.616 30.8765 108.019 34.3722 103.543 34.287C99.0665 34.2017 98.1287 31.9421 98.1287 30.1943V22.35C98.1287 22.35 98.8536 19.0251 103.202 18.9824ZM66.391 19.0501C70.7394 19.0075 71.8051 20.8408 71.8051 22.1197V30.9442C71.8051 30.9442 71.2082 34.4399 66.7319 34.3547C62.2557 34.2694 61.3179 32.0101 61.3179 30.2623V22.418C61.3179 22.418 62.0427 19.0928 66.391 19.0501Z" fill="#5C9F04"/>
</svg>
