<svg width="742" height="815" viewBox="0 0 742 815" fill="none" xmlns="http://www.w3.org/2000/svg">
<path d="M679.882 1.00711C678.398 1.74835 676.106 3.56772 674.757 5.11755C673.476 6.60001 672.195 7.88031 671.993 7.88031C671.791 7.88031 671.386 6.80215 671.117 5.52185C670.645 2.82648 669.903 2.15265 667.071 1.5462C663.97 0.872345 662.756 2.3548 662.756 6.93692C662.756 10.1714 662.621 10.5757 661.34 10.5757C660.531 10.5757 658.846 11.2495 657.565 11.9907C656.284 12.7993 655.138 13.271 655.003 13.1363C654.801 13.0015 655.003 11.7886 655.34 10.5083C656.284 7.34122 656.216 6.1283 654.935 4.91541C653.115 3.02866 650.486 3.6351 645.968 6.93692C642.597 9.36276 640.844 10.1714 637.81 10.5757C635.72 10.8452 632.754 11.7212 631.27 12.5298C627.63 14.3492 622.64 20.0094 621.224 23.9177C619.134 29.5106 616.775 31.1952 612.594 30.0497C610.37 29.4432 609.898 29.578 605.313 32.6776C598.84 37.0576 596.885 39.0791 595.874 42.5831C595.2 44.672 593.986 46.3566 591.222 48.7151C587.581 51.8821 583.536 56.3295 575.647 65.8306C573.625 68.2564 570.051 71.693 567.691 73.5124C564.792 75.6013 562.905 77.6902 562.163 79.3074C561.556 80.7225 557.646 85.4394 553.533 89.752C549.353 94.0646 545.442 98.8488 544.701 100.399C543.352 103.498 543.082 106.665 544.094 108.283C544.566 109.024 543.892 109.698 540.858 111.315C535.531 114.145 533.711 116.975 534.183 121.625C534.385 123.646 535.059 125.937 535.599 126.813C536.745 128.565 536.408 129.037 531.958 131.732C528.047 134.023 526.362 136.247 526.699 138.471C526.969 140.357 526.632 140.694 520.294 144.4C508.495 151.408 502.023 157.675 501.146 162.999C500.404 167.783 501.416 167.85 507.349 163.47C516.721 156.462 520.631 155.182 521.036 158.888C521.17 160.303 520.496 161.314 517.732 163.807C511.799 169.13 508.36 170.276 502.023 168.928C498.651 168.254 497.708 168.322 493.662 169.602C484.088 172.702 471.952 179.103 452.535 191.367C442.287 197.836 440.871 198.982 441.275 200.195C442.084 203.025 442.422 206.596 442.017 208.348C441.747 209.359 440.264 211.582 438.646 213.267C436.219 215.962 435.612 217.108 435.005 220.814C434.601 223.24 433.859 227.216 433.454 229.641C432.308 235.706 432.645 236.312 437.028 236.312C441.68 236.312 443.635 236.919 443.635 238.199C443.635 238.806 440.669 242.04 437.095 245.477C431.23 251.002 430.623 251.743 431.499 252.754C431.971 253.428 433.185 254.304 434.129 254.843C435.882 255.719 436.96 255.517 441.882 253.495C443.028 252.956 443.163 253.158 442.759 255.584C442.354 258.212 441.343 259.425 436.421 263.266C434.264 264.951 433.926 266.164 434.129 271.824C434.264 275.193 436.96 277.754 442.152 279.438C444.647 280.247 447.748 281.527 448.962 282.268C454.962 285.705 467.3 279.977 487.055 264.614C493.864 259.29 494.539 258.549 496.966 253.63C498.449 250.8 499.73 248.442 499.932 248.442C500.067 248.442 500.876 249.789 501.618 251.406C502.562 253.563 502.966 255.854 502.966 259.425C502.966 265.557 504.517 274.721 506.405 279.775C507.147 281.864 509.169 285.57 510.72 287.929C513.215 291.635 513.619 292.578 513.08 293.993C511.934 297.025 512.338 298.238 515.102 300.058C516.788 301.203 517.799 302.349 517.799 303.225C517.799 305.381 520.766 309.896 524.069 312.659C527.103 315.152 527.103 315.219 527.508 320.408C528.384 330.987 529.328 339.747 529.8 340.219C530.07 340.421 532.834 340.151 536.003 339.477C542.543 338.197 542.071 338.736 543.42 329.639C543.892 326.675 544.633 323.507 545.105 322.564C545.914 321.014 546.319 320.879 551.308 320.879C555.623 320.812 557.174 320.543 559.938 319.06C568.501 314.613 578.412 299.923 578.479 291.702C578.479 290.354 578.007 285.368 577.333 280.651C575.58 267.511 576.052 266.635 588.66 259.829C596.278 255.719 599.447 253.428 599.919 251.609C600.121 250.867 601.605 247.566 603.223 244.264C606.931 236.582 606.931 235.908 603.29 234.965C598.234 233.684 598.301 233.752 600.93 231.056C602.279 229.641 603.425 228.159 603.425 227.687C603.425 226.407 601.133 225.598 594.188 224.453C584.682 222.97 584.884 223.038 584.008 221.151C582.929 218.793 582.996 214.817 584.21 208.483C584.749 205.585 585.221 201.812 585.221 200.195C585.221 197.432 585.895 196.151 592.772 186.246C607.942 164.414 619.674 148.848 626.011 142.177C628.101 140.021 629.113 139.414 630.259 139.751C632.147 140.223 632.147 140.223 629.72 132.541C628.641 129.037 627.697 125.6 627.697 124.994C627.697 123.511 628.843 122.905 635.45 121.086C642.934 118.997 642.799 119.131 640.844 116.234C638.215 112.326 638.552 111.45 644.148 107.676L649.137 104.307L655.138 107.002C658.374 108.552 662.352 110.372 663.97 111.113C666.802 112.46 670.847 115.897 670.847 117.043C670.847 117.379 669.903 117.784 668.757 118.053C665.925 118.66 661.88 122.501 659.453 126.746C657.295 130.519 654.261 139.077 653.587 143.255C653.25 145.479 652.845 145.95 651.429 146.152C648.935 146.422 647.991 148.309 649.542 149.993C650.688 151.274 650.688 151.341 648.733 152.352C647.586 152.958 644.62 155.721 642.058 158.551C639.563 161.381 636.192 164.414 634.641 165.357C632.214 166.772 631.742 167.378 631.742 169.063C631.742 170.209 631.001 172.567 630.057 174.454C628.371 177.756 628.371 177.823 629.315 183.618C629.854 186.852 630.596 192.176 631.068 195.545C631.945 202.62 633.428 210.841 634.304 213.806C635.922 219.129 636.799 219.938 645.968 224.52C650.89 226.879 655.273 229.237 655.744 229.641C656.351 230.113 658.441 230.315 661.206 230.113C667.746 229.709 672.533 227.283 686.556 217.31C699.771 207.876 705.502 204.777 710.963 204.035C715.345 203.429 718.11 201.407 727.886 191.435C735.167 184.09 739.348 178.362 743.73 169.737C747.236 162.729 747.843 158.147 745.685 153.969C742.786 148.309 737.932 144.4 731.729 142.716L728.897 141.975L729.909 139.549C730.583 137.932 730.785 136.18 730.515 134.562C730.178 132.339 730.38 131.53 732.201 129.037L734.358 126.139L728.493 125.668C725.256 125.466 722.29 125.061 721.75 124.926C721.279 124.724 720.672 123.107 720.402 121.423C719.998 118.525 719.728 118.121 717.503 117.245C716.154 116.706 714.334 115.358 713.525 114.212L712.109 112.191L715.143 103.498L718.245 94.8058L710.828 86.9218C706.783 82.5419 702.94 78.2293 702.333 77.2859C700.917 75.197 700.917 72.9733 702.333 67.0435L703.479 62.2593L698.76 57.7445C695.321 54.5101 693.231 53.0276 690.939 52.4212L687.837 51.5452L685.68 42.7179C684.534 37.7988 683.522 33.4863 683.455 33.1494C683.387 32.745 684.803 32.1386 686.624 31.6669C689.321 30.993 690.871 29.9823 694.579 26.2762L699.232 21.694L697.748 20.4811C696.804 19.7399 695.119 19.3356 692.827 19.3356C690.871 19.3356 688.714 18.9313 687.972 18.3922C686.759 17.4489 686.759 17.3815 688.377 16.775C690.804 15.8316 691.883 14.3492 691.613 12.1929C691.411 10.5083 691.68 10.3061 694.782 9.43015C700.378 7.88031 700.176 8.01508 698.557 6.26309C696.198 3.70248 689.388 0.468048 685.882 0.0637512C683.522 -0.138397 681.904 0.131134 679.882 1.00711Z" fill="#F8E3EA" fill-opacity="0.4"/>
<path d="M206.041 53.4319C205.838 54.0384 205.636 55.0491 205.636 55.7904C205.636 57.4076 205.097 57.4076 203.209 55.6556L201.658 54.2405L197.141 56.3294C191.006 59.227 184.938 62.9331 184.466 64.146C183.454 66.8414 186.219 69.2672 192.489 71.2213C196.399 72.4342 196.602 72.9059 193.905 74.9275C191.882 76.4773 191.141 76.6794 188.781 76.2751C184.533 75.5339 178.33 75.7361 176.712 76.6121C174.892 77.5554 173.948 79.7791 174.42 82.2049C174.757 83.9569 174.959 84.0243 178.6 84.0243C183.926 84.0243 186.758 85.8437 186.758 89.1455C186.758 91.0323 186.219 92.1104 184.398 93.9298C182.106 96.2208 181.836 96.2882 178.398 95.8839C174.15 95.4122 173.611 95.8839 173.139 100.264L172.802 103.431L176.51 103.835C182.106 104.509 186.219 107.137 191.95 113.673C197.613 120.075 201.928 123.174 205.973 123.646C207.591 123.781 211.637 123.242 216.087 122.096C225.121 119.94 231.729 119.266 234.628 120.277C236.448 120.951 237.19 120.816 239.549 119.603C241.1 118.862 247.033 116.908 252.832 115.223C264.765 111.854 269.08 110.035 272.519 107.002C277.441 102.757 278.519 96.2208 275.418 90.0889C273.395 86.0458 273.26 83.9569 275.081 82.8114C276.834 81.7332 276.834 78.8357 275.081 76.6121C273.8 74.9948 273.732 74.9275 271.777 76.0056L269.822 77.1511L269.417 74.6579C269.013 71.8278 266.99 69.402 264.63 68.7955C262.001 68.1217 260.99 68.9303 260.181 72.2321C259.304 75.6013 258.832 75.9382 257.888 73.7819C256.675 71.2213 255.191 70.817 252.36 72.2321C250.944 72.9733 249.595 73.6472 249.326 73.7819C248.989 73.9167 248.786 73.5124 248.786 72.9733C248.786 70.7496 244.808 69.1998 239.347 69.2672C233.01 69.3346 231.122 69.8736 230.245 71.7604C229.301 73.8493 228.425 73.6472 229.234 71.4909C230.11 69.2672 230.11 66.7066 229.234 66.1675C228.829 65.898 226.942 65.9654 224.986 66.1675C221.48 66.6392 221.413 66.7066 219.458 70.4127C217.57 73.9841 217.233 74.2536 214.873 74.4558L212.311 74.6579L214.401 70.6149C217.502 64.3481 216.828 58.0814 212.581 54.3753C210.086 52.1516 206.715 51.6799 206.041 53.4319Z" fill="#F8E3EA" fill-opacity="0.4"/>
<path d="M701.727 229.641C695.793 230.315 685.815 232.808 680.017 234.965C677.859 235.773 673.746 238.064 670.915 239.951C664.375 244.398 663.97 245.881 668.285 249.991C671.117 252.687 671.184 252.821 670.915 256.73C670.578 263.198 672.533 264.209 678.938 260.907C681.163 259.762 681.23 259.762 682.376 261.312C683.455 262.727 683.455 263.064 682.511 264.816C681.298 267.242 681.23 273.913 682.309 280.314C683.32 285.772 682.511 288.333 679.612 289.546C675.499 291.23 671.252 289.074 666.465 282.74L663.364 278.764H658.711C656.149 278.764 653.318 278.495 652.374 278.09C650.89 277.551 650.419 277.753 648.328 280.247C643.879 285.435 635.586 303.427 636.058 306.863C636.192 307.942 636.934 310.165 637.743 311.85C638.485 313.534 639.631 318.117 640.238 321.957C641.182 328.224 641.519 329.168 643.339 330.92C645.429 332.806 645.497 332.806 651.632 332.402C658.711 331.863 658.711 331.863 658.711 337.119C658.711 339.006 658.105 341.364 657.026 343.52C655.543 346.418 655.34 347.361 655.745 351.135L656.149 355.38L653.453 356.054C650.823 356.728 650.756 356.728 649.677 354.437L648.531 352.078L642.665 352.482C633.563 353.156 625.877 354.234 619.809 355.717C613.336 357.267 612.865 357.065 606.19 351.539C603.56 349.383 601.47 348.17 600.324 348.17C597.29 348.17 586.503 352.146 579.491 355.852C575.783 357.873 569.243 361.31 564.995 363.601C560.747 365.892 555.758 368.25 554.005 368.924C552.117 369.598 549.016 371.552 546.724 373.641C543.083 376.943 542.746 377.145 542.746 375.663C542.746 373.169 541.06 371.417 537.217 369.733C535.262 368.924 533.576 368.116 533.442 368.048C533.307 367.913 533.981 367.105 534.925 366.161C535.869 365.151 536.678 363.736 536.678 362.86C536.678 360.366 533.172 354.1 530.947 352.752C528.318 351.135 527.711 351.202 525.284 353.291C522.721 355.447 522.587 357.738 524.879 358.951C527.104 360.097 527.036 360.569 524.34 362.59C519.216 366.498 510.99 368.452 506.54 366.835C505.192 366.364 504.72 366.7 502.899 369.598C500.877 372.9 500.809 372.9 498.382 372.361C497.034 372.024 495.685 371.754 495.416 371.754C495.079 371.754 494.876 370.676 494.876 369.396C494.876 367.105 494.809 367.105 490.359 365.757C487.797 365.016 484.156 364.073 482.268 363.668C480.313 363.197 478.695 362.657 478.695 362.455C478.762 362.186 479.167 361.242 479.706 360.299C480.246 359.356 480.65 357.469 480.718 356.054C480.718 353.561 480.583 353.426 476.538 351.539C474.178 350.394 471.885 349.518 471.413 349.518C470.874 349.518 472.425 347.429 474.785 344.868C479.234 340.016 484.696 331.526 486.583 326.405C487.595 323.642 488.134 323.238 493.258 320.677C500.675 316.971 500.135 315.556 490.831 313.804C488.808 313.4 486.92 312.861 486.583 312.524C486.246 312.187 486.853 309.559 488.134 306.257C490.157 301.136 491.64 292.241 490.561 292.241C488.943 292.241 483.145 296.015 482.201 297.699C481.19 299.451 480.718 299.653 477.684 299.653C475.863 299.653 472.357 299.855 469.93 300.058L465.548 300.529L462.177 305.179C460.356 307.672 458.738 310.233 458.603 310.772C458.199 312.456 460.356 312.658 462.716 311.176C465.817 309.289 469.998 308.75 473.638 309.761C475.324 310.233 476.672 310.839 476.672 311.109C476.672 312.052 470.537 314.545 467.301 314.949C465.413 315.152 462.446 314.882 459.884 314.208C457.525 313.602 455.434 313.265 455.232 313.467C455.03 313.669 454.828 320.003 454.828 327.483C454.76 340.488 454.828 341.229 456.311 343.52C457.592 345.609 457.794 346.89 457.794 352.078C457.794 358.682 459.075 363.466 462.109 367.913C463.525 370.002 463.592 370.407 462.783 372.361C461.705 374.921 459.008 376.404 457.525 375.191C456.041 373.978 455.097 374.854 455.097 377.415C455.097 378.627 454.76 380.582 454.356 381.795C453.681 383.614 453.344 383.883 451.052 383.883C448.76 383.883 448.085 383.479 445.051 380.043L441.68 376.269L437.837 379.234C435.747 380.851 433.725 382.671 433.32 383.277C432.781 384.153 432.174 384.22 430.219 383.816C425.027 382.536 412.756 384.962 408.374 388.061C406.284 389.544 406.284 389.274 407.632 397.697C407.902 399.853 407.7 400.797 406.554 402.279C405.205 403.964 404.666 404.166 401.564 403.964L398.126 403.762L397.452 397.765L396.777 391.835L394.553 395.406C393.339 397.428 390.844 401.605 388.956 404.772C384.709 411.915 382.619 414.139 375.877 418.586C370.078 422.36 366.775 425.19 366.775 426.335C366.775 426.672 366.303 427.009 365.763 427.009C364.55 427.009 348.706 433.478 347.492 434.489C346.885 434.961 346.211 434.961 345.402 434.556C343.919 433.748 332.996 434.556 330.232 435.634C328.209 436.443 327.198 438.195 324.299 445.607C321.13 453.828 318.433 456.456 311.017 458.68C308.724 459.354 307.781 459.354 306.095 458.68C303.263 457.534 301.847 458.343 298.004 463.397C294.633 467.979 293.083 468.383 288.7 466.159C285.464 464.475 284.318 462.521 284.183 458.343C284.048 456.523 283.981 454.906 283.913 454.839C283.913 454.771 282.363 455.176 280.475 455.715C277.306 456.658 276.969 456.658 274.542 455.243C271.508 453.491 270.429 453.761 268.002 456.86C265.777 459.893 265.507 464.947 267.53 468.383C268.676 470.337 268.743 471.078 268.204 474.043C267.799 475.93 266.923 478.086 266.181 478.895C264.9 480.243 264.361 480.31 258.293 479.906C254.72 479.636 251.348 479.367 250.809 479.165C250.27 479.03 248.989 477.547 247.977 475.863L246.157 472.83L230.111 473.167L214.064 473.504L212.176 475.661C211.165 476.873 210.356 478.221 210.356 478.693C210.356 479.165 211.637 480.175 213.188 480.984L216.087 482.466L213.12 483.747C211.502 484.42 209.479 485.162 208.603 485.364C207.727 485.566 206.985 486.038 206.985 486.442C206.985 487.857 209.075 490.957 211.637 493.248C214.334 495.674 214.469 495.741 218.379 495.337C221.885 494.932 222.694 495.135 225.863 496.819C230.178 499.178 233.954 503.692 237.122 510.296C238.943 514.137 239.954 515.35 241.909 516.361C243.258 517.102 244.539 517.708 244.674 517.776C244.809 517.91 244.134 519.191 243.123 520.673C242.179 522.156 241.37 523.503 241.37 523.773C241.37 524.042 242.314 526.064 243.393 528.355C244.943 531.522 245.685 534.352 246.494 540.551C247.033 544.999 247.977 550.39 248.517 552.478C249.461 556.252 249.461 556.319 247.708 558.88C245.483 562.182 240.359 572.963 236.583 582.33C233.819 589.27 233.279 590.079 228.223 595.133C223.773 599.58 214.604 607.194 211.3 609.148C210.895 609.418 208.401 608.879 205.839 608.003C203.209 607.127 196.737 605.442 191.41 604.229C172.532 600.052 169.026 598.973 159.722 594.526C150.485 590.079 144.889 588.327 141.788 588.933C140.844 589.135 138.821 588.731 137.271 588.057C135.787 587.383 131.877 586.373 128.641 585.766C122.37 584.688 120.28 583.812 115.291 580.241C113.066 578.691 111.381 577.95 109.695 577.95C106.257 577.95 105.38 578.421 103.155 581.656L101.2 584.486L95.132 584.89C86.0975 585.429 82.9961 587.383 80.9734 593.65C80.1644 595.941 80.2992 596.413 81.8499 599.243C82.7938 600.995 83.6029 602.814 83.6029 603.421C83.6029 603.96 82.1196 606.184 80.2992 608.205C78.5462 610.294 76.8607 612.585 76.591 613.394C76.1865 614.674 73.6244 616.763 62.2301 625.051C59.5333 627.005 57.3083 628.892 57.3083 629.162C57.3083 629.498 57.9151 630.846 58.7242 632.194C60.6794 635.496 60.0052 637.315 55.4205 640.819C49.2851 645.603 47.7344 647.557 47.3973 650.994C47.0602 653.959 46.4534 654.633 29.2608 672.085C19.4847 681.991 11.4615 690.346 11.4615 690.683C11.4615 691.02 11.9334 693.109 12.5402 695.4C13.7538 700.184 15.4394 703.621 17.934 706.586C19.6869 708.742 19.7544 708.81 18.6756 711.033C18.0688 712.313 15.9113 714.537 13.8212 716.087C9.84334 719.052 9.23655 720.602 11.1918 723.364C13.2144 726.329 11.9334 729.092 5.59577 735.696C2.08983 739.335 -0.000248581 741.963 0.404283 742.367C0.741392 742.636 8.42749 744.186 17.5294 745.736L33.9804 748.499L37.4189 751.733C39.2393 753.485 43.352 756.72 46.5208 758.876C56.5667 765.951 61.084 771.544 62.4324 778.956C63.4437 784.549 68.3655 785.156 85.9626 781.854C101.942 778.754 111.381 778.215 122.303 779.698C128.438 780.506 130.663 781.045 131.81 782.123C133.697 783.875 134.978 783.808 137.338 781.854C138.754 780.708 140.372 780.237 144.013 779.9C147.721 779.63 151.362 778.552 159.452 775.385C165.318 773.094 172.735 770.601 175.903 769.86C179.072 769.118 182.713 768.04 183.927 767.434C186.017 766.423 186.084 766.288 185.68 763.593L185.275 760.763L189.927 757.865C192.422 756.248 198.287 752.946 202.872 750.588C210.019 746.814 211.3 745.871 212.176 743.917C213.929 739.604 213.997 735.696 212.379 730.238C210.154 722.825 210.356 718.311 213.12 713.661C216.019 708.877 222.829 702.408 233.145 694.591C237.662 691.222 243.258 686.64 245.55 684.484C250.944 679.497 252.832 678.554 259.237 677.745C263.754 677.206 266.046 676.33 276.025 671.479L287.554 665.886H294.296C298.004 665.886 301.443 665.616 301.847 665.347C302.319 665.077 303.128 663.393 303.6 661.641C304.477 658.743 304.747 658.474 307.106 658.069C310.208 657.53 311.489 655.98 311.489 652.679C311.489 650.859 311.152 650.118 310.275 649.848C308.792 649.512 308.118 646.816 308.118 641.223C308.118 633.609 312.23 626.399 318.366 623.164L321.265 621.615L329.018 625.118C341.154 630.577 341.02 630.509 345.604 629.431C347.762 628.959 349.987 628.488 350.391 628.488C350.863 628.488 352.953 630.038 355.043 631.924C357.133 633.811 359.898 635.765 361.111 636.304C364.145 637.585 375 637.585 377.427 636.304C378.439 635.765 383.63 630.711 388.956 625.118C397.586 616.022 398.867 614.943 400.486 615.213C402.778 615.685 407.902 613.596 415.993 608.812C419.499 606.79 423.679 604.432 425.229 603.69L427.994 602.208L431.702 603.893C433.725 604.836 436.893 605.981 438.646 606.386C441.883 607.194 442.085 607.396 447.209 615.078C453.344 624.175 454.356 626.736 454.895 634.417C455.569 643.514 458.199 646.547 476.672 658.811C484.965 664.336 488.404 667.099 493.46 672.422C501.753 681.115 504.383 682.664 510.383 682.53C514.361 682.462 515.372 682.732 518.002 684.416C520.497 685.966 521.508 687.247 523.531 691.492C525.823 696.276 526.227 696.748 529.464 698.23C531.419 699.174 535.397 700.252 538.363 700.791L543.757 701.667L543.959 704.025C544.162 707.327 546.252 714.2 547.061 714.402C547.465 714.537 549.555 714.941 551.645 715.346C554.477 715.952 556.23 716.828 558.523 718.917C563.512 723.23 565.939 728.284 570.052 742.906C572.074 749.981 572.142 749.846 567.018 752.205C564.86 753.148 564.523 753.755 563.714 757.124C563.242 759.213 562.028 762.852 561.085 765.21C559.466 769.388 559.399 769.523 560.613 770.399C563.377 772.42 567.422 771.207 570.861 767.299C572.479 765.547 575.58 758.135 577.468 751.666C578.682 747.488 580.569 745.399 585.491 742.906C590.48 740.413 590.75 740.008 590.278 734.685C589.671 727.475 589.469 726.868 587.649 726.868C586.435 726.868 580.974 723.769 576.929 720.737C575.648 719.793 581.716 706.721 585.693 702.004L587.649 699.78L591.896 700.858C594.256 701.465 598.032 702.947 600.324 704.16C604.234 706.182 611.853 712.92 613.471 715.75C614.213 717.098 614.213 717.098 615.224 715.817C616.842 713.729 617.18 709.281 615.898 706.114C613.539 700.319 609.493 697.691 587.244 687.449C575.917 682.26 563.647 675.589 563.647 674.713C563.647 674.309 564.995 672.287 566.681 670.266C568.366 668.244 569.715 666.358 569.715 666.155C569.715 665.077 563.714 664.201 556.432 664.201C550.095 664.201 547.533 663.932 544.431 662.854C532.161 658.608 524.407 649.04 522.25 635.428C520.699 625.927 518.946 623.367 508.024 615.146C504.315 612.316 500.405 609.081 499.326 607.936C495.348 603.69 494.607 599.243 496.966 593.583C498.315 590.281 498.382 590.011 497.303 587.383C495.82 583.677 495.888 577.815 497.438 576.467C498.045 575.861 502.562 573.098 507.484 570.268L516.384 565.214L519.418 566.494C521.036 567.236 523.193 567.909 524.137 567.977C525.081 568.044 525.89 568.314 525.89 568.516C525.89 568.718 524.879 570.672 523.665 572.896L521.508 576.939L523.396 580.645C524.407 582.667 525.553 585.631 525.89 587.181C526.43 589.203 526.902 589.944 527.576 589.674C528.924 589.135 532.633 583.408 532.633 581.858C532.633 581.117 533.576 579.567 534.723 578.421L536.88 576.332L538.633 578.623C540.386 580.982 542.004 582.532 545.78 585.631C547.735 587.249 547.802 587.451 547.802 593.246C547.802 596.48 548.14 599.715 548.477 600.321C548.881 600.928 550.567 602.477 552.32 603.825C554.342 605.375 555.623 606.925 555.893 608.272C556.432 610.766 559.466 613.326 564.456 615.55C567.894 616.965 568.434 617.504 569.108 619.795L569.917 622.356H573.76C581.109 622.288 586.84 625.051 595.335 632.598C598.976 635.833 600.863 637.045 603.291 637.652C608.482 638.797 618.73 644.727 623.585 649.309C626.012 651.6 626.281 651.6 631.338 650.32C632.889 649.983 633.091 650.118 633.091 651.668C633.091 652.948 633.496 653.487 634.709 653.824C636.26 654.161 636.327 654.363 635.99 659.35C635.653 664.269 635.788 664.942 638.755 672.557L641.923 680.508L639.564 685.023L637.271 689.538L638.417 692.907C639.968 697.556 643.676 702.408 649.138 706.855C656.284 712.718 657.835 714.672 658.307 718.243C658.644 720.669 659.318 721.815 660.869 723.162C664.24 725.992 668.083 727.61 674.084 728.89L679.747 729.968L677.927 731.181C676.915 731.855 675.702 733.405 675.162 734.685C674.286 736.707 674.286 737.246 675.23 738.998C676.443 741.356 679.747 743.917 682.916 744.995C686.085 746.006 695.928 745.938 705.57 744.725C716.29 743.378 720.74 743.378 720.74 744.725C720.74 746.882 718.717 749.644 716.627 750.386C713.593 751.464 710.963 751.329 703.075 749.779C694.108 748.027 687.433 748.027 684.332 749.712C681.298 751.329 678.938 755.709 678.938 759.887C678.938 764.671 680.556 766.221 687.433 768.31C691.141 769.455 693.366 770.533 693.771 771.409C694.175 772.083 694.647 776.396 694.782 780.911C695.119 788.053 695.321 789.334 696.535 790.614C698.355 792.568 701.255 793.713 703.614 793.444C705.907 793.174 708.604 789.603 708.604 786.773C708.604 785.695 708.806 784.819 709.143 784.819C709.413 784.819 711.705 787.716 714.267 791.22C716.829 794.724 719.121 797.622 719.458 797.622C720.537 797.622 721.953 794.589 722.358 791.288C722.56 789.468 722.897 787.784 723.099 787.649C723.302 787.447 725.526 789.334 728.089 791.759C730.988 794.589 733.28 796.274 734.224 796.274C735.707 796.274 735.707 796.072 735.438 790.951C735.1 784.617 733.55 781.787 728.56 778.08C722.29 773.431 722.695 774.037 723.167 770.264L723.639 766.76L729.909 769.792C738.876 774.105 743.663 773.97 743.663 769.253C743.663 766.895 741.64 765.48 735.1 762.986L730.179 761.1V756.113V751.059L732.066 752.07C733.145 752.609 735.438 753.418 737.258 753.889C739.281 754.361 741.977 755.911 744.539 758C749.326 761.841 751.282 762.515 753.709 761.167C756.541 759.55 756.203 758.202 751.821 753.62C749.529 751.262 747.708 748.836 747.708 748.229C747.708 746.073 742.382 741.963 734.156 737.583C724.178 732.327 719.863 728.486 716.762 721.949C714.402 716.896 713.458 713.392 714.469 713.392C714.806 713.392 717.368 714.133 720.065 715.076C725.998 717.098 727.212 717.165 728.089 715.481C729.167 713.526 727.077 711.37 719.526 706.788C715.885 704.564 711.638 701.33 710.087 699.645C706.918 696.209 706.783 695.198 707.929 686.775C708.873 680.239 709.143 679.7 710.963 679.7C713.053 679.7 715.548 682.934 720.47 692.031C725.931 702.206 729.976 705.44 732.471 701.802C733.819 699.847 733.819 696.276 732.538 695.198C730.853 693.85 728.695 690.481 729.37 690.481C729.774 690.481 732.066 692.3 734.494 694.524C739.146 698.702 740.494 699.241 742.652 697.624C744.067 696.613 744.405 697.152 736.584 688.055C732.943 683.743 735.168 683.81 742.382 688.257C747.304 691.29 748.652 691.829 749.124 691.088C750.54 688.796 749.461 686.505 744.809 682.193C742.652 680.239 742.18 679.565 743.528 680.441C746.562 682.597 747.641 681.721 749.596 675.926C750.473 673.366 751.821 670.603 752.563 669.794C754.113 668.11 761.125 665.549 764.024 665.549C765.103 665.549 768.407 664.875 771.508 664.134C775.756 662.988 778.183 662.786 782.363 663.056C785.532 663.258 788.296 663.123 789.24 662.719C790.117 662.314 791.06 662.112 791.263 662.314C791.465 662.584 790.521 665.212 789.24 668.244C786.88 673.568 786.274 676.33 787.352 676.33C788.701 676.33 800.162 668.649 802.522 666.155C804.545 664.066 805.084 663.056 804.882 661.506C804.747 659.754 805.152 659.215 808.388 657.126C814.456 653.285 817.422 652.14 827.671 649.309C839.2 646.21 840.818 645.468 841.897 642.638L842.706 640.549L834.817 636.776C826.659 632.868 823.828 630.711 811.826 619.256L806.702 614.337L808.927 610.294C810.95 606.52 811.152 605.644 811.354 599.31C811.489 594.593 812.164 590.079 813.445 584.89L815.332 577.343L813.917 566.36C813.107 559.823 812.77 555.241 813.175 554.972C813.512 554.77 816.951 551.468 820.861 547.694L827.873 540.754L826.929 538.597C823.49 530.713 821.198 525.188 821.333 525.053C821.468 524.918 823.153 525.188 825.109 525.592C827.333 526.064 828.817 526.064 829.221 525.66C829.558 525.323 830.233 522.29 830.839 518.921C832.66 507.87 837.042 500.997 844.459 497.628C847.223 496.347 848.976 496.078 854.639 496.078H861.516L861.921 480.58C862.123 472.022 862.528 455.85 862.73 444.664L863.135 424.179L861.382 425.325C858.887 426.942 852.01 426.403 842.773 423.775C829.896 420.203 827.333 419.934 821.94 421.551C816.074 423.303 815.804 423.303 811.826 421.282C810.006 420.406 807.174 419.327 805.556 418.923L802.522 418.115L803.196 414.408C803.803 410.837 803.803 410.702 801.713 408.546C800.297 407.131 799.084 404.705 798.207 401.875C796.926 397.562 795.78 396.147 790.858 392.643C789.645 391.767 789.375 390.689 789.038 384.692L788.633 377.684L792.948 380.514C795.308 382.064 797.533 383.547 797.938 383.951C799.084 385.029 800.769 384.625 801.915 382.873C802.59 381.929 803.803 380.851 804.747 380.514C808.32 379.167 805.893 371.889 800.432 367.576C798.679 366.161 795.375 363.668 793.151 362.051C790.858 360.434 788.094 357.941 787.083 356.525L785.127 353.965L785.33 343.723L785.532 333.48L783.442 331.122C780.947 328.224 777.913 326.472 768.811 322.631C764.699 320.879 760.721 318.656 758.968 317.106C755.597 314.141 740.764 297.901 738.404 294.6L736.853 292.443L738.269 288.131C743.191 273.508 739.213 268.118 722.021 266.096C719.256 265.759 715.683 264.816 714.132 264.007L711.233 262.525L715.211 259.358C719.526 255.921 722.155 252.754 721.683 251.541C721.549 251.137 720.402 250.193 719.256 249.452C718.11 248.711 716.424 247.633 715.548 247.094C713.593 245.813 713.593 244.735 715.615 242.849C716.492 242.04 717.368 240.625 717.638 239.681C717.908 238.738 718.582 236.851 719.189 235.436C720.268 233.01 720.2 232.808 718.987 231.595C717.84 230.45 710.694 228.765 707.929 228.967C707.39 229.035 704.626 229.372 701.727 229.641Z" fill="#F8E3EA" fill-opacity="0.4"/>
<path d="M279.8 250.126C278.114 250.665 275.957 251.945 275.013 252.956C273.125 254.978 271.035 259.762 271.035 262.053C271.035 263.401 271.237 263.468 275.418 263.064C280.205 262.592 285.261 260.705 287.688 258.414C289.374 256.797 290.25 253.36 289.644 250.8C289.239 249.317 288.902 249.115 286.003 249.183C284.25 249.183 281.486 249.654 279.8 250.126Z" fill="#F8E3EA" fill-opacity="0.4"/>
<path d="M301.038 256.325C297.667 256.73 293.42 259.897 284.115 269.061L277.171 275.867L275.013 273.643C272.114 270.678 269.08 269.667 265.979 270.678C264.698 271.082 263.619 271.689 263.619 272.026C263.619 272.363 264.833 274.856 266.383 277.686C268.204 281.055 269.889 283.212 271.44 284.155C272.721 284.964 273.732 285.705 273.732 285.772C273.732 285.84 270.901 287.389 267.395 289.141C259.911 292.915 255.191 297.16 254.113 301.136C253.101 305.111 253.573 305.718 257.753 305.718C264.226 305.718 267.664 306.459 267.664 307.807C267.664 308.413 265.305 312.591 262.406 316.971C259.506 321.351 256.944 325.259 256.675 325.731C256.27 326.337 256.675 326.337 258.36 325.798C265.44 323.507 268.339 322.968 269.08 323.709C270.159 324.788 268.271 327.887 265.035 330.313C262.203 332.402 261.664 333.75 263.147 335.502C265.844 338.803 269.552 339.477 276.766 337.793C282.632 336.378 284.857 336.31 286.138 337.321C288.161 339.006 287.217 342.847 283.643 347.631L282.228 349.518L283.711 353.695C286.273 360.973 285.666 363.129 279.531 368.924C275.081 373.169 274.744 373.169 266.046 368.992C262.743 367.374 260.046 366.498 259.372 366.768C257.956 367.307 257.888 370.541 259.169 374.315L260.181 377.078L257.349 377.28C253.169 377.549 253.236 379.301 257.484 381.929C261.259 384.22 261.596 385.164 259.574 388.398C257.619 391.633 253.978 393.654 246.089 396.013C242.246 397.158 238.875 398.304 238.606 398.573C237.594 399.719 235.167 406.861 235.504 407.67C235.774 408.411 238.403 408.681 246.089 409.018L256.338 409.422L258.158 411.578C259.844 413.6 260.248 413.735 264.496 413.802C266.99 413.869 269.013 414.072 269.013 414.274C269.013 415.015 264.496 418.788 262.338 419.867C260.653 420.81 259.911 420.743 254.45 419.26C251.146 418.317 247.977 417.71 247.37 417.912C246.157 418.317 241.033 423.573 239.347 426.201C238.538 427.346 235.032 428.829 223.975 432.467C209.682 437.252 209.614 437.252 210.828 438.599C214.064 442.238 220.941 442.777 232.47 440.149C236.583 439.206 240.898 438.465 242.044 438.465C243.595 438.465 244.269 438.869 244.876 440.149C245.28 441.093 245.887 441.834 246.224 441.834C246.494 441.834 248.247 440.756 250.067 439.475C256.675 434.691 259.978 434.219 264.361 437.521C267.26 439.61 269.283 439.543 277.104 437.117C280.542 435.971 283.643 435.095 283.981 435.095C284.25 435.095 285.396 436.443 286.543 438.128C289.374 442.238 292.813 444.799 294.835 444.26C296.723 443.788 298.004 441.295 298.004 438.06C298.004 436.106 298.207 435.769 299.218 436.039C305.69 437.993 312.837 438.262 319.849 436.78C326.254 435.432 335.086 430.378 335.086 428.02C335.086 426.605 332.727 425.055 328.681 423.64C326.456 422.899 324.434 422.023 324.097 421.686C323.759 421.349 324.973 420.069 326.793 418.721C328.614 417.441 330.637 415.689 331.311 414.948C332.052 414.139 333.266 413.532 334.008 413.532C337.581 413.532 347.29 407.468 350.593 403.223C351.874 401.605 352.009 401.134 351.268 399.382C350.121 396.619 345.806 392.846 342.705 392.037C341.289 391.633 336.907 391.296 332.929 391.296C328.681 391.296 325.647 391.026 325.647 390.622C325.647 390.285 327.198 386.107 329.086 381.39C335.086 366.701 334.547 360.905 326.591 353.628L322.209 349.585L322.613 346.62C323.153 343.049 322.478 342.375 319.242 343.453C316.882 344.262 314.186 343.52 314.186 342.105C314.186 341.701 315.399 338.601 316.815 335.165C320.051 327.55 320.658 324.585 319.579 321.823C318.703 319.801 315.871 317.847 313.848 317.847C313.174 317.847 311.893 317.241 310.814 316.499C309.803 315.758 308.185 314.882 307.174 314.478C305.421 313.871 305.421 313.804 306.365 311.446C308.185 307.133 311.286 303.494 321.197 293.724C330.569 284.492 332.389 282.066 331.446 279.775C330.502 277.214 322.007 276.743 309.466 278.427C305.556 278.966 302.117 279.438 301.713 279.438C300.229 279.438 308.387 272.093 316.68 265.894C321.535 262.255 325.715 258.953 325.917 258.684C326.052 258.414 325.984 257.74 325.647 257.201C325.175 256.393 322.883 256.191 314.388 256.123C308.522 256.056 302.522 256.191 301.038 256.325Z" fill="#F8E3EA" fill-opacity="0.4"/>
<path d="M228.695 319.599C224.245 320.745 221.885 321.958 219.862 324.181C218.783 325.327 217.502 325.933 216.087 325.933C213.39 325.933 211.097 328.089 212.311 329.572C212.716 330.111 214.131 330.717 215.412 330.92C217.435 331.324 217.772 331.661 217.772 333.278C217.772 334.828 217.3 335.367 215.008 336.378C212.783 337.388 212.041 337.456 211.165 336.849C206.378 333.345 197.478 331.728 192.556 333.345C189.388 334.356 185.41 337.793 185.41 339.41C185.41 340.151 186.016 341.095 186.691 341.566C187.432 342.105 188.376 343.318 188.848 344.329C189.927 346.755 188.916 347.833 184.533 348.844C179.005 350.057 178.667 350.259 178.667 351.135C178.667 352.55 181.297 355.515 183.522 356.66C184.668 357.267 187.702 358.075 190.399 358.547L195.186 359.356L191.41 360.636C186.893 362.051 184.601 361.647 183.522 359.221C182.376 356.862 181.23 357.469 179.881 361.242C179.274 363.062 178.6 364.612 178.398 364.814C178.196 365.016 176.645 364.679 174.892 364.073C173.139 363.466 171.116 362.994 170.442 362.994C168.622 362.994 166.532 365.42 166.532 367.577C166.532 369.059 167.003 369.733 168.689 370.474L170.847 371.485L166.666 372.428C164.374 372.9 162.149 373.709 161.745 374.18C160.936 375.124 161.677 377.01 163.43 378.493C164.981 379.773 164.779 380.649 162.082 383.749C160.801 385.299 159.789 387.051 159.924 387.657C160.059 388.331 162.891 389.948 166.869 391.767L173.611 394.732L181.701 393.991C193.77 392.913 205.367 391.363 210.693 390.15C220.536 387.927 230.245 383.075 234.628 378.088C239.145 372.9 242.449 363.601 241.909 357.738L241.572 354.571L248.045 350.191L254.517 345.812L254.585 338.062C254.652 332.133 254.45 329.639 253.506 327.281C251.955 323.373 250.876 322.699 247.775 323.844C246.157 324.383 245.078 324.451 244.539 324.046C244.067 323.642 242.246 322.968 240.426 322.497C237.594 321.823 237.257 321.553 237.527 320.138C237.796 318.656 237.594 318.521 235.032 318.588C233.549 318.588 230.65 319.06 228.695 319.599Z" fill="#F8E3EA" fill-opacity="0.4"/>
<path d="M425.769 642.369C415.453 650.792 414.24 652.14 412.891 657.598C412.15 660.428 411.61 664.875 411.61 667.975C411.61 672.692 411.88 673.77 413.363 676.061C415.521 679.295 421.387 682.732 423.746 682.126C425.971 681.587 430.421 675.522 432.579 670.266C436.017 661.776 437.163 650.118 435.275 643.717C434.331 640.752 432.511 637.854 431.567 637.989C431.365 637.989 428.735 639.943 425.769 642.369Z" fill="#F8E3EA" fill-opacity="0.4"/>
<path d="M420.712 688.797C419.027 690.144 414.779 692.84 411.206 694.861C402.643 699.713 402.239 700.521 402.374 713.931C402.441 722.084 402.171 724.78 400.756 731.114C398.868 739.402 398.328 746.545 399.609 747.825C400.216 748.431 401.227 748.364 403.992 747.758C406.756 747.084 408.374 746.073 411.408 743.243C415.319 739.469 416.802 739.065 418.69 741.356C419.162 741.895 419.768 742.367 420.106 742.367C420.847 742.367 423.207 737.583 426.039 730.44L428.264 724.914L426.443 720.198C424.218 714.672 424.488 712.718 427.724 710.764C430.489 709.012 431.095 705.912 430.084 698.904C429.41 693.783 426.376 686.842 424.758 686.64C424.218 686.506 422.398 687.516 420.712 688.797Z" fill="#F8E3EA" fill-opacity="0.4"/>
<path d="M543.891 766.693C541.801 766.962 535.666 768.512 530.272 770.062C518.271 773.498 513.214 773.566 506.809 770.399L502.899 768.512L498.382 769.86C495.887 770.601 492.111 771.544 490.021 772.016C484.358 773.162 481.998 774.981 480.38 779.563C478.829 784.145 479.234 785.223 483.953 789.064C488.875 792.972 497.505 797.15 513.889 803.417C522.182 806.584 531.486 810.29 534.587 811.638L540.251 814.064L541.869 812.042C545.375 807.797 545.779 806.449 545.442 799.643C544.835 785.291 544.97 781.921 546.521 779.765C548.409 777.07 549.42 773.768 549.622 769.658C549.825 765.817 549.825 765.817 543.891 766.693Z" fill="#F8E3EA" fill-opacity="0.4"/>
</svg>
