<svg width="327" height="386" viewBox="0 0 327 386" fill="none" xmlns="http://www.w3.org/2000/svg">
<path d="M321.781 0.476273C321.079 0.826889 319.995 1.68747 319.357 2.42056C318.751 3.1218 318.145 3.72739 318.049 3.72739C317.954 3.72739 317.762 3.21741 317.635 2.61182C317.412 1.33687 317.061 1.01813 315.721 0.731262C314.254 0.412537 313.68 1.11375 313.68 3.28116C313.68 4.8111 313.617 5.00233 313.011 5.00233C312.628 5.00233 311.831 5.32108 311.225 5.67168C310.619 6.05417 310.077 6.27728 310.013 6.21353C309.917 6.14978 310.013 5.57607 310.172 4.97046C310.619 3.4724 310.587 2.89868 309.981 2.32495C309.12 1.43248 307.876 1.71935 305.739 3.28116C304.145 4.4286 303.316 4.8111 301.88 5.00233C300.892 5.12982 299.489 5.54419 298.787 5.92667C297.065 6.78726 294.705 9.46465 294.035 11.3133C293.046 13.9588 291.93 14.7557 289.953 14.2138C288.901 13.927 288.677 13.9907 286.509 15.4569C283.447 17.5287 282.522 18.4849 282.044 20.1423C281.725 21.1304 281.151 21.9272 279.843 23.0428C278.121 24.5409 276.208 26.6445 272.476 31.1387C271.52 32.2862 269.829 33.9117 268.713 34.7723C267.342 35.7604 266.449 36.7485 266.098 37.5134C265.811 38.1828 263.961 40.4139 262.016 42.4538C260.039 44.4938 258.189 46.7568 257.838 47.4899C257.2 48.9561 257.073 50.4541 257.551 51.2191C257.774 51.5697 257.456 51.8885 256.02 52.6534C253.501 53.9921 252.64 55.3308 252.863 57.5301C252.959 58.4863 253.278 59.57 253.533 59.9844C254.075 60.8131 253.916 61.0362 251.811 62.3111C249.961 63.3948 249.164 64.4467 249.323 65.4985C249.451 66.391 249.291 66.5503 246.294 68.3034C240.713 71.6182 237.651 74.5825 237.236 77.1005C236.886 79.3635 237.364 79.3954 240.17 77.3236C244.603 74.0088 246.453 73.4032 246.644 75.1562C246.708 75.8256 246.389 76.3037 245.082 77.483C242.275 80.001 240.649 80.5429 237.651 79.9054C236.056 79.5866 235.61 79.6185 233.696 80.2241C229.168 81.6903 223.427 84.7183 214.243 90.5193C209.395 93.5792 208.725 94.121 208.917 94.6947C209.299 96.0334 209.459 97.7227 209.267 98.5515C209.14 99.0296 208.438 100.081 207.673 100.878C206.525 102.153 206.238 102.695 205.951 104.448C205.759 105.596 205.409 107.476 205.217 108.624C204.675 111.492 204.835 111.779 206.908 111.779C209.108 111.779 210.033 112.066 210.033 112.671C210.033 112.958 208.63 114.488 206.939 116.114C204.165 118.727 203.878 119.078 204.292 119.556C204.516 119.875 205.09 120.289 205.536 120.544C206.365 120.959 206.876 120.863 209.204 119.907C209.746 119.652 209.81 119.747 209.618 120.895C209.427 122.138 208.949 122.712 206.62 124.528C205.6 125.325 205.44 125.899 205.536 128.576C205.6 130.17 206.876 131.381 209.331 132.178C210.511 132.561 211.978 133.166 212.552 133.517C215.391 135.142 221.227 132.433 230.571 125.166C233.792 122.648 234.111 122.297 235.259 119.971C235.961 118.632 236.567 117.516 236.662 117.516C236.726 117.516 237.109 118.154 237.46 118.919C237.906 119.939 238.097 121.022 238.097 122.712C238.097 125.612 238.831 129.947 239.724 132.338C240.075 133.326 241.031 135.079 241.765 136.194C242.945 137.947 243.136 138.394 242.881 139.063C242.339 140.497 242.53 141.071 243.838 141.931C244.635 142.473 245.114 143.015 245.114 143.43C245.114 144.45 246.517 146.585 248.079 147.892C249.515 149.071 249.515 149.103 249.706 151.557C250.121 156.561 250.567 160.705 250.79 160.928C250.918 161.024 252.225 160.896 253.724 160.578C256.818 159.972 256.594 160.227 257.232 155.924C257.456 154.522 257.806 153.024 258.03 152.577C258.412 151.844 258.604 151.78 260.964 151.78C263.005 151.749 263.738 151.621 265.046 150.92C269.096 148.816 273.784 141.868 273.816 137.979C273.816 137.342 273.593 134.983 273.274 132.752C272.445 126.537 272.668 126.122 278.632 122.903C282.235 120.959 283.734 119.875 283.957 119.014C284.053 118.664 284.755 117.102 285.52 115.54C287.274 111.907 287.274 111.588 285.552 111.142C283.16 110.536 283.192 110.568 284.436 109.293C285.074 108.624 285.616 107.922 285.616 107.699C285.616 107.094 284.531 106.711 281.247 106.169C276.75 105.468 276.846 105.5 276.431 104.607C275.921 103.492 275.953 101.611 276.527 98.6152C276.782 97.2446 277.005 95.4597 277.005 94.6947C277.005 93.3879 277.324 92.7823 280.577 88.0969C287.752 77.7698 293.302 70.407 296.299 67.2515C297.288 66.2316 297.766 65.9447 298.309 66.1041C299.202 66.3272 299.202 66.3272 298.053 62.6936C297.543 61.0362 297.097 59.4106 297.097 59.1238C297.097 58.4225 297.639 58.1357 300.764 57.2751C304.304 56.287 304.24 56.3508 303.316 54.9802C302.072 53.1315 302.231 52.7172 304.878 50.9322L307.238 49.3386L310.077 50.6135C311.607 51.3466 313.489 52.2072 314.254 52.5578C315.594 53.1953 317.507 54.8208 317.507 55.3627C317.507 55.522 317.061 55.7133 316.519 55.8408C315.179 56.1276 313.266 57.9444 312.118 59.9525C311.097 61.7374 309.662 65.7854 309.343 67.7615C309.184 68.8134 308.992 69.0365 308.323 69.1321C307.143 69.2596 306.696 70.152 307.43 70.9489C307.972 71.5545 307.972 71.5864 307.047 72.0645C306.505 72.3513 305.101 73.6581 303.89 74.9968C302.71 76.3355 301.115 77.7698 300.382 78.2161C299.233 78.8854 299.01 79.1723 299.01 79.9691C299.01 80.511 298.659 81.6266 298.213 82.519C297.416 84.0808 297.416 84.1127 297.862 86.8538C298.117 88.3838 298.468 90.9018 298.691 92.4955C299.106 95.8422 299.807 99.7308 300.222 101.133C300.987 103.651 301.402 104.034 305.739 106.201C308.067 107.317 310.14 108.432 310.364 108.624C310.651 108.847 311.639 108.942 312.947 108.847C316.04 108.655 318.305 107.508 324.938 102.791C331.189 98.3283 333.9 96.8622 336.483 96.5115C338.556 96.2247 339.863 95.2685 344.487 90.5512C347.932 87.077 349.909 84.3677 351.982 80.2879C353.64 76.973 353.927 74.8056 352.907 72.8294C351.536 70.152 349.239 68.3034 346.305 67.5065L344.966 67.1559L345.444 66.0085C345.763 65.2435 345.859 64.4148 345.731 63.6498C345.572 62.598 345.667 62.2155 346.529 61.0362L347.549 59.6656L344.775 59.4425C343.244 59.3469 341.84 59.1556 341.585 59.0919C341.362 58.9963 341.075 58.2313 340.948 57.4345C340.756 56.0639 340.629 55.8727 339.576 55.4583C338.938 55.2033 338.077 54.5658 337.695 54.024L337.025 53.0678L338.46 48.9561L339.927 44.8444L336.419 41.1152C334.505 39.0434 332.688 37.0035 332.401 36.5572C331.731 35.5691 331.731 34.5173 332.401 31.7124L332.943 29.4494L330.71 27.3139C329.084 25.784 328.095 25.0827 327.011 24.7959L325.544 24.3815L324.523 20.2061C323.981 17.8793 323.503 15.8394 323.471 15.68C323.439 15.4888 324.109 15.2019 324.97 14.9788C326.246 14.66 326.979 14.1819 328.733 12.4289L330.934 10.2615L330.232 9.68776C329.786 9.33714 328.988 9.1459 327.904 9.1459C326.979 9.1459 325.959 8.95467 325.608 8.69968C325.034 8.25345 325.034 8.22157 325.799 7.93471C326.947 7.48848 327.457 6.78726 327.33 5.7673C327.234 4.97046 327.362 4.87485 328.829 4.46048C331.476 3.72739 331.38 3.79114 330.615 2.96242C329.498 1.75122 326.277 0.221283 324.619 0.0300446C323.503 -0.065567 322.737 0.0619202 321.781 0.476273Z" fill="#F8E3EA" fill-opacity="0.4"/>
<path d="M97.6473 25.2742C97.5516 25.561 97.456 26.0391 97.456 26.3897C97.456 27.1547 97.2008 27.1547 96.3079 26.326L95.5744 25.6567L93.4376 26.6447C90.5355 28.0153 87.6653 29.7683 87.442 30.3421C86.9637 31.617 88.2712 32.7645 91.2371 33.6888C93.0868 34.2625 93.1825 34.4856 91.9068 35.4419C90.9501 36.175 90.5993 36.2706 89.4831 36.0793C87.4739 35.7287 84.5399 35.8243 83.7745 36.2387C82.9134 36.6849 82.467 37.7368 82.6902 38.8842C82.8497 39.7129 82.9453 39.7448 84.6675 39.7448C87.1869 39.7448 88.5263 40.6054 88.5263 42.1672C88.5263 43.0597 88.2712 43.5696 87.4101 44.4302C86.3258 45.5139 86.1983 45.5458 84.5718 45.3546C82.5626 45.1314 82.3075 45.3546 82.0843 47.4263L81.9248 48.9244L83.6788 49.1157C86.3258 49.4344 88.2712 50.6775 90.982 53.7692C93.6609 56.7972 95.7019 58.2634 97.6154 58.4865C98.3808 58.5502 100.294 58.2953 102.399 57.7534C106.673 56.7334 109.798 56.4147 111.169 56.8928C112.03 57.2116 112.381 57.1478 113.497 56.5741C114.231 56.2235 117.037 55.2991 119.78 54.5023C125.425 52.9086 127.466 52.048 129.092 50.6137C131.42 48.6057 131.931 45.5139 130.464 42.6134C129.507 40.701 129.443 39.7129 130.304 39.1711C131.133 38.6611 131.133 37.2905 130.304 36.2387C129.698 35.4737 129.666 35.4419 128.742 35.9518L127.817 36.4937L127.625 35.3144C127.434 33.9757 126.477 32.8282 125.361 32.5414C124.117 32.2226 123.639 32.6051 123.256 34.1669C122.842 35.7606 122.618 35.92 122.172 34.9C121.598 33.6888 120.896 33.4976 119.557 34.1669C118.887 34.5175 118.249 34.8363 118.122 34.9C117.962 34.9638 117.867 34.7725 117.867 34.5175C117.867 33.4657 115.985 32.7326 113.402 32.7645C110.404 32.7963 109.511 33.0513 109.096 33.9438C108.65 34.9319 108.235 34.8363 108.618 33.8163C109.033 32.7645 109.033 31.5533 108.618 31.2983C108.427 31.1708 107.534 31.2027 106.609 31.2983C104.95 31.5214 104.919 31.5533 103.994 33.3063C103.101 34.9956 102.941 35.1231 101.825 35.2187L100.613 35.3144L101.602 33.4019C103.069 30.4377 102.75 27.4734 100.741 25.7204C99.5608 24.6686 97.9662 24.4455 97.6473 25.2742Z" fill="#F8E3EA" fill-opacity="0.4"/>
<path d="M332.113 108.624C329.307 108.943 324.587 110.122 321.844 111.142C320.824 111.524 318.878 112.608 317.539 113.5C314.446 115.604 314.254 116.305 316.295 118.25C317.635 119.525 317.667 119.588 317.539 121.437C317.38 124.497 318.304 124.975 321.334 123.413C322.387 122.871 322.418 122.871 322.961 123.604C323.471 124.274 323.471 124.433 323.024 125.262C322.45 126.409 322.418 129.565 322.929 132.593C323.407 135.175 323.024 136.386 321.653 136.959C319.708 137.756 317.698 136.736 315.434 133.74L313.967 131.86H311.767C310.555 131.86 309.215 131.732 308.769 131.541C308.067 131.286 307.844 131.382 306.855 132.561C304.751 135.015 300.828 143.525 301.051 145.151C301.115 145.661 301.466 146.713 301.848 147.51C302.199 148.306 302.741 150.474 303.028 152.291C303.475 155.255 303.634 155.701 304.495 156.53C305.484 157.422 305.516 157.422 308.418 157.231C311.767 156.976 311.767 156.976 311.767 159.462C311.767 160.355 311.48 161.47 310.969 162.49C310.268 163.861 310.172 164.307 310.363 166.092L310.555 168.1L309.279 168.419C308.035 168.737 308.003 168.737 307.493 167.654L306.951 166.538L304.176 166.729C299.871 167.048 296.236 167.558 293.365 168.259C290.304 168.992 290.08 168.897 286.923 166.283C285.679 165.263 284.691 164.689 284.149 164.689C282.714 164.689 277.611 166.57 274.294 168.323C272.54 169.279 269.447 170.905 267.437 171.989C265.428 173.072 263.068 174.188 262.239 174.507C261.346 174.825 259.879 175.75 258.795 176.738C257.073 178.3 256.913 178.395 256.913 177.694C256.913 176.515 256.116 175.686 254.298 174.889C253.373 174.507 252.576 174.124 252.512 174.092C252.448 174.028 252.767 173.646 253.214 173.2C253.66 172.722 254.043 172.052 254.043 171.638C254.043 170.459 252.385 167.494 251.332 166.857C250.089 166.092 249.801 166.124 248.653 167.112C247.442 168.132 247.378 169.216 248.462 169.789C249.514 170.331 249.483 170.554 248.207 171.51C245.783 173.359 241.892 174.283 239.788 173.518C239.15 173.295 238.926 173.455 238.065 174.825C237.109 176.387 237.077 176.387 235.929 176.132C235.291 175.973 234.653 175.845 234.525 175.845C234.366 175.845 234.27 175.335 234.27 174.73C234.27 173.646 234.238 173.646 232.134 173.009C230.922 172.658 229.2 172.212 228.307 172.02C227.382 171.797 226.616 171.542 226.616 171.447C226.648 171.319 226.84 170.873 227.095 170.427C227.35 169.981 227.541 169.088 227.573 168.419C227.573 167.239 227.509 167.176 225.596 166.283C224.48 165.741 223.395 165.327 223.172 165.327C222.917 165.327 223.65 164.339 224.767 163.128C226.871 160.833 229.455 156.817 230.348 154.394C230.826 153.087 231.081 152.896 233.505 151.685C237.013 149.932 236.758 149.263 232.357 148.434C231.4 148.243 230.507 147.988 230.348 147.828C230.188 147.669 230.475 146.426 231.081 144.864C232.038 142.442 232.74 138.234 232.229 138.234C231.464 138.234 228.721 140.019 228.275 140.816C227.796 141.645 227.573 141.74 226.138 141.74C225.277 141.74 223.619 141.836 222.47 141.932L220.398 142.155L218.803 144.354C217.942 145.533 217.176 146.745 217.113 147C216.921 147.796 217.942 147.892 219.058 147.191C220.525 146.298 222.502 146.043 224.224 146.522C225.022 146.745 225.66 147.032 225.66 147.159C225.66 147.605 222.757 148.785 221.227 148.976C220.334 149.071 218.93 148.944 217.719 148.625C216.602 148.338 215.614 148.179 215.518 148.275C215.422 148.37 215.327 151.366 215.327 154.904C215.295 161.056 215.327 161.407 216.028 162.49C216.634 163.478 216.73 164.084 216.73 166.538C216.73 169.662 217.336 171.925 218.771 174.028C219.441 175.017 219.473 175.208 219.09 176.132C218.58 177.343 217.304 178.045 216.602 177.471C215.901 176.897 215.454 177.311 215.454 178.523C215.454 179.096 215.295 180.021 215.104 180.594C214.785 181.455 214.625 181.583 213.541 181.583C212.457 181.583 212.138 181.391 210.702 179.766L209.108 177.981L207.29 179.383C206.301 180.148 205.345 181.009 205.153 181.296C204.898 181.71 204.611 181.742 203.686 181.551C201.231 180.945 195.426 182.092 193.354 183.559C192.365 184.26 192.365 184.132 193.003 188.117C193.13 189.137 193.035 189.583 192.492 190.284C191.855 191.081 191.599 191.176 190.132 191.081L188.506 190.985L188.187 188.148L187.868 185.344L186.816 187.033C186.242 187.989 185.062 189.965 184.169 191.463C182.16 194.842 181.171 195.894 177.982 197.997C175.239 199.782 173.676 201.121 173.676 201.663C173.676 201.822 173.453 201.982 173.198 201.982C172.624 201.982 165.13 205.042 164.555 205.52C164.268 205.743 163.95 205.743 163.567 205.551C162.865 205.169 157.699 205.551 156.391 206.061C155.435 206.444 154.956 207.273 153.585 210.779C152.086 214.667 150.81 215.91 147.302 216.962C146.218 217.281 145.771 217.281 144.974 216.962C143.635 216.42 142.965 216.803 141.147 219.193C139.553 221.361 138.819 221.552 136.746 220.5C135.215 219.703 134.673 218.779 134.609 216.803C134.546 215.942 134.514 215.177 134.482 215.145C134.482 215.114 133.748 215.305 132.855 215.56C131.356 216.006 131.197 216.006 130.049 215.337C128.614 214.508 128.104 214.635 126.955 216.102C125.903 217.536 125.775 219.926 126.732 221.552C127.274 222.476 127.306 222.827 127.051 224.229C126.86 225.122 126.445 226.142 126.094 226.524C125.488 227.162 125.233 227.194 122.363 227.002C120.673 226.875 119.078 226.747 118.823 226.652C118.568 226.588 117.962 225.887 117.484 225.09L116.623 223.656L109.032 223.815L101.442 223.974L100.549 224.994C100.071 225.568 99.6882 226.206 99.6882 226.429C99.6882 226.652 100.294 227.13 101.028 227.512L102.399 228.214L100.996 228.819C100.23 229.138 99.2736 229.489 98.859 229.584C98.4444 229.68 98.0936 229.903 98.0936 230.094C98.0936 230.764 99.0822 232.23 100.294 233.313C101.57 234.461 101.634 234.493 103.483 234.302C105.142 234.11 105.524 234.206 107.023 235.003C109.064 236.118 110.85 238.254 112.349 241.377C113.21 243.194 113.689 243.768 114.613 244.246C115.251 244.597 115.857 244.884 115.921 244.915C115.985 244.979 115.666 245.585 115.187 246.286C114.741 246.987 114.358 247.625 114.358 247.752C114.358 247.88 114.805 248.836 115.315 249.92C116.049 251.418 116.399 252.756 116.782 255.689C117.037 257.792 117.484 260.342 117.739 261.33C118.185 263.115 118.185 263.147 117.356 264.358C116.304 265.92 113.88 271.02 112.094 275.45C110.786 278.733 110.531 279.116 108.139 281.506C106.035 283.61 101.697 287.212 100.135 288.136C99.9433 288.264 98.7633 288.009 97.5515 287.594C96.3077 287.18 93.2461 286.383 90.7267 285.809C81.7971 283.833 80.1387 283.323 75.7377 281.219C71.3685 279.116 68.7215 278.287 67.2545 278.574C66.808 278.67 65.8513 278.478 65.1178 278.16C64.4162 277.841 62.5665 277.363 61.0357 277.076C58.0698 276.566 57.0811 276.152 54.7212 274.462C53.6687 273.729 52.8715 273.379 52.0742 273.379C50.4477 273.379 50.0331 273.602 48.9807 275.132L48.0558 276.47L45.1856 276.662C40.9121 276.917 39.4451 277.841 38.4884 280.805C38.1057 281.889 38.1695 282.112 38.903 283.451C39.3495 284.279 39.7322 285.14 39.7322 285.427C39.7322 285.682 39.0305 286.734 38.1695 287.69C37.3403 288.678 36.543 289.762 36.4154 290.144C36.2241 290.75 35.0122 291.738 29.6226 295.658C28.3469 296.583 27.2945 297.475 27.2945 297.603C27.2945 297.762 27.5815 298.399 27.9642 299.037C28.889 300.599 28.5701 301.459 26.4015 303.117C23.4994 305.38 22.7659 306.304 22.6064 307.93C22.447 309.332 22.1599 309.651 14.0276 317.906C9.40334 322.591 5.60825 326.544 5.60825 326.703C5.60825 326.863 5.83149 327.851 6.11851 328.934C6.69256 331.197 7.48985 332.823 8.66983 334.225C9.49901 335.245 9.5309 335.277 9.02064 336.329C8.73362 336.935 7.71309 337.986 6.72445 338.72C4.84285 340.122 4.55583 340.855 5.48068 342.162C6.43743 343.564 5.83149 344.871 2.83369 347.995C1.17533 349.716 0.186695 350.959 0.378044 351.15C0.537501 351.278 4.17313 352.011 8.47849 352.744L16.26 354.051L17.8865 355.581C18.7475 356.409 20.6929 357.939 22.1918 358.959C26.9437 362.306 29.0804 364.952 29.7182 368.458C30.1966 371.103 32.5247 371.39 40.8484 369.828C48.4066 368.362 52.8715 368.107 58.0379 368.808C60.94 369.191 61.9924 369.446 62.5346 369.956C63.4275 370.784 64.0335 370.753 65.1497 369.828C65.8194 369.286 66.5848 369.063 68.3069 368.904C70.061 368.776 71.7831 368.266 75.6101 366.768C78.3847 365.685 81.8927 364.505 83.3916 364.155C84.8905 363.804 86.6127 363.294 87.1867 363.007C88.1754 362.529 88.2072 362.465 88.0159 361.19L87.8245 359.852L90.0251 358.481C91.205 357.716 93.9796 356.154 96.1482 355.039C99.5287 353.254 100.135 352.808 100.549 351.883C101.378 349.843 101.41 347.995 100.645 345.413C99.5925 341.907 99.6882 339.771 100.996 337.572C102.367 335.309 105.588 332.249 110.468 328.552C112.604 326.958 115.251 324.791 116.336 323.771C118.887 321.412 119.78 320.966 122.81 320.583C124.946 320.328 126.031 319.914 130.751 317.619L136.204 314.974H139.393C141.147 314.974 142.774 314.846 142.965 314.719C143.188 314.591 143.571 313.794 143.794 312.966C144.209 311.595 144.336 311.468 145.452 311.276C146.919 311.021 147.525 310.288 147.525 308.726C147.525 307.866 147.366 307.515 146.951 307.388C146.25 307.228 145.931 305.953 145.931 303.308C145.931 299.706 147.876 296.296 150.778 294.766L152.15 294.033L155.817 295.69C161.558 298.272 161.494 298.24 163.663 297.73C164.683 297.507 165.735 297.284 165.927 297.284C166.15 297.284 167.139 298.017 168.127 298.909C169.116 299.802 170.424 300.726 170.998 300.981C172.433 301.587 177.567 301.587 178.715 300.981C179.194 300.726 181.649 298.336 184.169 295.69C188.251 291.387 188.857 290.877 189.622 291.005C190.707 291.228 193.13 290.24 196.957 287.977C198.616 287.02 200.593 285.905 201.326 285.554L202.634 284.853L204.388 285.65C205.345 286.096 206.844 286.638 207.673 286.829C209.204 287.212 209.299 287.307 211.723 290.941C214.625 295.244 215.104 296.455 215.359 300.089C215.678 304.392 216.921 305.826 225.66 311.627C229.582 314.241 231.209 315.547 233.601 318.065C237.523 322.177 238.767 322.91 241.605 322.846C243.487 322.815 243.965 322.942 245.209 323.739C246.389 324.472 246.867 325.078 247.824 327.086C248.909 329.349 249.1 329.572 250.631 330.273C251.556 330.719 253.437 331.229 254.84 331.484L257.392 331.899L257.487 333.014C257.583 334.576 258.572 337.827 258.954 337.923C259.146 337.986 260.134 338.178 261.123 338.369C262.462 338.656 263.292 339.07 264.376 340.058C266.736 342.098 267.884 344.489 269.829 351.405C270.786 354.752 270.818 354.688 268.394 355.804C267.374 356.25 267.214 356.537 266.832 358.131C266.608 359.119 266.034 360.84 265.588 361.955C264.822 363.932 264.79 363.995 265.365 364.41C266.672 365.366 268.586 364.792 270.212 362.943C270.977 362.115 272.444 358.609 273.337 355.549C273.911 353.573 274.804 352.585 277.133 351.405C279.492 350.226 279.62 350.035 279.397 347.517C279.11 344.106 279.014 343.819 278.153 343.819C277.579 343.819 274.996 342.353 273.082 340.919C272.476 340.473 275.347 334.289 277.228 332.058L278.153 331.006L280.162 331.516C281.278 331.803 283.064 332.504 284.149 333.078C285.998 334.034 289.602 337.221 290.367 338.56C290.718 339.198 290.718 339.198 291.197 338.592C291.962 337.604 292.121 335.5 291.516 334.002C290.399 331.261 288.486 330.018 277.962 325.173C272.604 322.719 266.8 319.563 266.8 319.149C266.8 318.958 267.437 318.002 268.235 317.045C269.032 316.089 269.67 315.197 269.67 315.101C269.67 314.591 266.832 314.177 263.387 314.177C260.389 314.177 259.178 314.049 257.711 313.539C251.906 311.531 248.239 307.005 247.218 300.567C246.485 296.073 245.656 294.861 240.489 290.973C238.735 289.634 236.885 288.104 236.375 287.562C234.494 285.554 234.143 283.451 235.259 280.773C235.897 279.211 235.929 279.084 235.418 277.841C234.717 276.088 234.749 273.315 235.482 272.677C235.769 272.39 237.906 271.084 240.234 269.745L244.444 267.354L245.879 267.96C246.644 268.311 247.665 268.629 248.111 268.661C248.558 268.693 248.94 268.821 248.94 268.916C248.94 269.012 248.462 269.936 247.888 270.988L246.867 272.9L247.76 274.654C248.239 275.61 248.781 277.012 248.94 277.745C249.196 278.701 249.419 279.052 249.738 278.925C250.376 278.67 252.13 275.96 252.13 275.227C252.13 274.877 252.576 274.144 253.118 273.602L254.139 272.614L254.968 273.697C255.797 274.813 256.562 275.546 258.348 277.012C259.273 277.777 259.305 277.873 259.305 280.614C259.305 282.144 259.465 283.674 259.624 283.961C259.815 284.247 260.613 284.981 261.442 285.618C262.399 286.351 263.005 287.084 263.132 287.722C263.387 288.901 264.822 290.112 267.182 291.164C268.809 291.833 269.064 292.088 269.383 293.172L269.766 294.383H271.583C275.06 294.351 277.77 295.658 281.789 299.228C283.511 300.758 284.404 301.332 285.552 301.619C288.008 302.16 292.855 304.965 295.151 307.133C296.299 308.216 296.427 308.216 298.819 307.611C299.552 307.451 299.648 307.515 299.648 308.248C299.648 308.854 299.839 309.109 300.413 309.268C301.147 309.428 301.179 309.523 301.019 311.882C300.86 314.209 300.924 314.527 302.327 318.129L303.826 321.89L302.709 324.026L301.625 326.161L302.167 327.755C302.901 329.954 304.655 332.249 307.238 334.353C310.619 337.126 311.352 338.05 311.575 339.739C311.735 340.887 312.054 341.429 312.787 342.066C314.382 343.405 316.2 344.17 319.038 344.776L321.717 345.285L320.856 345.859C320.377 346.178 319.803 346.911 319.548 347.517C319.134 348.473 319.134 348.728 319.58 349.557C320.154 350.672 321.717 351.883 323.216 352.393C324.715 352.871 329.371 352.84 333.931 352.266C339.002 351.628 341.107 351.628 341.107 352.266C341.107 353.286 340.15 354.593 339.161 354.943C337.726 355.453 336.483 355.389 332.751 354.656C328.51 353.828 325.352 353.828 323.885 354.624C322.45 355.389 321.334 357.461 321.334 359.437C321.334 361.7 322.1 362.434 325.352 363.422C327.106 363.963 328.159 364.473 328.35 364.888C328.542 365.207 328.765 367.246 328.829 369.382C328.988 372.761 329.084 373.366 329.658 373.972C330.519 374.896 331.89 375.438 333.006 375.31C334.091 375.183 335.366 373.494 335.366 372.155C335.366 371.645 335.462 371.231 335.622 371.231C335.749 371.231 336.833 372.601 338.045 374.259C339.257 375.916 340.341 377.287 340.501 377.287C341.011 377.287 341.681 375.852 341.872 374.29C341.968 373.43 342.127 372.633 342.223 372.569C342.319 372.474 343.371 373.366 344.583 374.514C345.954 375.852 347.039 376.649 347.485 376.649C348.187 376.649 348.187 376.554 348.059 374.131C347.9 371.135 347.166 369.796 344.806 368.043C341.84 365.844 342.032 366.131 342.255 364.346L342.478 362.688L345.444 364.123C349.686 366.163 351.95 366.099 351.95 363.868C351.95 362.752 350.993 362.083 347.9 360.904L345.572 360.011V357.652V355.262L346.465 355.74C346.975 355.995 348.059 356.378 348.92 356.601C349.877 356.824 351.153 357.557 352.365 358.545C354.629 360.362 355.554 360.68 356.702 360.043C358.041 359.278 357.882 358.641 355.809 356.473C354.725 355.358 353.863 354.21 353.863 353.923C353.863 352.903 351.344 350.959 347.453 348.887C342.733 346.401 340.692 344.584 339.225 341.493C338.109 339.102 337.663 337.445 338.141 337.445C338.3 337.445 339.512 337.795 340.788 338.241C343.594 339.198 344.168 339.23 344.583 338.433C345.093 337.508 344.105 336.488 340.533 334.321C338.811 333.269 336.801 331.739 336.068 330.942C334.569 329.317 334.505 328.839 335.047 324.854C335.494 321.763 335.622 321.508 336.483 321.508C337.471 321.508 338.651 323.038 340.979 327.341C343.562 332.154 345.476 333.683 346.656 331.962C347.294 331.038 347.294 329.349 346.688 328.839C345.891 328.201 344.87 326.608 345.189 326.608C345.38 326.608 346.465 327.468 347.613 328.52C349.813 330.496 350.451 330.751 351.472 329.986C352.141 329.508 352.301 329.763 348.601 325.46C346.879 323.42 347.932 323.452 351.344 325.556C353.672 326.99 354.31 327.245 354.533 326.894C355.203 325.811 354.693 324.727 352.492 322.687C351.472 321.763 351.248 321.444 351.886 321.858C353.321 322.878 353.832 322.464 354.756 319.723C355.171 318.512 355.809 317.205 356.16 316.822C356.893 316.026 360.21 314.814 361.581 314.814C362.091 314.814 363.654 314.496 365.121 314.145C367.13 313.603 368.278 313.507 370.256 313.635C371.755 313.731 373.062 313.667 373.509 313.476C373.923 313.284 374.37 313.189 374.465 313.284C374.561 313.412 374.115 314.655 373.509 316.089C372.392 318.607 372.105 319.914 372.616 319.914C373.253 319.914 378.675 316.28 379.791 315.101C380.748 314.113 381.003 313.635 380.907 312.902C380.844 312.073 381.035 311.818 382.566 310.83C385.436 309.013 386.839 308.471 391.687 307.133C397.14 305.667 397.906 305.316 398.416 303.977L398.799 302.989L395.067 301.204C391.208 299.356 389.869 298.336 384.192 292.917L381.769 290.59L382.821 288.678C383.778 286.893 383.873 286.479 383.969 283.483C384.033 281.251 384.352 279.116 384.958 276.662L385.851 273.092L385.181 267.896C384.798 264.805 384.639 262.637 384.83 262.51C384.99 262.414 386.616 260.852 388.466 259.067L391.782 255.784L391.336 254.764C389.71 251.035 388.625 248.422 388.689 248.358C388.753 248.294 389.55 248.422 390.475 248.613C391.527 248.836 392.229 248.836 392.42 248.645C392.58 248.485 392.899 247.051 393.186 245.457C394.047 240.23 396.12 236.979 399.628 235.385C400.935 234.78 401.764 234.652 404.443 234.652H407.696L407.888 227.321C407.983 223.273 408.175 215.624 408.27 210.333L408.462 200.643L407.633 201.185C406.453 201.95 403.2 201.695 398.83 200.452C392.739 198.762 391.527 198.635 388.976 199.4C386.201 200.229 386.074 200.229 384.192 199.272C383.331 198.858 381.992 198.348 381.226 198.157L379.791 197.774L380.11 196.021C380.397 194.332 380.397 194.268 379.409 193.248C378.739 192.579 378.165 191.431 377.75 190.093C377.144 188.053 376.602 187.384 374.274 185.726C373.7 185.312 373.572 184.802 373.413 181.965L373.222 178.65L375.263 179.989C376.379 180.722 377.431 181.423 377.623 181.614C378.165 182.124 378.962 181.933 379.504 181.104C379.823 180.658 380.397 180.148 380.844 179.989C382.534 179.351 381.386 175.909 378.803 173.869C377.973 173.2 376.411 172.02 375.358 171.255C374.274 170.49 372.966 169.311 372.488 168.642L371.563 167.431L371.659 162.586L371.755 157.741L370.766 156.625C369.586 155.255 368.151 154.426 363.845 152.609C361.9 151.781 360.019 150.729 359.189 149.996C357.595 148.593 350.579 140.912 349.462 139.35L348.729 138.33L349.399 136.29C351.727 129.374 349.845 126.824 341.713 125.867C340.405 125.708 338.715 125.262 337.981 124.879L336.61 124.178L338.492 122.68C340.533 121.055 341.777 119.556 341.553 118.983C341.49 118.791 340.947 118.345 340.405 117.995C339.863 117.644 339.066 117.134 338.651 116.879C337.726 116.273 337.726 115.763 338.683 114.871C339.098 114.489 339.512 113.819 339.64 113.373C339.767 112.927 340.086 112.034 340.373 111.365C340.884 110.217 340.852 110.122 340.278 109.548C339.736 109.006 336.355 108.209 335.047 108.305C334.792 108.337 333.485 108.496 332.113 108.624Z" fill="#F8E3EA" fill-opacity="0.4"/>
<path d="M132.537 118.313C131.739 118.568 130.719 119.174 130.272 119.652C129.379 120.608 128.391 122.871 128.391 123.955C128.391 124.592 128.486 124.624 130.464 124.433C132.728 124.21 135.12 123.317 136.268 122.234C137.065 121.469 137.48 119.843 137.193 118.632C137.001 117.931 136.842 117.835 135.471 117.867C134.641 117.867 133.334 118.09 132.537 118.313Z" fill="#F8E3EA" fill-opacity="0.4"/>
<path d="M142.582 121.246C140.988 121.437 138.978 122.935 134.577 127.27L131.293 130.489L130.272 129.437C128.901 128.035 127.466 127.557 125.999 128.035C125.393 128.226 124.882 128.513 124.882 128.672C124.882 128.832 125.456 130.011 126.19 131.35C127.051 132.943 127.848 133.963 128.582 134.41C129.188 134.792 129.666 135.143 129.666 135.174C129.666 135.206 128.327 135.939 126.668 136.768C123.128 138.553 120.896 140.561 120.386 142.442C119.907 144.322 120.13 144.609 122.108 144.609C125.169 144.609 126.796 144.96 126.796 145.597C126.796 145.884 125.68 147.86 124.308 149.932C122.937 152.004 121.725 153.852 121.598 154.076C121.406 154.362 121.598 154.362 122.395 154.107C125.743 153.024 127.115 152.769 127.466 153.119C127.976 153.629 127.083 155.096 125.552 156.243C124.213 157.231 123.957 157.869 124.659 158.697C125.935 160.259 127.689 160.578 131.101 159.781C133.876 159.112 134.928 159.08 135.534 159.558C136.491 160.355 136.044 162.171 134.354 164.434L133.684 165.327L134.386 167.303C135.598 170.745 135.311 171.765 132.409 174.507C130.304 176.515 130.144 176.515 126.03 174.538C124.468 173.773 123.192 173.359 122.873 173.487C122.203 173.742 122.172 175.272 122.777 177.056L123.256 178.363L121.916 178.459C119.939 178.586 119.971 179.415 121.98 180.658C123.766 181.742 123.926 182.188 122.969 183.718C122.044 185.248 120.322 186.204 116.591 187.32C114.773 187.862 113.178 188.403 113.051 188.531C112.572 189.073 111.424 192.451 111.584 192.834C111.711 193.185 112.955 193.312 116.591 193.471L121.438 193.663L122.299 194.683C123.096 195.639 123.288 195.703 125.297 195.734C126.477 195.766 127.434 195.862 127.434 195.958C127.434 196.308 125.297 198.093 124.276 198.603C123.479 199.049 123.128 199.017 120.545 198.316C118.982 197.87 117.484 197.583 117.196 197.679C116.622 197.87 114.199 200.356 113.401 201.599C113.019 202.141 111.36 202.842 106.13 204.563C99.3691 206.826 99.3372 206.826 99.9113 207.464C101.442 209.185 104.695 209.44 110.148 208.197C112.094 207.751 114.135 207.4 114.677 207.4C115.411 207.4 115.729 207.591 116.016 208.197C116.208 208.643 116.495 208.994 116.654 208.994C116.782 208.994 117.611 208.484 118.472 207.878C121.598 205.615 123.16 205.392 125.233 206.954C126.604 207.942 127.561 207.91 131.261 206.763C132.887 206.221 134.354 205.806 134.514 205.806C134.641 205.806 135.183 206.444 135.725 207.241C137.065 209.185 138.691 210.396 139.648 210.141C140.541 209.918 141.147 208.739 141.147 207.209C141.147 206.285 141.243 206.125 141.721 206.253C144.783 207.177 148.163 207.305 151.48 206.603C154.51 205.966 158.687 203.575 158.687 202.46C158.687 201.79 157.571 201.057 155.658 200.388C154.605 200.037 153.648 199.623 153.489 199.464C153.33 199.304 153.904 198.699 154.765 198.061C155.626 197.456 156.582 196.627 156.901 196.276C157.252 195.894 157.826 195.607 158.177 195.607C159.867 195.607 164.46 192.738 166.022 190.73C166.628 189.965 166.692 189.742 166.341 188.913C165.799 187.607 163.758 185.822 162.291 185.439C161.621 185.248 159.548 185.089 157.667 185.089C155.658 185.089 154.223 184.961 154.223 184.77C154.223 184.611 154.956 182.634 155.849 180.403C158.687 173.455 158.432 170.714 154.669 167.271L152.596 165.359L152.787 163.956C153.043 162.267 152.724 161.948 151.193 162.458C150.077 162.841 148.801 162.49 148.801 161.821C148.801 161.63 149.375 160.163 150.045 158.538C151.576 154.936 151.863 153.534 151.352 152.227C150.938 151.271 149.598 150.346 148.642 150.346C148.323 150.346 147.717 150.059 147.206 149.709C146.728 149.358 145.963 148.944 145.484 148.753C144.655 148.466 144.655 148.434 145.102 147.318C145.963 145.278 147.43 143.557 152.118 138.936C156.551 134.569 157.412 133.421 156.965 132.338C156.519 131.127 152.5 130.903 146.569 131.7C144.719 131.955 143.092 132.178 142.901 132.178C142.199 132.178 146.058 128.704 149.981 125.772C152.277 124.051 154.254 122.489 154.35 122.361C154.414 122.234 154.382 121.915 154.223 121.66C153.999 121.278 152.915 121.182 148.897 121.15C146.122 121.118 143.284 121.182 142.582 121.246Z" fill="#F8E3EA" fill-opacity="0.4"/>
<path d="M108.362 151.175C106.258 151.717 105.141 152.291 104.185 153.342C103.674 153.884 103.068 154.171 102.399 154.171C101.123 154.171 100.039 155.191 100.613 155.892C100.804 156.147 101.474 156.434 102.08 156.53C103.037 156.721 103.196 156.88 103.196 157.645C103.196 158.378 102.973 158.633 101.888 159.112C100.836 159.59 100.485 159.622 100.071 159.335C97.8064 157.677 93.5967 156.912 91.2686 157.677C89.7697 158.155 87.8881 159.781 87.8881 160.546C87.8881 160.896 88.1751 161.343 88.494 161.566C88.8448 161.821 89.2913 162.395 89.5146 162.873C90.0248 164.02 89.5465 164.53 87.4735 165.008C84.8584 165.582 84.6989 165.678 84.6989 166.092C84.6989 166.761 85.9427 168.164 86.9951 168.706C87.5373 168.992 88.9724 169.375 90.2481 169.598L92.5124 169.98L90.7264 170.586C88.5897 171.255 87.5054 171.064 86.9951 169.917C86.453 168.801 85.9108 169.088 85.273 170.873C84.986 171.734 84.6671 172.467 84.5714 172.562C84.4757 172.658 83.7422 172.498 82.913 172.212C82.0838 171.925 81.1271 171.702 80.8082 171.702C79.9471 171.702 78.9585 172.849 78.9585 173.869C78.9585 174.57 79.1817 174.889 79.979 175.24L80.9995 175.718L79.0223 176.164C77.9379 176.387 76.8855 176.77 76.6942 176.993C76.3115 177.439 76.6623 178.331 77.4915 179.033C78.225 179.638 78.1293 180.053 76.8536 181.519C76.2477 182.252 75.7693 183.081 75.8331 183.367C75.8969 183.686 77.2363 184.451 79.1179 185.312L82.3071 186.714L86.1341 186.364C91.8426 185.854 97.328 185.12 99.8474 184.547C104.504 183.495 109.096 181.2 111.169 178.841C113.306 176.387 114.868 171.988 114.613 169.215L114.454 167.717L117.515 165.646L120.577 163.574L120.609 159.908C120.641 157.104 120.545 155.924 120.099 154.809C119.365 152.96 118.855 152.641 117.388 153.183C116.622 153.438 116.112 153.47 115.857 153.279C115.634 153.087 114.773 152.769 113.912 152.546C112.572 152.227 112.413 152.099 112.54 151.43C112.668 150.729 112.572 150.665 111.36 150.697C110.659 150.697 109.287 150.92 108.362 151.175Z" fill="#F8E3EA" fill-opacity="0.4"/>
<path d="M201.581 303.85C196.702 307.834 196.128 308.471 195.49 311.053C195.139 312.392 194.884 314.495 194.884 315.962C194.884 318.193 195.012 318.703 195.713 319.786C196.734 321.316 199.509 322.942 200.625 322.655C201.677 322.4 203.782 319.531 204.803 317.045C206.429 313.029 206.971 307.515 206.078 304.487C205.632 303.085 204.771 301.714 204.324 301.778C204.228 301.778 202.985 302.702 201.581 303.85Z" fill="#F8E3EA" fill-opacity="0.4"/>
<path d="M199.19 325.811C198.392 326.448 196.383 327.723 194.693 328.679C190.643 330.974 190.451 331.357 190.515 337.699C190.547 341.556 190.419 342.831 189.75 345.827C188.857 349.748 188.602 353.126 189.207 353.732C189.494 354.019 189.973 353.987 191.28 353.7C192.588 353.381 193.353 352.903 194.788 351.564C196.638 349.779 197.34 349.588 198.233 350.672C198.456 350.927 198.743 351.15 198.902 351.15C199.253 351.15 200.369 348.887 201.709 345.508L202.761 342.895L201.9 340.664C200.848 338.05 200.975 337.126 202.506 336.201C203.814 335.373 204.101 333.906 203.622 330.592C203.304 328.169 201.868 324.886 201.103 324.791C200.848 324.727 199.987 325.205 199.19 325.811Z" fill="#F8E3EA" fill-opacity="0.4"/>
<path d="M257.456 362.657C256.467 362.784 253.565 363.517 251.013 364.25C245.337 365.876 242.945 365.908 239.915 364.41L238.065 363.517L235.929 364.155C234.749 364.505 232.963 364.951 231.974 365.175C229.295 365.716 228.179 366.577 227.414 368.744C226.68 370.912 226.872 371.422 229.104 373.239C231.432 375.087 235.514 377.063 243.264 380.028C247.186 381.526 251.587 383.279 253.054 383.916L255.733 385.064L256.499 384.108C258.157 382.099 258.348 381.462 258.189 378.243C257.902 371.454 257.966 369.86 258.699 368.84C259.592 367.565 260.071 366.003 260.166 364.059C260.262 362.242 260.262 362.242 257.456 362.657Z" fill="#F8E3EA" fill-opacity="0.4"/>
</svg>
