<svg width="72" height="72" viewBox="0 0 72 72" fill="none" xmlns="http://www.w3.org/2000/svg">
<circle cx="36" cy="36" r="36" fill="#FD4487"/>
<path d="M50 52C50 52 45.286 50.145 41.473 48.66H25.437C23.54 48.66 22 47.026 22 45.013V23.644C22 21.633 23.54 20 25.437 20H46.562C48.46 20 49.999 21.632 49.999 23.645V42.049H50V52ZM45.861 40.018C45.7861 39.9219 45.6921 39.8423 45.5848 39.7844C45.4776 39.7266 45.3595 39.6916 45.2381 39.6817C45.1166 39.6718 44.9944 39.6873 44.8792 39.7271C44.7641 39.7669 44.6584 39.8302 44.569 39.913C44.539 39.939 41.554 42.594 35.999 42.594C30.513 42.594 27.482 39.958 27.428 39.91C27.3385 39.8277 27.2329 39.7648 27.1178 39.7253C27.0027 39.6859 26.8808 39.6707 26.7595 39.6807C26.6383 39.6908 26.5205 39.7258 26.4135 39.7837C26.3066 39.8416 26.2127 39.921 26.138 40.017C25.9779 40.2167 25.8997 40.4698 25.919 40.725C25.9359 40.9789 26.0498 41.2167 26.237 41.389C26.379 41.517 29.774 44.539 35.999 44.539C42.225 44.539 45.62 41.517 45.762 41.389C45.9489 41.2165 46.0624 40.9788 46.079 40.725C46.0984 40.4702 46.0205 40.2176 45.861 40.018V40.018Z" fill="white"/>
</svg>
