<svg width="147" height="40" viewBox="0 0 147 40" fill="none" xmlns="http://www.w3.org/2000/svg">
<path d="M77.4928 0L83.839 9.53674e-05C84.2017 9.53674e-05 84.4556 0.147247 84.6007 0.441456L91.25 11.25L97.8993 0.441456C98.0444 0.147247 98.2983 9.53674e-05 98.661 9.53674e-05L105.007 0C105.694 0.00389099 106.25 0.562029 106.25 1.24998V38.75C106.25 39.4254 105.714 39.9757 105.045 39.9992H103.75V40H99.375C98.6846 40 98.125 39.4403 98.125 38.75V13.389C98.1341 13.195 98.0246 13.1621 97.9 13.2617C97.8741 13.2823 97.8447 13.3124 97.8188 13.3518L92.8831 21.25C92.5958 21.7098 92.4762 21.875 91.8912 21.875L91.875 21.875H90.625L90.6088 21.875C90.0238 21.875 89.9042 21.7098 89.6169 21.25L84.6812 13.3518C84.6553 13.3124 84.6259 13.2823 84.6 13.2617C84.4754 13.1621 84.3659 13.195 84.375 13.389V18.125H76.25V1.24998C76.25 0.562029 76.8057 0.00389099 77.4928 0Z" fill="#2A1F43"/>
<path d="M76.25 25.625V38.75C76.25 39.4254 76.7857 39.9757 77.4554 39.9992H79.375V40H83.125C83.8154 40 84.375 39.4403 84.375 38.75V25.625H76.25Z" fill="#2A1F43"/>
<path fill-rule="evenodd" clip-rule="evenodd" d="M3.75 1.25V18.125H1.25C0.559645 18.125 0 18.6846 0 19.375V24.375C0 25.0654 0.559645 25.625 1.25 25.625H3.75V38.75C3.75 39.4404 4.30964 40 5 40H8.75V39.9988H16.9893C19.5507 39.9988 21.8061 39.5226 23.7558 38.5702C25.7436 37.618 27.2727 36.2655 28.3432 34.5132C29.4136 32.7609 30 30.7228 30 28.3991V11.5996C30 9.27594 29.4136 7.2379 28.3432 5.48553C27.2727 3.73327 25.7436 2.38083 23.7558 1.42855C21.8061 0.476141 19.5507 0 16.9893 0H5C4.30964 0 3.75 0.559645 3.75 1.25ZM17.0467 32.5H13.125C12.4346 32.5 11.875 31.9404 11.875 31.25V8.75C11.875 8.05964 12.4346 7.5 13.125 7.5H14.375V7.51213L17.0467 7.5C18.4994 7.5 19.6653 8.05338 20.5446 9.08189C21.4238 10.0723 21.875 11.4247 21.875 13.1389V26.8599C21.8368 28.5361 21.3665 29.8884 20.4872 30.9169C19.608 31.9073 18.4612 32.5 17.0467 32.5Z" fill="#2A1F43"/>
<path fill-rule="evenodd" clip-rule="evenodd" d="M40 1.25V18.125H37.5C36.8096 18.125 36.25 18.6846 36.25 19.375V24.375C36.25 25.0654 36.8096 25.625 37.5 25.625H40V38.75C40 39.4404 40.5596 40 41.25 40H45V39.9988H53.2393C55.8007 39.9988 58.0561 39.5226 60.0058 38.5702C61.9936 37.618 63.5227 36.2655 64.5932 34.5132C65.6636 32.7609 66.25 30.7228 66.25 28.3991V11.5996C66.25 9.27594 65.6636 7.2379 64.5932 5.48553C63.5227 3.73327 61.9936 2.38083 60.0058 1.42855C58.0561 0.476141 55.8007 0 53.2393 0H41.25C40.5596 0 40 0.559645 40 1.25ZM53.2967 32.5H49.375C48.6846 32.5 48.125 31.9404 48.125 31.25V8.75C48.125 8.05964 48.6846 7.5 49.375 7.5H50.625V7.51213L53.2967 7.5C54.7494 7.5 55.9153 8.05338 56.7946 9.08189C57.6738 10.0723 58.125 11.4247 58.125 13.1389V26.8599C58.0868 28.5361 57.6165 29.8884 56.7372 30.9169C55.858 31.9073 54.7112 32.5 53.2967 32.5Z" fill="#2A1F43"/>
<path d="M126.699 38.4904C124.768 37.4849 123.264 36.0696 122.187 34.2448C121.147 32.3826 120.627 30.2412 120.627 27.8204V12.1226C120.627 9.7018 121.147 7.57891 122.187 5.75402C123.264 3.92914 124.768 2.51384 126.699 1.50835C128.631 0.502748 130.859 0 133.385 0C133.508 0 133.63 0.00580297 133.752 0.0169568V0.00175476C136.171 0.0349808 138.314 0.537148 140.179 1.50834C142.11 2.51383 143.615 3.92913 144.692 5.75401C145.605 7.3563 146.252 9.0625 146.252 11.25C146.252 11.9387 145.695 12.4973 145.007 12.5H139.372C138.684 12.4973 138.127 11.9387 138.127 11.25C138.127 10 137.419 8.86909 136.252 8.12627C135.48 7.63545 134.823 7.50186 133.775 7.4999L133.127 7.49989C132.065 7.49989 131.404 7.63178 130.627 8.12628C129.04 9.13568 128.752 10.8557 128.752 12.6358V27.4999C128.752 30.5951 130.455 32.4999 133.552 32.4999C136.731 32.4999 138.127 30.3743 138.127 27.4999V25.6249H116.877C116.186 25.6249 116.252 25.0654 116.252 24.375V19.3749C116.252 18.6845 116.186 18.1249 116.877 18.1249H145.002C145.692 18.1249 146.252 18.6845 146.252 19.3749V27.8204C146.252 31.5447 144.973 34.5055 142.633 36.7028C140.33 38.9001 137.248 39.9988 133.385 39.9988C130.859 39.9988 128.631 39.496 126.699 38.4904Z" fill="#2A1F43"/>
</svg>
