<svg width="51" height="46" viewBox="0 0 51 46" fill="none" xmlns="http://www.w3.org/2000/svg">
<path d="M3 0.5H48C48.663 0.5 49.2989 0.763392 49.7678 1.23223C50.2366 1.70107 50.5 2.33696 50.5 3V43C50.5 43.663 50.2366 44.2989 49.7678 44.7678C49.2989 45.2366 48.663 45.5 48 45.5H3C2.33696 45.5 1.70107 45.2366 1.23223 44.7678C0.763392 44.2989 0.5 43.663 0.5 43V3C0.5 2.33696 0.763392 1.70107 1.23223 1.23223C1.70107 0.763392 2.33696 0.5 3 0.5ZM45.5 11.095L25.68 28.845L5.5 11.04V40.5H45.5V11.095ZM6.7775 5.5L25.6525 22.155L44.255 5.5H6.7775Z" fill="white"/>
</svg>
