<svg width="51" height="50" viewBox="0 0 51 50" fill="none" xmlns="http://www.w3.org/2000/svg">
<path d="M44.6 27.4999C44.05 27.4999 43.475 27.3249 42.925 27.1999C41.8112 26.9545 40.7167 26.6286 39.65 26.2249C38.4902 25.803 37.2154 25.8249 36.0708 26.2864C34.9262 26.748 33.9927 27.6165 33.45 28.7249L32.9 29.8499C30.465 28.4954 28.2275 26.813 26.25 24.8499C24.2869 22.8725 22.6046 20.6349 21.25 18.1999L22.3 17.4999C23.4084 16.9572 24.277 16.0237 24.7385 14.8791C25.2 13.7345 25.2219 12.4597 24.8 11.2999C24.4031 10.231 24.0774 9.13691 23.825 8.02491C23.7 7.47491 23.6 6.89991 23.525 6.32491C23.2214 4.56396 22.2991 2.96927 20.9241 1.82801C19.5491 0.686756 17.8118 0.0739365 16.025 0.0999144H8.52501C7.44759 0.089798 6.38063 0.311948 5.39678 0.75124C4.41293 1.19053 3.53528 1.83665 2.82358 2.64562C2.11188 3.45458 1.58284 4.4074 1.27248 5.4392C0.962112 6.471 0.877706 7.55756 1.02501 8.62491C2.35685 19.0984 7.14008 28.8296 14.6191 36.2815C22.0982 43.7334 31.8468 48.4812 42.325 49.7749H43.275C45.1186 49.7776 46.8985 49.1012 48.275 47.8749C49.0659 47.1675 49.6977 46.3004 50.1287 45.3307C50.5596 44.3611 50.7799 43.311 50.775 42.2499V34.7499C50.7444 33.0134 50.112 31.3413 48.9859 30.0191C47.8597 28.6969 46.3096 27.8065 44.6 27.4999ZM45.85 42.4999C45.8496 42.8549 45.7735 43.2057 45.627 43.529C45.4804 43.8523 45.2667 44.1406 45 44.3749C44.7215 44.6174 44.395 44.7985 44.0417 44.9062C43.6885 45.0138 43.3165 45.0458 42.95 44.9999C33.5873 43.7994 24.8906 39.5161 18.2318 32.8256C11.573 26.1352 7.33103 17.4183 6.17501 8.04991C6.13522 7.68371 6.17009 7.31324 6.27751 6.96089C6.38494 6.60854 6.56268 6.28163 6.80001 5.99991C7.03428 5.73324 7.32266 5.51952 7.64596 5.37296C7.96925 5.2264 8.32005 5.15036 8.67501 5.14991H16.175C16.7564 5.13698 17.3241 5.32711 17.7804 5.68759C18.2367 6.04807 18.553 6.55634 18.675 7.12491C18.775 7.80825 18.9 8.48325 19.05 9.14991C19.3388 10.4678 19.7232 11.7629 20.2 13.0249L16.7 14.6499C16.4008 14.7872 16.1316 14.9823 15.9079 15.2239C15.6842 15.4655 15.5105 15.7489 15.3967 16.0579C15.2829 16.3668 15.2312 16.6952 15.2446 17.0242C15.2581 17.3532 15.3364 17.6763 15.475 17.9749C19.073 25.6818 25.2681 31.8769 32.975 35.4749C33.5837 35.725 34.2664 35.725 34.875 35.4749C35.1868 35.3634 35.4733 35.191 35.7179 34.9679C35.9626 34.7447 36.1604 34.4752 36.3 34.1749L37.85 30.6749C39.1424 31.1371 40.4615 31.5211 41.8 31.8249C42.4667 31.9749 43.1417 32.0999 43.825 32.1999C44.3936 32.3219 44.9019 32.6383 45.2623 33.0946C45.6228 33.5509 45.813 34.1185 45.8 34.6999L45.85 42.4999Z" fill="white"/>
</svg>
