<svg width="21" height="25" viewBox="0 0 21 25" fill="none" xmlns="http://www.w3.org/2000/svg">
<path d="M21 24.7942C21 24.7942 17.4645 23.4029 14.6047 22.2892H2.57775C1.155 22.2892 0 21.0637 0 19.5539V3.52719C0 2.01894 1.155 0.794189 2.57775 0.794189H18.4215C19.845 0.794189 20.9993 2.01819 20.9993 3.52794V17.3309H21V24.7942ZM17.8958 15.8077C17.8396 15.7356 17.7691 15.6759 17.6886 15.6325C17.6082 15.5891 17.5196 15.5629 17.4285 15.5555C17.3375 15.5481 17.2458 15.5597 17.1594 15.5895C17.0731 15.6194 16.9938 15.6669 16.9268 15.7289C16.9043 15.7484 14.6655 17.7397 10.4992 17.7397C6.38475 17.7397 4.1115 15.7627 4.071 15.7267C4.00386 15.6649 3.92464 15.6178 3.83835 15.5882C3.75206 15.5586 3.66057 15.5472 3.56966 15.5547C3.47875 15.5623 3.39038 15.5886 3.31015 15.632C3.22992 15.6754 3.15955 15.735 3.1035 15.8069C2.98344 15.9567 2.92474 16.1465 2.93925 16.3379C2.95193 16.5284 3.03731 16.7067 3.17775 16.8359C3.28425 16.9319 5.8305 19.1984 10.4992 19.1984C15.1687 19.1984 17.715 16.9319 17.8215 16.8359C17.9617 16.7066 18.0468 16.5283 18.0592 16.3379C18.0738 16.1469 18.0154 15.9574 17.8958 15.8077Z" fill="#7D44FD"/>
</svg>
