<svg width="50" height="56" viewBox="0 0 50 56" fill="none" xmlns="http://www.w3.org/2000/svg">
<path d="M49.5 56C49.5 56 41.2505 52.7537 34.5777 50.155H6.51475C3.195 50.155 0.5 47.2955 0.5 43.7728V6.377C0.5 2.85775 3.195 0 6.51475 0H43.4835C46.805 0 49.4983 2.856 49.4983 6.37875V38.5857H49.5V56ZM42.2568 35.0315C42.1257 34.8633 41.9611 34.7241 41.7735 34.6228C41.5858 34.5215 41.3792 34.4602 41.1666 34.443C40.9541 34.4257 40.7402 34.4527 40.5387 34.5224C40.3371 34.5921 40.1523 34.7029 39.9958 34.8478C39.9433 34.8933 34.7195 39.5395 24.9982 39.5395C15.3977 39.5395 10.0935 34.9265 9.999 34.8425C9.84233 34.6984 9.65749 34.5884 9.45615 34.5193C9.25481 34.4502 9.04133 34.4237 8.8292 34.4413C8.61707 34.4589 8.4109 34.5202 8.22368 34.6215C8.03647 34.7228 7.87229 34.8618 7.7415 35.0298C7.46137 35.3793 7.32439 35.8221 7.35825 36.2688C7.38783 36.7131 7.58707 37.1291 7.91475 37.4307C8.16325 37.6547 14.1045 42.9432 24.9982 42.9432C35.8937 42.9432 41.835 37.6547 42.0835 37.4307C42.4105 37.1289 42.6091 36.7129 42.6383 36.2688C42.6722 35.8229 42.5358 35.3808 42.2568 35.0315V35.0315Z" fill="#7D44FD"/>
</svg>
