<svg width="115" height="32" viewBox="0 0 115 32" fill="none" xmlns="http://www.w3.org/2000/svg">
<path d="M62.5412 0L67.663 7.62939e-05C67.9557 7.62939e-05 68.1606 0.117798 68.2777 0.353165L73.6441 8.99998L79.0105 0.353165C79.1276 0.117798 79.3326 7.62939e-05 79.6252 7.62939e-05L84.747 0C85.3015 0.00311279 85.75 0.449623 85.75 0.999985V31C85.75 31.5403 85.3177 31.9806 84.7772 31.9994H83.7324V32H80.2015C79.6443 32 79.1927 31.5523 79.1927 31V10.7112C79.2 10.556 79.1116 10.5297 79.0111 10.6093C78.9902 10.6259 78.9665 10.6499 78.9455 10.6814L74.9622 17C74.7302 17.3679 74.6337 17.5 74.1616 17.5L74.1485 17.5H73.1397L73.1266 17.5C72.6545 17.5 72.558 17.3679 72.3261 17L68.3428 10.6814C68.3218 10.6499 68.2981 10.6259 68.2772 10.6093C68.1766 10.5297 68.0882 10.556 68.0956 10.7112V14.5H61.5382V0.999985C61.5382 0.449623 61.9868 0.00311279 62.5412 0Z" fill="white"/>
<path d="M61.5382 20.5V31C61.5382 31.5403 61.9706 31.9806 62.511 31.9994H64.0603V32H67.0868C67.6439 32 68.0956 31.5523 68.0956 31V20.5H61.5382Z" fill="white"/>
<path fill-rule="evenodd" clip-rule="evenodd" d="M3.02647 1V14.5H1.00882C0.451666 14.5 0 14.9477 0 15.5V19.5C0 20.0523 0.451666 20.5 1.00882 20.5H3.02647V31C3.02647 31.5523 3.47814 32 4.0353 32H7.06177V31.999H13.7114C15.7785 31.999 17.5988 31.6181 19.1723 30.8562C20.7766 30.0944 22.0107 29.0124 22.8747 27.6106C23.7385 26.2087 24.2118 24.5783 24.2118 22.7193V9.27971C24.2118 7.42075 23.7385 5.79032 22.8747 4.38843C22.0107 2.98662 20.7766 1.90466 19.1723 1.14284C17.5988 0.380913 15.7785 0 13.7114 0H4.0353C3.47814 0 3.02647 0.447716 3.02647 1ZM13.7577 26H10.5926C10.0355 26 9.58383 25.5523 9.58383 25V7C9.58383 6.44772 10.0355 6 10.5926 6H11.6015V6.0097L13.7577 6C14.9301 6 15.8711 6.4427 16.5807 7.26551C17.2903 8.05787 17.6544 9.13973 17.6544 10.5111V21.4879C17.6236 22.8288 17.244 23.9107 16.5344 24.7335C15.8248 25.5259 14.8992 26 13.7577 26Z" fill="white"/>
<path fill-rule="evenodd" clip-rule="evenodd" d="M32.2824 1V14.5H30.2647C29.7076 14.5 29.2559 14.9477 29.2559 15.5V19.5C29.2559 20.0523 29.7076 20.5 30.2647 20.5H32.2824V31C32.2824 31.5523 32.734 32 33.2912 32H36.3177V31.999H42.9673C45.0344 31.999 46.8547 31.6181 48.4282 30.8562C50.0325 30.0944 51.2666 29.0124 52.1305 27.6106C52.9944 26.2087 53.4677 24.5783 53.4677 22.7193V9.27971C53.4677 7.42075 52.9944 5.79032 52.1305 4.38843C51.2666 2.98662 50.0325 1.90466 48.4282 1.14284C46.8547 0.380913 45.0344 0 42.9673 0H33.2912C32.734 0 32.2824 0.447716 32.2824 1ZM43.0136 26H39.8485C39.2914 26 38.8397 25.5523 38.8397 25V7C38.8397 6.44772 39.2914 6 39.8485 6H40.8574V6.0097L43.0136 6C44.186 6 45.127 6.4427 45.8366 7.26551C46.5462 8.05787 46.9103 9.13973 46.9103 10.5111V21.4879C46.8795 22.8288 46.4999 23.9107 45.7903 24.7335C45.0807 25.5259 44.1551 26 43.0136 26Z" fill="white"/>
<path d="M98.7216 30.7923C97.1629 29.9879 95.9489 28.8557 95.0796 27.3958C94.2403 25.9061 93.8206 24.193 93.8206 22.2563V9.69807C93.8206 7.76144 94.2403 6.06313 95.0796 4.60322C95.9489 3.14331 97.1629 2.01107 98.7216 1.20668C100.28 0.402199 102.079 0 104.117 0C104.216 0 104.315 0.00464238 104.413 0.0135654V0.00140381C106.366 0.0279846 108.095 0.429718 109.6 1.20667C111.159 2.01106 112.373 3.1433 113.243 4.60321C113.979 5.88504 114.502 7.25 114.502 9C114.502 9.55097 114.052 9.99786 113.497 9.99999H108.949C108.394 9.99786 107.944 9.55097 107.944 9C107.944 8 107.373 7.09528 106.431 6.50101C105.808 6.10836 105.278 6.00149 104.432 5.99992L103.909 5.99991C103.052 5.99991 102.518 6.10542 101.891 6.50102C100.611 7.30855 100.378 8.68459 100.378 10.1086V21.9999C100.378 24.4761 101.753 25.9999 104.252 25.9999C106.818 25.9999 107.944 24.2995 107.944 21.9999V20.4999H90.7941C90.237 20.4999 90.2897 20.0523 90.2897 19.5V15.4999C90.2897 14.9476 90.237 14.4999 90.7942 14.4999H113.493C114.05 14.4999 114.502 14.9476 114.502 15.4999V22.2563C114.502 25.2358 113.47 27.6044 111.581 29.3623C109.723 31.1201 107.235 31.999 104.117 31.999C102.079 31.999 100.28 31.5968 98.7216 30.7923Z" fill="white"/>
</svg>
