<svg width="1624" height="1917" viewBox="0 0 1624 1917" fill="none" xmlns="http://www.w3.org/2000/svg">
<path d="M1600.54 2.37146C1597.05 4.11694 1591.65 8.40131 1588.47 12.051C1585.46 15.5419 1582.44 18.5568 1581.97 18.5568C1581.49 18.5568 1580.54 16.0179 1579.9 13.003C1578.79 6.65582 1577.04 5.06903 1570.38 3.64093C1563.07 2.05414 1560.21 5.5451 1560.21 16.3353C1560.21 23.9519 1559.9 24.904 1556.88 24.904C1554.97 24.904 1551.01 26.4908 1547.99 28.2363C1544.97 30.1404 1542.27 31.2512 1541.96 30.9338C1541.48 30.6165 1541.96 27.7603 1542.75 24.7453C1544.97 17.2874 1544.81 14.4312 1541.8 11.5749C1537.51 7.1319 1531.32 8.56 1520.68 16.3353C1512.74 22.0477 1508.61 23.9519 1501.47 24.904C1496.55 25.5387 1489.56 27.6016 1486.07 29.5057C1477.5 33.79 1465.75 47.1191 1462.41 56.3226C1457.49 69.493 1451.93 73.46 1442.09 70.7624C1436.85 69.3343 1435.74 69.6517 1424.94 76.9509C1409.7 87.2651 1405.1 92.0255 1402.72 100.277C1401.13 105.196 1398.27 109.163 1391.76 114.717C1383.19 122.175 1373.66 132.647 1355.08 155.021C1350.32 160.734 1341.91 168.826 1336.35 173.111C1329.52 178.03 1325.08 182.949 1323.33 186.757C1321.9 190.089 1312.69 201.197 1303.01 211.353C1293.17 221.508 1283.96 232.774 1282.21 236.424C1279.03 243.723 1278.4 251.181 1280.78 254.989C1281.89 256.735 1280.3 258.322 1273.16 262.13C1260.62 268.795 1256.33 275.459 1257.44 286.408C1257.92 291.168 1259.51 296.563 1260.78 298.626C1263.48 302.752 1262.68 303.863 1252.2 310.21C1242.99 315.605 1239.03 320.841 1239.82 326.078C1240.45 330.521 1239.66 331.314 1224.74 340.042C1196.95 356.544 1181.71 371.302 1179.65 383.837C1177.9 395.104 1180.28 395.262 1194.25 384.948C1216.32 368.445 1225.53 365.43 1226.48 374.158C1226.8 377.49 1225.21 379.87 1218.7 385.741C1204.73 398.277 1196.63 400.975 1181.71 397.801C1173.77 396.214 1171.55 396.373 1162.02 399.388C1139.48 406.687 1110.9 421.762 1065.17 450.641C1041.04 465.875 1037.71 468.572 1038.66 471.428C1040.56 478.093 1041.36 486.503 1040.41 490.629C1039.77 493.009 1036.28 498.245 1032.47 502.212C1026.75 508.559 1025.32 511.257 1023.89 519.984C1022.94 525.697 1021.19 535.059 1020.24 540.771C1017.54 555.053 1018.34 556.481 1028.66 556.481C1039.61 556.481 1044.22 557.909 1044.22 560.924C1044.22 562.352 1037.23 569.968 1028.82 578.061C1015 591.073 1013.57 592.818 1015.64 595.199C1016.75 596.785 1019.61 598.848 1021.83 600.118C1025.96 602.18 1028.5 601.704 1040.09 596.944C1042.79 595.675 1043.1 596.151 1042.15 601.863C1041.2 608.052 1038.82 610.908 1027.23 619.953C1022.15 623.92 1021.35 626.776 1021.83 640.105C1022.15 648.039 1028.5 654.069 1040.72 658.036C1046.6 659.94 1053.9 662.955 1056.76 664.7C1070.89 672.793 1099.94 659.305 1146.46 623.126C1162.5 610.59 1164.09 608.845 1169.8 597.261C1173.29 590.597 1176.31 585.043 1176.79 585.043C1177.11 585.043 1179.01 588.217 1180.76 592.025C1182.98 597.103 1183.93 602.498 1183.93 610.908C1183.93 625.348 1187.58 646.928 1192.03 658.829C1193.78 663.748 1198.54 672.476 1202.19 678.029C1208.07 686.757 1209.02 688.978 1207.75 692.31C1205.05 699.451 1206 702.307 1212.51 706.592C1216.48 709.289 1218.86 711.987 1218.86 714.05C1218.86 719.127 1225.85 729.759 1233.63 736.265C1240.77 742.136 1240.77 742.295 1241.72 754.513C1243.79 779.426 1246.01 800.054 1247.12 801.165C1247.76 801.641 1254.27 801.006 1261.73 799.419C1277.13 796.404 1276.02 797.674 1279.19 776.252C1280.3 769.27 1282.05 761.812 1283.16 759.591C1285.07 755.941 1286.02 755.624 1297.77 755.624C1307.93 755.465 1311.58 754.83 1318.09 751.339C1338.26 740.866 1361.59 706.274 1361.75 686.915C1361.75 683.742 1360.64 671.999 1359.05 660.892C1354.93 629.949 1356.04 627.887 1385.73 611.86C1403.67 602.18 1411.13 596.785 1412.24 592.501C1412.72 590.756 1416.21 582.98 1420.02 575.205C1428.75 557.115 1428.75 555.529 1420.18 553.307C1408.27 550.292 1408.43 550.451 1414.62 544.104C1417.8 540.771 1420.5 537.28 1420.5 536.17C1420.5 533.155 1415.1 531.251 1398.75 528.553C1376.36 525.062 1376.84 525.221 1374.77 520.778C1372.23 515.224 1372.39 505.862 1375.25 490.946C1376.52 484.123 1377.63 475.237 1377.63 471.428C1377.63 464.923 1379.22 461.908 1395.41 438.582C1431.14 387.17 1458.76 350.515 1473.69 334.805C1478.61 329.728 1480.99 328.299 1483.69 329.093C1488.13 330.204 1488.13 330.204 1482.42 312.114C1479.88 303.863 1477.65 295.77 1477.65 294.342C1477.65 290.851 1480.35 289.423 1495.91 285.139C1513.54 280.219 1513.22 280.537 1508.61 273.714C1502.42 264.51 1503.22 262.447 1516.39 253.561L1528.14 245.627L1542.27 251.974C1549.89 255.624 1559.26 259.909 1563.07 261.654C1569.74 264.828 1579.27 272.92 1579.27 275.618C1579.27 276.411 1577.04 277.363 1574.34 277.998C1567.68 279.426 1558.15 288.471 1552.43 298.468C1547.35 307.354 1540.21 327.506 1538.62 337.344C1537.83 342.581 1536.88 343.691 1533.54 344.167C1527.67 344.802 1525.44 349.245 1529.1 353.212C1531.79 356.227 1531.79 356.386 1527.19 358.766C1524.49 360.194 1517.51 366.7 1511.47 373.364C1505.6 380.029 1497.66 387.17 1494.01 389.391C1488.29 392.723 1487.18 394.151 1487.18 398.118C1487.18 400.816 1485.43 406.37 1483.21 410.813C1479.24 418.588 1479.24 418.747 1481.46 432.393C1482.73 440.01 1484.48 452.546 1485.59 460.48C1487.66 477.141 1491.15 496.5 1493.21 503.482C1497.02 516.017 1499.09 517.922 1520.68 528.712C1532.27 534.266 1542.59 539.819 1543.7 540.771C1545.13 541.882 1550.05 542.358 1556.56 541.882C1571.96 540.93 1583.24 535.218 1616.26 511.733C1647.38 489.518 1660.87 482.219 1673.73 480.473C1684.05 479.045 1690.56 474.285 1713.58 450.8C1730.73 433.504 1740.58 420.016 1750.9 399.705C1759.15 383.203 1760.58 372.412 1755.5 362.574C1748.67 349.245 1737.24 340.042 1722.63 336.075L1715.97 334.329L1718.35 328.617C1719.94 324.808 1720.41 320.683 1719.78 316.874C1718.98 311.638 1719.46 309.734 1723.75 303.863L1728.83 297.04L1715.01 295.929C1707.39 295.453 1700.41 294.501 1699.14 294.183C1698.03 293.707 1696.6 289.899 1695.96 285.932C1695.01 279.109 1694.37 278.157 1689.13 276.094C1685.96 274.824 1681.67 271.651 1679.77 268.953L1676.43 264.193L1683.58 243.723L1690.88 223.253L1673.42 204.688C1663.89 194.374 1654.84 184.218 1653.41 181.997C1650.08 177.078 1650.08 171.841 1653.41 157.878L1656.11 146.611L1645 135.98C1636.9 128.363 1631.98 124.872 1626.58 123.444L1619.28 121.381L1614.2 100.594C1611.5 89.0106 1609.11 78.855 1608.96 78.0616C1608.8 77.1096 1612.13 75.6815 1616.42 74.5707C1622.77 72.9839 1626.42 70.6037 1635.15 61.8763L1646.11 51.0861L1642.61 48.2299C1640.39 46.4844 1636.42 45.5323 1631.02 45.5323C1626.42 45.5323 1621.34 44.5803 1619.59 43.3109C1616.74 41.0893 1616.74 40.9307 1620.55 39.5025C1626.26 37.281 1628.8 33.79 1628.17 28.7123C1627.69 24.7453 1628.33 24.2693 1635.63 22.2064C1648.81 18.5568 1648.33 18.8741 1644.52 14.7485C1638.96 8.71869 1622.93 1.10205 1614.67 0.149963C1609.11 -0.32605 1605.3 0.308655 1600.54 2.37146Z" fill="#F5F4F7" fill-opacity="0.4"/>
<path d="M484.716 125.824C484.24 127.253 483.764 129.633 483.764 131.378C483.764 135.186 482.494 135.186 478.048 131.061L474.396 127.729L463.759 132.648C449.311 139.471 435.022 148.198 433.91 151.054C431.529 157.402 438.038 163.114 452.804 167.716C462.012 170.572 462.489 171.683 456.138 176.443C451.375 180.093 449.628 180.569 444.072 179.617C434.069 177.871 419.462 178.347 415.652 180.41C411.365 182.632 409.142 187.868 410.254 193.581C411.048 197.706 411.524 197.865 420.097 197.865C432.64 197.865 439.308 202.149 439.308 209.925C439.308 214.368 438.038 216.906 433.752 221.191C428.353 226.586 427.718 226.745 419.621 225.793C409.619 224.682 408.349 225.793 407.237 236.107L406.443 243.565L415.176 244.517C428.353 246.104 438.038 252.292 451.534 267.684C464.87 282.759 475.031 290.058 484.558 291.169C488.368 291.486 497.894 290.216 508.373 287.519C529.648 282.441 545.207 280.854 552.034 283.235C556.321 284.821 558.067 284.504 563.624 281.648C567.276 279.902 581.248 275.301 594.902 271.334C623.004 263.4 633.165 259.115 641.262 251.975C652.852 241.978 655.393 226.586 648.089 212.146C643.326 202.625 643.009 197.706 647.295 195.009C651.423 192.47 651.423 185.647 647.295 180.41C644.279 176.602 644.12 176.443 639.516 178.982L634.911 181.68L633.959 175.808C633.006 169.144 628.243 163.431 622.686 162.003C616.494 160.417 614.113 162.321 612.207 170.096C610.144 178.03 609.032 178.823 606.809 173.746C603.952 167.716 600.459 166.764 593.79 170.096C590.456 171.841 587.281 173.428 586.646 173.746C585.852 174.063 585.376 173.111 585.376 171.841C585.376 166.605 576.008 162.955 563.148 163.114C548.224 163.273 543.778 164.542 541.714 168.985C539.491 173.904 537.427 173.428 539.333 168.351C541.397 163.114 541.397 157.084 539.333 155.815C538.38 155.18 533.935 155.339 529.33 155.815C521.074 156.926 520.916 157.084 516.311 165.812C511.866 174.222 511.072 174.856 505.515 175.332L499.482 175.808L504.404 166.288C511.707 151.53 510.119 136.773 500.117 128.046C494.242 122.809 486.304 121.699 484.716 125.824Z" fill="#F5F4F7" fill-opacity="0.4"/>
<path d="M1651.98 540.771C1638.01 542.358 1614.51 548.229 1600.86 553.307C1595.78 555.211 1586.09 560.606 1579.42 565.049C1564.02 575.522 1563.07 579.013 1573.23 588.693C1579.9 595.04 1580.06 595.357 1579.42 604.561C1578.63 619.794 1583.24 622.174 1598.32 614.399C1603.56 611.701 1603.72 611.701 1606.42 615.351C1608.96 618.683 1608.96 619.476 1606.73 623.602C1603.88 629.315 1603.72 645.024 1606.26 660.099C1608.64 672.952 1606.73 678.981 1599.91 681.838C1590.22 685.805 1580.22 680.727 1568.95 665.811L1561.64 656.449H1550.69C1544.65 656.449 1537.99 655.814 1535.76 654.862C1532.27 653.593 1531.16 654.069 1526.24 659.94C1515.76 672.158 1496.23 714.526 1497.34 722.618C1497.66 725.157 1499.41 730.394 1501.31 734.36C1503.06 738.328 1505.76 749.118 1507.19 758.162C1509.41 772.92 1510.2 775.141 1514.49 779.267C1519.41 783.71 1519.57 783.71 1534.02 782.758C1550.69 781.488 1550.69 781.488 1550.69 793.865C1550.69 798.308 1549.26 803.862 1546.72 808.94C1543.23 815.763 1542.75 817.985 1543.7 826.871L1544.65 836.868L1538.3 838.454C1532.11 840.041 1531.95 840.041 1529.41 834.646L1526.71 829.092L1512.9 830.044C1491.47 831.631 1473.37 834.17 1459.08 837.661C1443.84 841.311 1442.73 840.834 1427.01 827.823C1420.82 822.745 1415.89 819.889 1413.19 819.889C1406.05 819.889 1380.65 829.251 1364.13 837.978C1355.4 842.739 1340 850.831 1330 856.227C1320 861.622 1308.25 867.175 1304.12 868.762C1299.67 870.349 1292.37 874.951 1286.97 879.87C1278.4 887.645 1277.61 888.121 1277.61 884.63C1277.61 878.759 1273.64 874.633 1264.59 870.666C1259.98 868.762 1256.01 866.858 1255.7 866.699C1255.38 866.382 1256.97 864.478 1259.19 862.256C1261.41 859.876 1263.32 856.544 1263.32 854.481C1263.32 848.61 1255.06 833.853 1249.82 830.679C1243.63 826.871 1242.2 827.029 1236.48 831.948C1230.45 837.026 1230.13 842.421 1235.53 845.278C1240.77 847.975 1240.61 849.086 1234.26 853.846C1222.2 863.05 1202.83 867.651 1192.35 863.843C1189.17 862.732 1188.06 863.526 1183.77 870.349C1179.01 878.124 1178.85 878.124 1173.14 876.855C1169.96 876.061 1166.79 875.427 1166.15 875.427C1165.36 875.427 1164.88 872.888 1164.88 869.873C1164.88 864.478 1164.72 864.478 1154.24 861.304C1148.21 859.559 1139.64 857.337 1135.19 856.385C1130.59 855.274 1126.78 854.005 1126.78 853.529C1126.93 852.894 1127.89 850.673 1129.16 848.451C1130.43 846.23 1131.38 841.787 1131.54 838.454C1131.54 832.583 1131.22 832.266 1121.7 827.823C1116.14 825.125 1110.74 823.062 1109.63 823.062C1108.36 823.062 1112.01 818.143 1117.57 812.114C1128.05 800.689 1140.91 780.695 1145.35 768.635C1147.73 762.129 1149 761.177 1161.07 755.148C1178.53 746.42 1177.26 743.088 1155.35 738.962C1150.59 738.01 1146.15 736.741 1145.35 735.947C1144.56 735.154 1145.99 728.965 1149 721.19C1153.77 709.13 1157.26 688.185 1154.72 688.185C1150.91 688.185 1137.25 697.071 1135.03 701.038C1132.65 705.163 1131.54 705.64 1124.39 705.64C1120.11 705.64 1111.85 706.116 1106.14 706.592L1095.82 707.702L1087.88 718.651C1083.59 724.522 1079.78 730.552 1079.46 731.822C1078.51 735.789 1083.59 736.265 1089.15 732.774C1096.45 728.331 1106.29 727.061 1114.87 729.441C1118.84 730.552 1122.01 731.98 1122.01 732.615C1122.01 734.837 1107.56 740.708 1099.94 741.66C1095.5 742.136 1088.51 741.501 1082.48 739.914C1076.92 738.486 1072 737.693 1071.52 738.169C1071.05 738.645 1070.57 753.561 1070.57 771.174C1070.41 801.799 1070.57 803.545 1074.06 808.94C1077.08 813.859 1077.56 816.874 1077.56 829.092C1077.56 844.643 1080.57 855.909 1087.72 866.382C1091.05 871.301 1091.21 872.253 1089.31 876.855C1086.77 882.885 1080.42 886.376 1076.92 883.519C1073.43 880.663 1071.21 882.726 1071.21 888.756C1071.21 891.612 1070.41 896.214 1069.46 899.07C1067.87 903.354 1067.08 903.989 1061.68 903.989C1056.28 903.989 1054.69 903.037 1047.55 894.944L1039.61 886.058L1030.56 893.04C1025.64 896.848 1020.88 901.133 1019.92 902.561C1018.65 904.624 1017.23 904.782 1012.62 903.83C1000.4 900.815 971.5 906.528 961.18 913.827C956.258 917.318 956.258 916.683 959.434 936.518C960.069 941.596 959.592 943.818 956.893 947.309C953.718 951.276 952.448 951.752 945.145 951.276L937.047 950.799L935.46 936.677L933.872 922.713L928.633 931.123C925.775 935.884 919.9 945.722 915.455 953.18C905.452 970 900.531 975.236 884.654 985.709C871 994.595 863.22 1001.26 863.22 1003.96C863.22 1004.75 862.109 1005.54 860.839 1005.54C857.981 1005.54 820.67 1020.78 817.812 1023.16C816.383 1024.27 814.796 1024.27 812.89 1023.32C809.398 1021.41 783.677 1023.32 777.167 1025.85C772.404 1027.76 770.023 1031.88 763.196 1049.34C755.734 1068.7 749.383 1074.89 731.918 1080.12C726.52 1081.71 724.298 1081.71 720.328 1080.12C713.66 1077.43 710.326 1079.33 701.276 1091.23C693.338 1102.02 689.686 1102.97 679.366 1097.74C671.745 1093.77 669.046 1089.17 668.729 1079.33C668.411 1075.05 668.252 1071.24 668.094 1071.08C668.094 1070.92 664.442 1071.87 659.996 1073.14C652.534 1075.36 651.74 1075.36 646.025 1072.03C638.88 1067.91 636.34 1068.54 630.624 1075.84C625.385 1082.98 624.75 1094.88 629.513 1102.97C632.212 1107.57 632.371 1109.32 631.1 1116.3C630.148 1120.75 628.084 1125.82 626.337 1127.73C623.321 1130.9 622.051 1131.06 607.761 1130.11C599.347 1129.47 591.408 1128.84 590.138 1128.36C588.868 1128.04 585.851 1124.55 583.47 1120.59L579.183 1113.45L541.396 1114.24L503.609 1115.03L499.164 1120.11C496.782 1122.97 494.877 1126.14 494.877 1127.25C494.877 1128.36 497.894 1130.74 501.545 1132.65L508.372 1136.14L501.387 1139.15C497.576 1140.74 492.813 1142.48 490.749 1142.96C488.685 1143.44 486.939 1144.55 486.939 1145.5C486.939 1148.83 491.86 1156.13 497.894 1161.53C504.244 1167.24 504.562 1167.4 513.77 1166.45C522.026 1165.49 523.932 1165.97 531.394 1169.94C541.555 1175.49 550.446 1186.12 557.908 1201.67C562.195 1210.72 564.576 1213.57 569.181 1215.95C572.356 1217.7 575.373 1219.13 575.69 1219.29C576.008 1219.6 574.42 1222.62 572.039 1226.11C569.816 1229.6 567.911 1232.77 567.911 1233.41C567.911 1234.04 570.133 1238.8 572.674 1244.2C576.325 1251.66 578.072 1258.32 579.977 1272.92C581.247 1283.39 583.47 1296.09 584.74 1301.01C586.963 1309.89 586.963 1310.05 582.835 1316.08C577.595 1323.86 565.529 1349.24 556.638 1371.3C550.128 1387.64 548.858 1389.55 536.951 1401.45C526.472 1411.92 504.879 1429.85 497.1 1434.45C496.147 1435.09 490.273 1433.82 484.24 1431.76C478.048 1429.69 462.806 1425.73 450.263 1422.87C405.808 1413.03 397.552 1410.49 375.642 1400.02C353.891 1389.55 340.713 1385.42 333.409 1386.85C331.187 1387.33 326.424 1386.38 322.772 1384.79C319.279 1383.2 310.07 1380.82 302.45 1379.39C287.684 1376.85 282.762 1374.79 271.013 1366.38C265.774 1362.73 261.805 1360.99 257.836 1360.99C249.738 1360.99 247.674 1362.1 242.435 1369.71L237.831 1376.38L223.542 1377.33C202.267 1378.6 194.963 1383.2 190.2 1397.96C188.295 1403.35 188.612 1404.46 192.264 1411.13C194.487 1415.25 196.392 1419.54 196.392 1420.97C196.392 1422.24 192.899 1427.47 188.612 1432.23C184.484 1437.15 180.515 1442.55 179.88 1444.45C178.928 1447.47 172.894 1452.39 146.062 1471.9C139.712 1476.51 134.472 1480.95 134.472 1481.58C134.472 1482.38 135.901 1485.55 137.807 1488.72C142.411 1496.5 140.823 1500.78 130.027 1509.03C115.579 1520.3 111.927 1524.9 111.133 1532.99C110.34 1539.98 108.911 1541.56 68.4247 1582.66C45.4032 1605.99 26.5098 1625.66 26.5098 1626.46C26.5098 1627.25 27.6212 1632.17 29.0501 1637.56C31.9079 1648.83 35.8771 1656.92 41.7516 1663.91C45.8796 1668.98 46.0383 1669.14 43.498 1674.38C42.0691 1677.39 36.9885 1682.63 32.0667 1686.28C22.6993 1693.26 21.2704 1696.91 25.8747 1703.42C30.6378 1710.4 27.6212 1716.9 12.6969 1732.46C4.44095 1741.02 -0.48087 1747.21 0.471741 1748.16C1.26558 1748.8 19.3652 1752.45 40.799 1756.1L79.5385 1762.6L87.6357 1770.22C91.9224 1774.35 101.607 1781.96 109.069 1787.04C132.726 1803.7 143.363 1816.87 146.539 1834.33C148.92 1847.5 160.51 1848.93 201.949 1841.15C239.577 1833.85 261.805 1832.58 287.525 1836.07C301.973 1837.98 307.213 1839.25 309.912 1841.79C314.357 1845.91 317.374 1845.75 322.931 1841.15C326.265 1838.45 330.075 1837.34 338.649 1836.55C347.381 1835.91 355.955 1833.38 375.007 1825.92C388.82 1820.52 406.284 1814.65 413.746 1812.91C421.208 1811.16 429.782 1808.62 432.64 1807.19C437.562 1804.81 437.72 1804.5 436.768 1798.15L435.815 1791.48L446.77 1784.66C452.645 1780.85 466.457 1773.08 477.254 1767.52C494.083 1758.64 497.1 1756.42 499.164 1751.81C503.292 1741.66 503.451 1732.46 499.64 1719.6C494.401 1702.15 494.877 1691.52 501.387 1680.57C508.214 1669.3 524.249 1654.07 548.541 1635.66C559.178 1627.73 572.356 1616.94 577.754 1611.86C590.456 1600.12 594.901 1597.89 609.984 1595.99C620.622 1594.72 626.02 1592.66 649.518 1581.23L676.667 1568.06H692.544C701.276 1568.06 709.373 1567.43 710.326 1566.79C711.437 1566.16 713.342 1562.19 714.454 1558.07C716.518 1551.24 717.153 1550.61 722.71 1549.66C730.013 1548.39 733.03 1544.74 733.03 1536.96C733.03 1532.68 732.236 1530.93 730.172 1530.3C726.679 1529.5 725.091 1523.16 725.091 1509.99C725.091 1492.06 734.776 1475.08 749.224 1467.46L756.051 1463.81L774.31 1472.06C802.888 1484.92 802.57 1484.76 813.367 1482.22C818.447 1481.11 823.687 1480 824.639 1480C825.751 1480 830.672 1483.65 835.594 1488.09C840.516 1492.53 847.026 1497.13 849.883 1498.4C857.028 1501.42 882.59 1501.42 888.305 1498.4C890.687 1497.13 902.912 1485.23 915.455 1472.06C935.777 1450.64 938.794 1448.1 942.604 1448.74C948.002 1449.85 960.069 1444.93 979.121 1433.66C987.377 1428.9 997.221 1423.35 1000.87 1421.6L1007.38 1418.11L1016.11 1422.08C1020.88 1424.3 1028.34 1427 1032.47 1427.95C1040.09 1429.85 1040.56 1430.33 1052.63 1448.42C1067.08 1469.84 1069.46 1475.87 1070.73 1493.96C1072.32 1515.38 1078.51 1522.52 1122.01 1551.4C1141.54 1564.41 1149.64 1570.92 1161.55 1583.46C1181.07 1603.92 1187.27 1607.57 1201.4 1607.26C1210.76 1607.1 1213.15 1607.73 1219.34 1611.7C1225.21 1615.35 1227.59 1618.36 1232.36 1628.36C1237.76 1639.63 1238.71 1640.74 1246.33 1644.23C1250.93 1646.45 1260.3 1648.99 1267.29 1650.26L1279.99 1652.32L1280.46 1657.88C1280.94 1665.65 1285.86 1681.84 1287.77 1682.31C1288.72 1682.63 1293.64 1683.58 1298.56 1684.53C1305.23 1685.96 1309.36 1688.02 1314.76 1692.94C1326.51 1703.1 1332.22 1715 1341.91 1749.43C1346.67 1766.1 1346.83 1765.78 1334.76 1771.33C1329.68 1773.55 1328.89 1774.98 1326.98 1782.92C1325.87 1787.83 1323.01 1796.4 1320.79 1801.96C1316.98 1811.79 1316.82 1812.11 1319.68 1814.18C1326.19 1818.94 1335.72 1816.08 1343.81 1806.88C1347.62 1802.75 1354.93 1785.3 1359.37 1770.06C1362.23 1760.22 1366.68 1755.31 1378.27 1749.43C1390.01 1743.56 1390.65 1742.61 1389.54 1730.07C1388.11 1713.1 1387.63 1711.67 1383.35 1711.67C1380.49 1711.67 1367.63 1704.37 1358.1 1697.23C1355.08 1695.01 1369.37 1664.22 1378.74 1653.12L1383.35 1647.88L1393.35 1650.42C1398.91 1651.85 1407.8 1655.34 1413.19 1658.19C1422.4 1662.95 1440.34 1678.82 1444.15 1685.49C1445.9 1688.66 1445.9 1688.66 1448.28 1685.64C1452.09 1680.73 1452.89 1670.25 1449.87 1662.79C1444.31 1649.15 1434.79 1642.96 1382.39 1618.84C1355.72 1606.62 1326.82 1590.91 1326.82 1588.85C1326.82 1587.9 1330 1583.14 1333.97 1578.38C1337.94 1573.62 1341.11 1569.17 1341.11 1568.7C1341.11 1566.16 1326.98 1564.1 1309.84 1564.1C1294.91 1564.1 1288.88 1563.46 1281.58 1560.92C1252.68 1550.93 1234.42 1528.39 1229.34 1496.34C1225.69 1473.97 1221.56 1467.94 1195.84 1448.58C1187.11 1441.91 1177.9 1434.3 1175.36 1431.6C1165.99 1421.6 1164.25 1411.13 1169.8 1397.8C1172.98 1390.02 1173.14 1389.39 1170.6 1383.2C1167.1 1374.47 1167.26 1360.67 1170.91 1357.5C1172.34 1356.07 1182.98 1349.56 1194.57 1342.9L1215.53 1331L1222.67 1334.01C1226.48 1335.76 1231.56 1337.34 1233.79 1337.5C1236.01 1337.66 1237.91 1338.3 1237.91 1338.77C1237.91 1339.25 1235.53 1343.85 1232.67 1349.09L1227.59 1358.61L1232.04 1367.33C1234.42 1372.09 1237.12 1379.08 1237.91 1382.73C1239.18 1387.49 1240.3 1389.23 1241.88 1388.6C1245.06 1387.33 1253.79 1373.84 1253.79 1370.19C1253.79 1368.44 1256.01 1364.79 1258.71 1362.1L1263.79 1357.18L1267.92 1362.57C1272.05 1368.13 1275.86 1371.78 1284.75 1379.08C1289.35 1382.88 1289.51 1383.36 1289.51 1397.01C1289.51 1404.62 1290.31 1412.24 1291.1 1413.67C1292.05 1415.1 1296.02 1418.75 1300.15 1421.92C1304.91 1425.57 1307.93 1429.22 1308.57 1432.39C1309.84 1438.26 1316.98 1444.29 1328.73 1449.53C1336.83 1452.86 1338.1 1454.13 1339.68 1459.53L1341.59 1465.56H1350.64C1367.95 1465.4 1381.44 1471.9 1401.45 1489.68C1410.02 1497.29 1414.46 1500.15 1420.18 1501.58C1432.41 1504.27 1456.54 1518.24 1467.97 1529.03C1473.69 1534.42 1474.32 1534.42 1486.23 1531.41C1489.88 1530.61 1490.36 1530.93 1490.36 1534.58C1490.36 1537.6 1491.31 1538.87 1494.17 1539.66C1497.82 1540.45 1497.98 1540.93 1497.18 1552.67C1496.39 1564.25 1496.71 1565.84 1503.69 1583.77L1511.15 1602.5L1505.6 1613.13L1500.2 1623.76L1502.9 1631.69C1506.55 1642.64 1515.28 1654.07 1528.14 1664.54C1544.97 1678.35 1548.62 1682.95 1549.74 1691.36C1550.53 1697.07 1552.12 1699.77 1555.77 1702.94C1563.71 1709.61 1572.76 1713.41 1586.89 1716.43L1600.22 1718.97L1595.94 1721.82C1593.56 1723.41 1590.7 1727.06 1589.43 1730.07C1587.36 1734.84 1587.36 1736.1 1589.59 1740.23C1592.44 1745.78 1600.22 1751.81 1607.69 1754.35C1615.15 1756.73 1638.33 1756.57 1661.03 1753.72C1686.28 1750.54 1696.75 1750.54 1696.75 1753.72C1696.75 1758.8 1691.99 1765.3 1687.07 1767.05C1679.93 1769.59 1673.73 1769.27 1655.16 1765.62C1634.04 1761.49 1618.32 1761.49 1611.02 1765.46C1603.88 1769.27 1598.32 1779.58 1598.32 1789.42C1598.32 1800.69 1602.13 1804.34 1618.32 1809.26C1627.06 1811.95 1632.29 1814.49 1633.25 1816.56C1634.2 1818.14 1635.31 1828.3 1635.63 1838.93C1636.42 1855.75 1636.9 1858.76 1639.76 1861.78C1644.04 1866.38 1650.87 1869.08 1656.43 1868.44C1661.83 1867.81 1668.18 1859.4 1668.18 1852.73C1668.18 1850.2 1668.65 1848.13 1669.45 1848.13C1670.08 1848.13 1675.48 1854.96 1681.51 1863.21C1687.55 1871.46 1692.94 1878.28 1693.74 1878.28C1696.28 1878.28 1699.61 1871.14 1700.57 1863.37C1701.04 1859.08 1701.84 1855.11 1702.31 1854.8C1702.79 1854.32 1708.03 1858.76 1714.06 1864.48C1720.89 1871.14 1726.29 1875.11 1728.51 1875.11C1732 1875.11 1732 1874.63 1731.37 1862.57C1730.57 1847.66 1726.92 1840.99 1715.17 1832.26C1700.41 1821.32 1701.36 1822.74 1702.47 1813.86L1703.58 1805.61L1718.35 1812.75C1739.46 1822.9 1750.74 1822.59 1750.74 1811.48C1750.74 1805.92 1745.97 1802.59 1730.57 1796.72L1718.98 1792.28V1780.54V1768.63L1723.43 1771.01C1725.97 1772.28 1731.37 1774.19 1735.65 1775.3C1740.42 1776.41 1746.77 1780.06 1752.8 1784.98C1764.07 1794.02 1768.68 1795.61 1774.39 1792.44C1781.06 1788.63 1780.27 1785.45 1769.95 1774.66C1764.55 1769.11 1760.26 1763.4 1760.26 1761.97C1760.26 1756.89 1747.72 1747.21 1728.35 1736.9C1704.85 1724.52 1694.69 1715.48 1687.39 1700.08C1681.83 1688.18 1679.61 1679.93 1681.99 1679.93C1682.78 1679.93 1688.82 1681.68 1695.17 1683.9C1709.14 1688.66 1712 1688.82 1714.06 1684.85C1716.6 1680.25 1711.68 1675.17 1693.9 1664.38C1685.32 1659.15 1675.32 1651.53 1671.67 1647.56C1664.21 1639.47 1663.89 1637.09 1666.59 1617.25C1668.81 1601.86 1669.45 1600.59 1673.73 1600.59C1678.66 1600.59 1684.53 1608.21 1696.12 1629.63C1708.98 1653.59 1718.51 1661.21 1724.38 1652.64C1727.56 1648.04 1727.56 1639.63 1724.54 1637.09C1720.57 1633.92 1715.49 1625.98 1717.08 1625.98C1718.03 1625.98 1723.43 1630.27 1729.14 1635.5C1740.1 1645.34 1743.27 1646.61 1748.35 1642.8C1751.69 1640.42 1752.48 1641.69 1734.07 1620.27C1725.49 1610.11 1730.73 1610.27 1747.72 1620.74C1759.31 1627.89 1762.49 1629.15 1763.6 1627.41C1766.93 1622.01 1764.39 1616.62 1753.44 1606.46C1748.35 1601.86 1747.24 1600.28 1750.42 1602.34C1757.56 1607.42 1760.1 1605.35 1764.71 1591.71C1766.77 1585.68 1769.95 1579.17 1771.69 1577.27C1775.35 1573.3 1791.86 1567.27 1798.68 1567.27C1801.22 1567.27 1809 1565.68 1816.31 1563.94C1826.31 1561.24 1832.03 1560.76 1841.87 1561.4C1849.33 1561.87 1855.84 1561.56 1858.06 1560.61C1860.13 1559.65 1862.35 1559.18 1862.83 1559.65C1863.3 1560.29 1861.08 1566.48 1858.06 1573.62C1852.51 1586.15 1851.08 1592.66 1853.62 1592.66C1856.79 1592.66 1883.78 1574.57 1889.34 1568.7C1894.1 1563.78 1895.37 1561.4 1894.9 1557.75C1894.58 1553.62 1895.53 1552.35 1903.15 1547.43C1917.44 1538.39 1924.43 1535.69 1948.56 1529.03C1975.71 1521.73 1979.52 1519.98 1982.06 1513.32L1983.97 1508.4L1965.39 1499.51C1946.18 1490.31 1939.51 1485.23 1911.25 1458.26L1899.18 1446.67L1904.42 1437.15C1909.19 1428.27 1909.66 1426.2 1910.14 1411.29C1910.46 1400.18 1912.05 1389.55 1915.06 1377.33L1919.51 1359.56L1916.17 1333.69C1914.27 1318.3 1913.47 1307.51 1914.43 1306.88C1915.22 1306.4 1923.32 1298.63 1932.53 1289.74L1949.04 1273.4L1946.82 1268.32C1938.72 1249.75 1933.32 1236.74 1933.64 1236.42C1933.96 1236.11 1937.92 1236.74 1942.53 1237.69C1947.77 1238.8 1951.26 1238.8 1952.21 1237.85C1953.01 1237.06 1954.59 1229.92 1956.02 1221.98C1960.31 1195.96 1970.63 1179.77 1988.1 1171.84C1994.6 1168.83 1998.73 1168.19 2012.07 1168.19H2028.26L2029.22 1131.69C2029.69 1111.54 2030.65 1073.46 2031.12 1047.12L2032.07 998.879L2027.95 1001.58C2022.07 1005.39 2005.88 1004.12 1984.13 997.927C1953.8 989.517 1947.77 988.883 1935.07 992.691C1921.25 996.817 1920.62 996.817 1911.25 992.056C1906.96 989.993 1900.3 987.454 1896.49 986.502L1889.34 984.598L1890.93 975.871C1892.36 967.461 1892.36 967.143 1887.44 962.066C1884.1 958.734 1881.24 953.021 1879.18 946.356C1876.16 936.201 1873.46 932.869 1861.87 924.617C1859.02 922.555 1858.38 920.016 1857.59 905.893L1856.63 889.39L1866.8 896.055C1872.35 899.705 1877.59 903.196 1878.54 904.148C1881.24 906.687 1885.21 905.734 1887.91 901.609C1889.5 899.387 1892.36 896.848 1894.58 896.055C1903 892.881 1897.28 875.744 1884.42 865.589C1880.29 862.256 1872.51 856.385 1867.27 852.577C1861.87 848.769 1855.36 842.897 1852.98 839.565L1848.38 833.535L1848.86 809.416L1849.33 785.297L1844.41 779.743C1838.54 772.92 1831.39 768.794 1809.96 759.749C1800.27 755.624 1790.9 750.387 1786.78 746.738C1778.84 739.756 1743.91 701.514 1738.35 693.739L1734.7 688.661L1738.03 678.505C1749.62 644.072 1740.26 631.377 1699.77 626.617C1693.26 625.824 1684.85 623.602 1681.2 621.698L1674.37 618.207L1683.74 610.749C1693.9 602.656 1700.09 595.198 1698.98 592.342C1698.66 591.39 1695.96 589.169 1693.26 587.423C1690.56 585.678 1686.59 583.139 1684.53 581.869C1679.93 578.854 1679.93 576.316 1684.69 571.873C1686.75 569.968 1688.82 566.636 1689.45 564.415C1690.09 562.193 1691.67 557.75 1693.1 554.418C1695.64 548.705 1695.48 548.229 1692.63 545.373C1689.93 542.676 1673.1 538.709 1666.59 539.185C1665.32 539.343 1658.81 540.137 1651.98 540.771Z" fill="#F5F4F7" fill-opacity="0.4"/>
<path d="M658.408 589.01C654.439 590.279 649.359 593.294 647.136 595.675C642.69 600.435 637.769 611.701 637.769 617.096C637.769 620.27 638.245 620.429 648.088 619.476C659.361 618.366 671.269 613.923 676.984 608.528C680.953 604.719 683.017 596.627 681.589 590.597C680.636 587.106 679.842 586.63 673.015 586.788C668.887 586.788 662.378 587.899 658.408 589.01Z" fill="#F5F4F7" fill-opacity="0.4"/>
<path d="M708.42 603.609C700.482 604.561 690.48 612.019 668.57 633.599L652.216 649.626L647.136 644.389C640.309 637.407 633.164 635.027 625.861 637.407C622.844 638.36 620.304 639.788 620.304 640.581C620.304 641.374 623.162 647.246 626.813 653.91C631.1 661.844 635.069 666.922 638.721 669.143C641.738 671.048 644.119 672.793 644.119 672.952C644.119 673.11 637.451 676.76 629.195 680.886C611.572 689.772 600.458 699.769 597.917 709.131C595.536 718.493 596.647 719.921 606.491 719.921C621.733 719.921 629.83 721.666 629.83 724.84C629.83 726.268 624.273 736.106 617.446 746.42C610.619 756.735 604.586 765.938 603.951 767.049C602.998 768.477 603.951 768.477 607.92 767.207C624.591 761.812 631.418 760.543 633.164 762.288C635.704 764.827 631.259 772.126 623.638 777.839C616.97 782.758 615.7 785.932 619.192 790.057C625.543 797.833 634.275 799.419 651.264 795.452C665.077 792.12 670.316 791.961 673.333 794.342C678.096 798.309 675.873 807.353 667.458 818.62L664.124 823.063L667.617 832.901C673.65 850.038 672.221 855.116 657.773 868.762C647.295 878.759 646.501 878.759 626.02 868.921C618.24 865.113 611.889 863.05 610.301 863.685C606.967 864.954 606.809 872.571 609.825 881.457L612.207 887.963L605.538 888.439C595.695 889.073 595.854 893.199 605.856 899.387C614.747 904.783 615.541 907.004 610.778 914.621C606.173 922.237 597.6 926.998 579.024 932.552C569.974 935.249 562.036 937.947 561.401 938.581C559.019 941.279 553.304 958.099 554.097 960.003C554.732 961.749 560.924 962.383 579.024 963.177L603.157 964.129L607.444 969.207C611.413 973.967 612.365 974.284 622.368 974.443C628.242 974.602 633.005 975.078 633.005 975.554C633.005 977.299 622.368 986.185 617.287 988.724C613.318 990.946 611.572 990.787 598.711 987.296C590.932 985.075 583.47 983.646 582.041 984.122C579.183 985.075 567.116 997.452 563.147 1003.64C561.242 1006.34 552.986 1009.83 526.948 1018.4C493.289 1029.66 493.13 1029.66 495.988 1032.84C503.609 1041.41 519.803 1042.68 546.953 1036.49C556.638 1034.27 566.799 1032.52 569.498 1032.52C573.15 1032.52 574.737 1033.47 576.166 1036.49C577.119 1038.71 578.548 1040.45 579.342 1040.45C579.977 1040.45 584.105 1037.91 588.391 1034.9C603.951 1023.63 611.73 1022.52 622.05 1030.3C628.877 1035.22 633.64 1035.06 652.058 1029.35C660.155 1026.65 667.458 1024.59 668.252 1024.59C668.887 1024.59 671.586 1027.76 674.285 1031.73C680.953 1041.41 689.051 1047.44 693.814 1046.17C698.259 1045.06 701.276 1039.18 701.276 1031.57C701.276 1026.97 701.752 1026.17 704.134 1026.81C719.375 1031.41 736.205 1032.04 752.717 1028.55C767.8 1025.38 788.599 1013.48 788.599 1007.92C788.599 1004.59 783.042 1000.94 773.516 997.61C768.276 995.865 763.513 993.802 762.719 993.008C761.925 992.215 764.783 989.2 769.07 986.027C773.357 983.012 778.12 978.886 779.708 977.141C781.454 975.236 784.312 973.808 786.058 973.808C794.473 973.808 817.336 959.527 825.115 949.53C828.132 945.722 828.449 944.611 826.703 940.486C824.004 933.98 813.843 925.094 806.539 923.189C803.205 922.237 792.885 921.444 783.518 921.444C773.516 921.444 766.371 920.809 766.371 919.857C766.371 919.064 770.023 909.226 774.468 898.118C788.599 863.526 787.328 849.879 768.594 832.742L758.274 823.221L759.226 816.239C760.497 807.829 758.909 806.243 751.288 808.781C745.731 810.686 739.38 808.94 739.38 805.608C739.38 804.656 742.238 797.357 745.572 789.264C753.193 771.333 754.622 764.351 752.082 757.845C750.018 753.085 743.35 748.483 738.586 748.483C736.999 748.483 733.982 747.055 731.442 745.31C729.06 743.564 725.25 741.501 722.868 740.549C718.74 739.121 718.74 738.962 720.963 733.409C725.25 723.253 732.553 714.684 755.892 691.676C777.961 669.937 782.248 664.224 780.025 658.829C777.802 652.799 757.797 651.689 728.266 655.656C719.058 656.925 710.961 658.036 710.008 658.036C706.515 658.036 725.726 640.74 745.255 626.141C756.686 617.572 766.53 609.797 767.006 609.162C767.324 608.528 767.165 606.941 766.371 605.672C765.26 603.767 759.861 603.291 739.857 603.133C726.044 602.974 711.913 603.291 708.42 603.609Z" fill="#F5F4F7" fill-opacity="0.4"/>
<path d="M538.062 752.609C527.583 755.306 522.026 758.163 517.263 763.399C514.723 766.097 511.706 767.525 508.372 767.525C502.021 767.525 496.623 772.602 499.481 776.093C500.434 777.363 503.768 778.791 506.784 779.267C511.547 780.219 512.341 781.012 512.341 784.821C512.341 788.47 511.23 789.74 505.832 792.12C500.592 794.5 498.846 794.659 496.782 793.231C485.509 784.979 464.552 781.171 452.962 784.979C445.5 787.36 436.132 795.452 436.132 799.261C436.132 801.006 437.561 803.228 439.149 804.338C440.895 805.608 443.118 808.464 444.23 810.844C446.77 816.557 444.388 819.096 434.068 821.476C421.049 824.332 420.255 824.808 420.255 826.871C420.255 830.203 426.447 837.185 431.687 839.883C434.386 841.311 441.53 843.215 447.881 844.326L459.154 846.23L450.263 849.245C439.625 852.577 434.227 851.625 431.687 845.912C428.988 840.359 426.289 841.787 423.113 850.673C421.684 854.957 420.097 858.607 419.62 859.083C419.144 859.559 415.492 858.766 411.364 857.337C407.236 855.909 402.473 854.799 400.886 854.799C396.599 854.799 391.677 860.511 391.677 865.589C391.677 869.08 392.789 870.666 396.758 872.412L401.838 874.792L391.995 877.014C386.597 878.124 381.357 880.029 380.405 881.139C378.499 883.361 380.246 887.804 384.374 891.295C388.025 894.31 387.549 896.373 381.198 903.672C378.182 907.321 375.8 911.447 376.118 912.875C376.435 914.462 383.104 918.27 392.471 922.555L408.348 929.537L427.4 927.791C455.82 925.252 483.128 921.603 495.671 918.746C518.851 913.51 541.713 902.085 552.033 890.343C562.671 878.124 570.451 856.227 569.18 842.422L568.387 834.964L583.628 824.649L598.87 814.335L599.029 796.087C599.188 782.123 598.711 776.252 596.489 770.698C592.837 761.495 590.297 759.908 582.993 762.606C579.183 763.875 576.642 764.034 575.372 763.082C574.261 762.13 569.974 760.543 565.687 759.432C559.019 757.845 558.225 757.211 558.86 753.878C559.495 750.387 559.019 750.07 552.986 750.229C549.493 750.229 542.666 751.339 538.062 752.609Z" fill="#F5F4F7" fill-opacity="0.4"/>
<path d="M1002.14 1512.68C977.851 1532.52 974.993 1535.69 971.818 1548.55C970.071 1555.21 968.801 1565.68 968.801 1572.98C968.801 1584.09 969.436 1586.63 972.929 1592.02C978.01 1599.64 991.823 1607.73 997.38 1606.31C1002.62 1605.04 1013.1 1590.75 1018.18 1578.38C1026.28 1558.38 1028.97 1530.93 1024.53 1515.86C1022.31 1508.88 1018.02 1502.05 1015.8 1502.37C1015.32 1502.37 1009.13 1506.97 1002.14 1512.68Z" fill="#F5F4F7" fill-opacity="0.4"/>
<path d="M990.234 1622.01C986.265 1625.19 976.263 1631.54 967.848 1636.3C947.684 1647.72 946.732 1649.62 947.049 1681.2C947.208 1700.4 946.573 1706.75 943.239 1721.67C938.793 1741.18 937.523 1758 940.54 1761.02C941.969 1762.45 944.35 1762.29 950.86 1760.86C957.369 1759.27 961.18 1756.89 968.324 1750.23C977.533 1741.34 981.026 1740.39 985.471 1745.78C986.583 1747.05 988.012 1748.16 988.805 1748.16C990.552 1748.16 996.109 1736.9 1002.78 1720.08L1008.02 1707.07L1003.73 1695.96C998.49 1682.95 999.125 1678.35 1006.75 1673.74C1013.26 1669.62 1014.68 1662.32 1012.3 1645.82C1010.72 1633.76 1003.57 1617.41 999.76 1616.94C998.49 1616.62 994.203 1619 990.234 1622.01Z" fill="#F5F4F7" fill-opacity="0.4"/>
<path d="M1280.3 1805.45C1275.38 1806.08 1260.94 1809.73 1248.23 1813.38C1219.97 1821.47 1208.07 1821.63 1192.98 1814.18L1183.77 1809.73L1173.14 1812.91C1167.26 1814.65 1158.37 1816.87 1153.45 1817.98C1140.11 1820.68 1134.56 1824.97 1130.74 1835.76C1127.09 1846.55 1128.05 1849.09 1139.16 1858.13C1150.75 1867.33 1171.07 1877.17 1209.65 1891.93C1229.18 1899.39 1251.09 1908.11 1258.39 1911.29L1271.73 1917L1275.54 1912.24C1283.8 1902.24 1284.75 1899.07 1283.96 1883.04C1282.53 1849.24 1282.85 1841.31 1286.5 1836.23C1290.94 1829.88 1293.32 1822.11 1293.8 1812.43C1294.28 1803.39 1294.28 1803.39 1280.3 1805.45Z" fill="#F5F4F7" fill-opacity="0.4"/>
</svg>
