<svg width="375" height="1120" viewBox="0 0 375 1120" fill="none" xmlns="http://www.w3.org/2000/svg">
<circle cx="8" cy="8" r="8" fill="#F5F4F7"/>
<circle cx="56" cy="8" r="8" fill="white"/>
<circle cx="104" cy="8" r="8" fill="white"/>
<circle cx="152" cy="8" r="8" fill="#F5F4F7"/>
<circle cx="200" cy="8" r="8" fill="#F5F4F7"/>
<circle cx="248" cy="8" r="8" fill="#F5F4F7"/>
<circle cx="296" cy="8" r="8" fill="white"/>
<circle cx="344" cy="8" r="8" fill="white"/>
<circle cx="8" cy="56" r="8" fill="#F5F4F7"/>
<circle cx="56" cy="56" r="8" fill="#F5F4F7"/>
<circle cx="104" cy="56" r="8" fill="white"/>
<circle cx="152" cy="56" r="8" fill="#F5F4F7"/>
<circle cx="200" cy="56" r="8" fill="#F5F4F7"/>
<circle cx="248" cy="56" r="8" fill="#F5F4F7"/>
<circle cx="296" cy="56" r="8" fill="#F5F4F7"/>
<circle cx="344" cy="56" r="8" fill="#F5F4F7"/>
<circle cx="8" cy="104" r="8" fill="#F5F4F7"/>
<circle cx="56" cy="104" r="8" fill="white"/>
<circle cx="104" cy="104" r="8" fill="white"/>
<circle cx="152" cy="104" r="8" fill="#F5F4F7"/>
<circle cx="200" cy="104" r="8" fill="#F5F4F7"/>
<circle cx="248" cy="104" r="8" fill="white"/>
<circle cx="296" cy="104" r="8" fill="white"/>
<circle cx="344" cy="104" r="8" fill="white"/>
<circle cx="8" cy="152" r="8" fill="#F5F4F7"/>
<circle cx="56" cy="152" r="8" fill="#F5F4F7"/>
<circle cx="104" cy="152" r="8" fill="#F5F4F7"/>
<circle cx="152" cy="152" r="8" fill="#F5F4F7"/>
<circle cx="200" cy="152" r="8" fill="white"/>
<circle cx="248" cy="152" r="8" fill="#F5F4F7"/>
<circle cx="296" cy="152" r="8" fill="white"/>
<circle cx="344" cy="152" r="8" fill="#F5F4F7"/>
<circle cx="8" cy="200" r="8" fill="#F5F4F7"/>
<circle cx="56" cy="200" r="8" fill="#F5F4F7"/>
<circle cx="104" cy="200" r="8" fill="white"/>
<circle cx="152" cy="200" r="8" fill="#F5F4F7"/>
<circle cx="200" cy="200" r="8" fill="#F5F4F7"/>
<circle cx="248" cy="200" r="8" fill="#F5F4F7"/>
<circle cx="296" cy="200" r="8" fill="#F5F4F7"/>
<circle cx="344" cy="200" r="8" fill="#F5F4F7"/>
<circle cx="8" cy="248" r="8" fill="#F5F4F7"/>
<circle cx="56" cy="248" r="8" fill="white"/>
<circle cx="104" cy="248" r="8" fill="#F5F4F7"/>
<circle cx="152" cy="248" r="8" fill="#F5F4F7"/>
<circle cx="200" cy="248" r="8" fill="#F5F4F7"/>
<circle cx="248" cy="248" r="8" fill="#F5F4F7"/>
<circle cx="296" cy="248" r="8" fill="white"/>
<circle cx="344" cy="248" r="8" fill="#44FDBA"/>
<circle cx="8" cy="296" r="8" fill="white"/>
<circle cx="56" cy="296" r="8" fill="#F5F4F7"/>
<circle cx="104" cy="296" r="8" fill="#F5F4F7"/>
<circle cx="152" cy="296" r="8" fill="#F5F4F7"/>
<circle cx="200" cy="296" r="8" fill="#F5F4F7"/>
<circle cx="248" cy="296" r="8" fill="white"/>
<circle cx="296" cy="296" r="8" fill="#F5F4F7"/>
<circle cx="344" cy="296" r="8" fill="#FDD444"/>
<circle cx="8" cy="344" r="8" fill="#F5F4F7"/>
<circle cx="56" cy="344" r="8" fill="#7D44FD"/>
<circle cx="104" cy="344" r="8" fill="white"/>
<circle cx="152" cy="344" r="8" fill="#F5F4F7"/>
<circle cx="200" cy="344" r="8" fill="#F5F4F7"/>
<circle cx="248" cy="344" r="8" fill="white"/>
<circle cx="296" cy="344" r="8" fill="#F5F4F7"/>
<circle cx="344" cy="344" r="8" fill="#F5F4F7"/>
<circle cx="8" cy="392" r="8" fill="white"/>
<circle cx="56" cy="392" r="8" fill="#F5F4F7"/>
<circle cx="104" cy="392" r="8" fill="white"/>
<circle cx="152" cy="392" r="8" fill="#F5F4F7"/>
<circle cx="200" cy="392" r="8" fill="#F5F4F7"/>
<circle cx="248" cy="392" r="8" fill="#F5F4F7"/>
<circle cx="296" cy="392" r="8" fill="#F5F4F7"/>
<circle cx="344" cy="392" r="8" fill="#F5F4F7"/>
<circle cx="8" cy="440" r="8" fill="#F5F4F7"/>
<circle cx="56" cy="440" r="8" fill="#F5F4F7"/>
<circle cx="104" cy="440" r="8" fill="#F5F4F7"/>
<circle cx="152" cy="440" r="8" fill="#F5F4F7"/>
<circle cx="200" cy="440" r="8" fill="white"/>
<circle cx="248" cy="440" r="8" fill="#F5F4F7"/>
<circle cx="296" cy="440" r="8" fill="#F5F4F7"/>
<circle cx="344" cy="440" r="8" fill="#F5F4F7"/>
<circle cx="8" cy="488" r="8" fill="#F5F4F7"/>
<circle cx="56" cy="488" r="8" fill="#F5F4F7"/>
<circle cx="104" cy="488" r="8" fill="#F5F4F7"/>
<circle cx="152" cy="488" r="8" fill="white"/>
<circle cx="200" cy="488" r="8" fill="white"/>
<circle cx="248" cy="488" r="8" fill="#F5F4F7"/>
<circle cx="296" cy="488" r="8" fill="#F5F4F7"/>
<circle cx="344" cy="488" r="8" fill="#F5F4F7"/>
<circle cx="8" cy="536" r="8" fill="#F5F4F7"/>
<circle cx="56" cy="536" r="8" fill="#F5F4F7"/>
<circle cx="104" cy="536" r="8" fill="white"/>
<circle cx="152" cy="536" r="8" fill="#F5F4F7"/>
<circle cx="200" cy="536" r="8" fill="#F5F4F7"/>
<circle cx="248" cy="536" r="8" fill="#F5F4F7"/>
<circle cx="296" cy="536" r="8" fill="white"/>
<circle cx="344" cy="536" r="8" fill="#F5F4F7"/>
<circle cx="8" cy="584" r="8" fill="#F5F4F7"/>
<circle cx="56" cy="584" r="8" fill="#F5F4F7"/>
<circle cx="104" cy="584" r="8" fill="#F5F4F7"/>
<circle cx="152" cy="584" r="8" fill="white"/>
<circle cx="200" cy="584" r="8" fill="#F5F4F7"/>
<circle cx="248" cy="584" r="8" fill="#F5F4F7"/>
<circle cx="296" cy="584" r="8" fill="#F5F4F7"/>
<circle cx="344" cy="584" r="8" fill="white"/>
<circle cx="8" cy="632" r="8" fill="#F5F4F7"/>
<circle cx="56" cy="632" r="8" fill="#F5F4F7"/>
<circle cx="104" cy="632" r="8" fill="white"/>
<circle cx="152" cy="632" r="8" fill="#F5F4F7"/>
<circle cx="200" cy="632" r="8" fill="white"/>
<circle cx="248" cy="632" r="8" fill="white"/>
<circle cx="296" cy="632" r="8" fill="#F5F4F7"/>
<circle cx="344" cy="632" r="8" fill="#F5F4F7"/>
<circle cx="8" cy="680" r="8" fill="white"/>
<circle cx="56" cy="680" r="8" fill="#F5F4F7"/>
<circle cx="104" cy="680" r="8" fill="#F5F4F7"/>
<circle cx="152" cy="680" r="8" fill="white"/>
<circle cx="200" cy="680" r="8" fill="#F5F4F7"/>
<circle cx="248" cy="680" r="8" fill="#F5F4F7"/>
<circle cx="296" cy="680" r="8" fill="#F5F4F7"/>
<circle cx="344" cy="680" r="8" fill="#F5F4F7"/>
<circle cx="8" cy="728" r="8" fill="#F5F4F7"/>
<circle cx="56" cy="728" r="8" fill="#F5F4F7"/>
<circle cx="104" cy="728" r="8" fill="white"/>
<circle cx="152" cy="728" r="8" fill="#F5F4F7"/>
<circle cx="200" cy="728" r="8" fill="#F5F4F7"/>
<circle cx="248" cy="728" r="8" fill="#F5F4F7"/>
<circle cx="296" cy="728" r="8" fill="white"/>
<circle cx="344" cy="728" r="8" fill="#F5F4F7"/>
<circle cx="8" cy="776" r="8" fill="#F5F4F7"/>
<circle cx="56" cy="776" r="8" fill="#F5F4F7"/>
<circle cx="104" cy="776" r="8" fill="white"/>
<circle cx="200" cy="776" r="8" fill="white"/>
<circle cx="248" cy="776" r="8" fill="#F5F4F7"/>
<circle cx="296" cy="776" r="8" fill="white"/>
<circle cx="344" cy="776" r="8" fill="#F5F4F7"/>
<circle cx="8" cy="824" r="8" fill="white"/>
<circle cx="56" cy="824" r="8" fill="#F5F4F7"/>
<circle cx="104" cy="824" r="8" fill="#F5F4F7"/>
<circle cx="152" cy="824" r="8" fill="#F5F4F7"/>
<circle cx="200" cy="824" r="8" fill="white"/>
<circle cx="248" cy="824" r="8" fill="#F5F4F7"/>
<circle cx="296" cy="824" r="8" fill="#F5F4F7"/>
<circle cx="344" cy="824" r="8" fill="#F5F4F7"/>
<circle cx="8" cy="872" r="8" fill="#F5F4F7"/>
<circle cx="56" cy="872" r="8" fill="white"/>
<circle cx="104" cy="872" r="8" fill="white"/>
<circle cx="152" cy="872" r="8" fill="#F5F4F7"/>
<circle cx="200" cy="872" r="8" fill="#F5F4F7"/>
<circle cx="248" cy="872" r="8" fill="#F5F4F7"/>
<circle cx="296" cy="872" r="8" fill="#F5F4F7"/>
<circle cx="344" cy="872" r="8" fill="white"/>
<circle cx="8" cy="920" r="8" fill="#F5F4F7"/>
<circle cx="56" cy="920" r="8" fill="#F5F4F7"/>
<circle cx="104" cy="920" r="8" fill="#F5F4F7"/>
<circle cx="152" cy="920" r="8" fill="#F5F4F7"/>
<circle cx="200" cy="920" r="8" fill="white"/>
<circle cx="248" cy="920" r="8" fill="white"/>
<circle cx="296" cy="920" r="8" fill="#FD4487"/>
<circle cx="344" cy="920" r="8" fill="#F5F4F7"/>
<circle cx="8" cy="968" r="8" fill="#F5F4F7"/>
<circle cx="56" cy="968" r="8" fill="white"/>
<circle cx="104" cy="968" r="8" fill="white"/>
<circle cx="152" cy="968" r="8" fill="#F5F4F7"/>
<circle cx="200" cy="968" r="8" fill="white"/>
<circle cx="248" cy="968" r="8" fill="#F5F4F7"/>
<circle cx="296" cy="968" r="8" fill="white"/>
<circle cx="344" cy="968" r="8" fill="#F5F4F7"/>
<circle cx="8" cy="1016" r="8" fill="#F5F4F7"/>
<circle cx="56" cy="1016" r="8" fill="white"/>
<circle cx="104" cy="1016" r="8" fill="#F5F4F7"/>
<circle cx="152" cy="1016" r="8" fill="#F5F4F7"/>
<circle cx="200" cy="1016" r="8" fill="#F5F4F7"/>
<circle cx="248" cy="1016" r="8" fill="#F5F4F7"/>
<circle cx="296" cy="1016" r="8" fill="#F5F4F7"/>
<circle cx="344" cy="1016" r="8" fill="#F5F4F7"/>
<circle cx="8" cy="1064" r="8" fill="#F5F4F7"/>
<circle cx="56" cy="1064" r="8" fill="#F5F4F7"/>
<circle cx="104" cy="1064" r="8" fill="#F5F4F7"/>
<circle cx="152" cy="1064" r="8" fill="#F5F4F7"/>
<circle cx="200" cy="1064" r="8" fill="white"/>
<circle cx="248" cy="1064" r="8" fill="#F5F4F7"/>
<circle cx="296" cy="1064" r="8" fill="#F5F4F7"/>
<circle cx="344" cy="1064" r="8" fill="#F5F4F7"/>
<circle cx="8" cy="1112" r="8" fill="#F5F4F7"/>
<circle cx="56" cy="1112" r="8" fill="#F5F4F7"/>
<circle cx="104" cy="1112" r="8" fill="#F5F4F7"/>
<circle cx="152" cy="1112" r="8" fill="#F5F4F7"/>
<circle cx="200" cy="1112" r="8" fill="#F5F4F7"/>
<circle cx="248" cy="1112" r="8" fill="white"/>
<circle cx="296" cy="1112" r="8" fill="#F5F4F7"/>
<circle cx="344" cy="1112" r="8" fill="#F5F4F7"/>
</svg>
