<svg width="1504" height="1120" viewBox="0 0 1504 1120" fill="none" xmlns="http://www.w3.org/2000/svg">
<circle cx="8" cy="8" r="8" fill="#F5F4F7"/>
<circle cx="56" cy="8" r="8" fill="white"/>
<circle cx="104" cy="8" r="8" fill="white"/>
<circle cx="152" cy="8" r="8" fill="#F5F4F7"/>
<circle cx="200" cy="8" r="8" fill="#F5F4F7"/>
<circle cx="248" cy="8" r="8" fill="#F5F4F7"/>
<circle cx="296" cy="8" r="8" fill="white"/>
<circle cx="344" cy="8" r="8" fill="white"/>
<circle cx="392" cy="8" r="8" fill="white"/>
<circle cx="440" cy="8" r="8" fill="#F5F4F7"/>
<circle cx="488" cy="8" r="8" fill="#F5F4F7"/>
<circle cx="536" cy="8" r="8" fill="#F5F4F7"/>
<circle cx="584" cy="8" r="8" fill="#F5F4F7"/>
<circle cx="632" cy="8" r="8" fill="#F5F4F7"/>
<circle cx="680" cy="8" r="8" fill="white"/>
<circle cx="728" cy="8" r="8" fill="#F5F4F7"/>
<circle cx="776" cy="8" r="8" fill="#F5F4F7"/>
<circle cx="824" cy="8" r="8" fill="#F5F4F7"/>
<circle cx="872" cy="8" r="8" fill="#F5F4F7"/>
<circle cx="920" cy="8" r="8" fill="#F5F4F7"/>
<circle cx="968" cy="8" r="8" fill="#F5F4F7"/>
<circle cx="1016" cy="8" r="8" fill="white"/>
<circle cx="1064" cy="8" r="8" fill="#F5F4F7"/>
<circle cx="1112" cy="8" r="8" fill="#F5F4F7"/>
<circle cx="1160" cy="8" r="8" fill="#F5F4F7"/>
<circle cx="1208" cy="8" r="8" fill="#F5F4F7"/>
<circle cx="1256" cy="8" r="8" fill="#F5F4F7"/>
<circle cx="1304" cy="8" r="8" fill="white"/>
<circle cx="1352" cy="8" r="8" fill="white"/>
<circle cx="1400" cy="8" r="8" fill="#F5F4F7"/>
<circle cx="1448" cy="8" r="8" fill="#F5F4F7"/>
<circle cx="1496" cy="8" r="8" fill="#F5F4F7"/>
<circle cx="8" cy="56" r="8" fill="#F5F4F7"/>
<circle cx="56" cy="56" r="8" fill="#F5F4F7"/>
<circle cx="104" cy="56" r="8" fill="white"/>
<circle cx="152" cy="56" r="8" fill="#F5F4F7"/>
<circle cx="200" cy="56" r="8" fill="#F5F4F7"/>
<circle cx="248" cy="56" r="8" fill="#F5F4F7"/>
<circle cx="296" cy="56" r="8" fill="#F5F4F7"/>
<circle cx="344" cy="56" r="8" fill="#F5F4F7"/>
<circle cx="392" cy="56" r="8" fill="white"/>
<circle cx="440" cy="56" r="8" fill="#F5F4F7"/>
<circle cx="488" cy="56" r="8" fill="#F5F4F7"/>
<circle cx="536" cy="56" r="8" fill="#F5F4F7"/>
<circle cx="584" cy="56" r="8" fill="#F5F4F7"/>
<circle cx="632" cy="56" r="8" fill="white"/>
<circle cx="680" cy="56" r="8" fill="white"/>
<circle cx="728" cy="56" r="8" fill="white"/>
<circle cx="776" cy="56" r="8" fill="#F5F4F7"/>
<circle cx="824" cy="56" r="8" fill="#F5F4F7"/>
<circle cx="872" cy="56" r="8" fill="#F5F4F7"/>
<circle cx="920" cy="56" r="8" fill="white"/>
<circle cx="968" cy="56" r="8" fill="#F5F4F7"/>
<circle cx="1016" cy="56" r="8" fill="white"/>
<circle cx="1064" cy="56" r="8" fill="#F5F4F7"/>
<circle cx="1112" cy="56" r="8" fill="#F5F4F7"/>
<circle cx="1160" cy="56" r="8" fill="white"/>
<circle cx="1208" cy="56" r="8" fill="#F5F4F7"/>
<circle cx="1256" cy="56" r="8" fill="#F5F4F7"/>
<circle cx="1304" cy="56" r="8" fill="#F5F4F7"/>
<circle cx="1352" cy="56" r="8" fill="#F5F4F7"/>
<circle cx="1400" cy="56" r="8" fill="#F5F4F7"/>
<circle cx="1448" cy="56" r="8" fill="#F5F4F7"/>
<circle cx="1496" cy="56" r="8" fill="#F5F4F7"/>
<circle cx="8" cy="104" r="8" fill="#F5F4F7"/>
<circle cx="56" cy="104" r="8" fill="white"/>
<circle cx="104" cy="104" r="8" fill="white"/>
<circle cx="152" cy="104" r="8" fill="#F5F4F7"/>
<circle cx="200" cy="104" r="8" fill="#F5F4F7"/>
<circle cx="248" cy="104" r="8" fill="white"/>
<circle cx="296" cy="104" r="8" fill="white"/>
<circle cx="344" cy="104" r="8" fill="white"/>
<circle cx="392" cy="104" r="8" fill="#F5F4F7"/>
<circle cx="440" cy="104" r="8" fill="#F5F4F7"/>
<circle cx="488" cy="104" r="8" fill="white"/>
<circle cx="536" cy="104" r="8" fill="#F5F4F7"/>
<circle cx="584" cy="104" r="8" fill="white"/>
<circle cx="632" cy="104" r="8" fill="#F5F4F7"/>
<circle cx="680" cy="104" r="8" fill="#F5F4F7"/>
<circle cx="728" cy="104" r="8" fill="#F5F4F7"/>
<circle cx="776" cy="104" r="8" fill="#F5F4F7"/>
<circle cx="824" cy="104" r="8" fill="#F5F4F7"/>
<circle cx="872" cy="104" r="8" fill="white"/>
<circle cx="920" cy="104" r="8" fill="#F5F4F7"/>
<circle cx="968" cy="104" r="8" fill="#F5F4F7"/>
<circle cx="1016" cy="104" r="8" fill="#F5F4F7"/>
<circle cx="1064" cy="104" r="8" fill="#F5F4F7"/>
<circle cx="1112" cy="104" r="8" fill="#F5F4F7"/>
<circle cx="1160" cy="104" r="8" fill="#F5F4F7"/>
<circle cx="1208" cy="104" r="8" fill="#F5F4F7"/>
<circle cx="1256" cy="104" r="8" fill="#F5F4F7"/>
<circle cx="1304" cy="104" r="8" fill="white"/>
<circle cx="1352" cy="104" r="8" fill="white"/>
<circle cx="1400" cy="104" r="8" fill="white"/>
<circle cx="1448" cy="104" r="8" fill="white"/>
<circle cx="1496" cy="104" r="8" fill="#F5F4F7"/>
<circle cx="8" cy="152" r="8" fill="#F5F4F7"/>
<circle cx="56" cy="152" r="8" fill="#F5F4F7"/>
<circle cx="104" cy="152" r="8" fill="#F5F4F7"/>
<circle cx="152" cy="152" r="8" fill="#F5F4F7"/>
<circle cx="200" cy="152" r="8" fill="white"/>
<circle cx="248" cy="152" r="8" fill="#F5F4F7"/>
<circle cx="296" cy="152" r="8" fill="white"/>
<circle cx="344" cy="152" r="8" fill="#F5F4F7"/>
<circle cx="392" cy="152" r="8" fill="#F5F4F7"/>
<circle cx="440" cy="152" r="8" fill="#F5F4F7"/>
<circle cx="488" cy="152" r="8" fill="#F5F4F7"/>
<circle cx="536" cy="152" r="8" fill="white"/>
<circle cx="584" cy="152" r="8" fill="#F5F4F7"/>
<circle cx="632" cy="152" r="8" fill="white"/>
<circle cx="680" cy="152" r="8" fill="#F5F4F7"/>
<circle cx="728" cy="152" r="8" fill="#F5F4F7"/>
<circle cx="776" cy="152" r="8" fill="#F5F4F7"/>
<circle cx="824" cy="152" r="8" fill="#F5F4F7"/>
<circle cx="872" cy="152" r="8" fill="#F5F4F7"/>
<circle cx="920" cy="152" r="8" fill="#F5F4F7"/>
<circle cx="968" cy="152" r="8" fill="white"/>
<circle cx="1016" cy="152" r="8" fill="#F5F4F7"/>
<circle cx="1064" cy="152" r="8" fill="#F5F4F7"/>
<circle cx="1112" cy="152" r="8" fill="#F5F4F7"/>
<circle cx="1160" cy="152" r="8" fill="#F5F4F7"/>
<circle cx="1208" cy="152" r="8" fill="white"/>
<circle cx="1256" cy="152" r="8" fill="white"/>
<circle cx="1304" cy="152" r="8" fill="#F5F4F7"/>
<circle cx="1352" cy="152" r="8" fill="#F5F4F7"/>
<circle cx="1400" cy="152" r="8" fill="#F5F4F7"/>
<circle cx="1448" cy="152" r="8" fill="#F5F4F7"/>
<circle cx="1496" cy="152" r="8" fill="#F5F4F7"/>
<circle cx="8" cy="200" r="8" fill="#F5F4F7"/>
<circle cx="56" cy="200" r="8" fill="#F5F4F7"/>
<circle cx="104" cy="200" r="8" fill="white"/>
<circle cx="152" cy="200" r="8" fill="#F5F4F7"/>
<circle cx="200" cy="200" r="8" fill="#F5F4F7"/>
<circle cx="248" cy="200" r="8" fill="#F5F4F7"/>
<circle cx="296" cy="200" r="8" fill="#F5F4F7"/>
<circle cx="344" cy="200" r="8" fill="#F5F4F7"/>
<circle cx="392" cy="200" r="8" fill="#F5F4F7"/>
<circle cx="440" cy="200" r="8" fill="#F5F4F7"/>
<circle cx="488" cy="200" r="8" fill="#F5F4F7"/>
<circle cx="536" cy="200" r="8" fill="white"/>
<circle cx="584" cy="200" r="8" fill="#F5F4F7"/>
<circle cx="632" cy="200" r="8" fill="#F5F4F7"/>
<circle cx="680" cy="200" r="8" fill="#F5F4F7"/>
<circle cx="728" cy="200" r="8" fill="#F5F4F7"/>
<circle cx="776" cy="200" r="8" fill="#F5F4F7"/>
<circle cx="824" cy="200" r="8" fill="#F5F4F7"/>
<circle cx="872" cy="200" r="8" fill="#F5F4F7"/>
<circle cx="920" cy="200" r="8" fill="#F5F4F7"/>
<circle cx="968" cy="200" r="8" fill="white"/>
<circle cx="1016" cy="200" r="8" fill="#F5F4F7"/>
<circle cx="1064" cy="200" r="8" fill="#F5F4F7"/>
<circle cx="1112" cy="200" r="8" fill="#F5F4F7"/>
<circle cx="1160" cy="200" r="8" fill="#F5F4F7"/>
<circle cx="1208" cy="200" r="8" fill="white"/>
<circle cx="1256" cy="200" r="8" fill="white"/>
<circle cx="1304" cy="200" r="8" fill="#F5F4F7"/>
<circle cx="1352" cy="200" r="8" fill="#F5F4F7"/>
<circle cx="1400" cy="200" r="8" fill="#F5F4F7"/>
<circle cx="1448" cy="200" r="8" fill="#F5F4F7"/>
<circle cx="1496" cy="200" r="8" fill="#F5F4F7"/>
<circle cx="8" cy="248" r="8" fill="#F5F4F7"/>
<circle cx="56" cy="248" r="8" fill="white"/>
<circle cx="104" cy="248" r="8" fill="#F5F4F7"/>
<circle cx="152" cy="248" r="8" fill="#F5F4F7"/>
<circle cx="200" cy="248" r="8" fill="#F5F4F7"/>
<circle cx="248" cy="248" r="8" fill="#F5F4F7"/>
<circle cx="296" cy="248" r="8" fill="white"/>
<circle cx="344" cy="248" r="8" fill="#F5F4F7"/>
<circle cx="392" cy="248" r="8" fill="#F5F4F7"/>
<circle cx="440" cy="248" r="8" fill="#F5F4F7"/>
<circle cx="488" cy="248" r="8" fill="#F5F4F7"/>
<circle cx="536" cy="248" r="8" fill="white"/>
<circle cx="584" cy="248" r="8" fill="white"/>
<circle cx="632" cy="248" r="8" fill="#F5F4F7"/>
<circle cx="680" cy="248" r="8" fill="#F5F4F7"/>
<circle cx="728" cy="248" r="8" fill="#F5F4F7"/>
<circle cx="776" cy="248" r="8" fill="white"/>
<circle cx="824" cy="248" r="8" fill="white"/>
<circle cx="872" cy="248" r="8" fill="#F5F4F7"/>
<circle cx="920" cy="248" r="8" fill="#F5F4F7"/>
<circle cx="968" cy="248" r="8" fill="#F5F4F7"/>
<circle cx="1016" cy="248" r="8" fill="white"/>
<circle cx="1064" cy="248" r="8" fill="white"/>
<circle cx="1112" cy="248" r="8" fill="#F5F4F7"/>
<circle cx="1160" cy="248" r="8" fill="#F5F4F7"/>
<circle cx="1208" cy="248" r="8" fill="white"/>
<circle cx="1256" cy="248" r="8" fill="#F5F4F7"/>
<circle cx="1304" cy="248" r="8" fill="#F5F4F7"/>
<circle cx="1352" cy="248" r="8" fill="#F5F4F7"/>
<circle cx="1400" cy="248" r="8" fill="#F5F4F7"/>
<circle cx="1448" cy="248" r="8" fill="#F5F4F7"/>
<circle cx="1496" cy="248" r="8" fill="#F5F4F7"/>
<circle cx="8" cy="296" r="8" fill="white"/>
<circle cx="56" cy="296" r="8" fill="#F5F4F7"/>
<circle cx="104" cy="296" r="8" fill="#F5F4F7"/>
<circle cx="152" cy="296" r="8" fill="#F5F4F7"/>
<circle cx="200" cy="296" r="8" fill="#F5F4F7"/>
<circle cx="248" cy="296" r="8" fill="white"/>
<circle cx="296" cy="296" r="8" fill="#F5F4F7"/>
<circle cx="344" cy="296" r="8" fill="#F5F4F7"/>
<circle cx="392" cy="296" r="8" fill="#F5F4F7"/>
<circle cx="440" cy="296" r="8" fill="white"/>
<circle cx="488" cy="296" r="8" fill="#F5F4F7"/>
<circle cx="536" cy="296" r="8" fill="#F5F4F7"/>
<circle cx="584" cy="296" r="8" fill="#F5F4F7"/>
<circle cx="632" cy="296" r="8" fill="white"/>
<circle cx="680" cy="296" r="8" fill="#F5F4F7"/>
<circle cx="728" cy="296" r="8" fill="white"/>
<circle cx="776" cy="296" r="8" fill="#F5F4F7"/>
<circle cx="824" cy="296" r="8" fill="white"/>
<circle cx="872" cy="296" r="8" fill="white"/>
<circle cx="920" cy="296" r="8" fill="white"/>
<circle cx="968" cy="296" r="8" fill="#F5F4F7"/>
<circle cx="1016" cy="296" r="8" fill="#F5F4F7"/>
<circle cx="1064" cy="296" r="8" fill="#F5F4F7"/>
<circle cx="1112" cy="296" r="8" fill="#F5F4F7"/>
<circle cx="1160" cy="296" r="8" fill="#F5F4F7"/>
<circle cx="1208" cy="296" r="8" fill="#F5F4F7"/>
<circle cx="1256" cy="296" r="8" fill="#F5F4F7"/>
<circle cx="1304" cy="296" r="8" fill="#F5F4F7"/>
<circle cx="1352" cy="296" r="8" fill="#F5F4F7"/>
<circle cx="1400" cy="296" r="8" fill="#F5F4F7"/>
<circle cx="1448" cy="296" r="8" fill="#F5F4F7"/>
<circle cx="1496" cy="296" r="8" fill="#F5F4F7"/>
<circle cx="8" cy="344" r="8" fill="#F5F4F7"/>
<circle cx="56" cy="344" r="8" fill="#F5F4F7"/>
<circle cx="104" cy="344" r="8" fill="white"/>
<circle cx="152" cy="344" r="8" fill="#F5F4F7"/>
<circle cx="200" cy="344" r="8" fill="#F5F4F7"/>
<circle cx="248" cy="344" r="8" fill="white"/>
<circle cx="296" cy="344" r="8" fill="#F5F4F7"/>
<circle cx="344" cy="344" r="8" fill="#F5F4F7"/>
<circle cx="392" cy="344" r="8" fill="#F5F4F7"/>
<circle cx="440" cy="344" r="8" fill="#F5F4F7"/>
<circle cx="488" cy="344" r="8" fill="#F5F4F7"/>
<circle cx="536" cy="344" r="8" fill="white"/>
<circle cx="584" cy="344" r="8" fill="white"/>
<circle cx="632" cy="344" r="8" fill="#F5F4F7"/>
<circle cx="680" cy="344" r="8" fill="#F5F4F7"/>
<circle cx="728" cy="344" r="8" fill="#F5F4F7"/>
<circle cx="776" cy="344" r="8" fill="white"/>
<circle cx="824" cy="344" r="8" fill="#F5F4F7"/>
<circle cx="872" cy="344" r="8" fill="#F5F4F7"/>
<circle cx="920" cy="344" r="8" fill="#F5F4F7"/>
<circle cx="968" cy="344" r="8" fill="#F5F4F7"/>
<circle cx="1016" cy="344" r="8" fill="#F5F4F7"/>
<circle cx="1064" cy="344" r="8" fill="#F5F4F7"/>
<circle cx="1112" cy="344" r="8" fill="#F5F4F7"/>
<circle cx="1160" cy="344" r="8" fill="#F5F4F7"/>
<circle cx="1208" cy="344" r="8" fill="#F5F4F7"/>
<circle cx="1256" cy="344" r="8" fill="#F5F4F7"/>
<circle cx="1304" cy="344" r="8" fill="#F5F4F7"/>
<circle cx="1352" cy="344" r="8" fill="#F5F4F7"/>
<circle cx="1400" cy="344" r="8" fill="#F5F4F7"/>
<circle cx="1448" cy="344" r="8" fill="white"/>
<circle cx="1496" cy="344" r="8" fill="#F5F4F7"/>
<circle cx="8" cy="392" r="8" fill="white"/>
<circle cx="56" cy="392" r="8" fill="#F5F4F7"/>
<circle cx="104" cy="392" r="8" fill="white"/>
<circle cx="152" cy="392" r="8" fill="#F5F4F7"/>
<circle cx="200" cy="392" r="8" fill="#F5F4F7"/>
<circle cx="248" cy="392" r="8" fill="#F5F4F7"/>
<circle cx="296" cy="392" r="8" fill="#F5F4F7"/>
<circle cx="344" cy="392" r="8" fill="#F5F4F7"/>
<circle cx="392" cy="392" r="8" fill="#F5F4F7"/>
<circle cx="440" cy="392" r="8" fill="white"/>
<circle cx="488" cy="392" r="8" fill="white"/>
<circle cx="536" cy="392" r="8" fill="#F5F4F7"/>
<circle cx="584" cy="392" r="8" fill="#F5F4F7"/>
<circle cx="632" cy="392" r="8" fill="#F5F4F7"/>
<circle cx="680" cy="392" r="8" fill="#F5F4F7"/>
<circle cx="728" cy="392" r="8" fill="#F5F4F7"/>
<circle cx="776" cy="392" r="8" fill="white"/>
<circle cx="824" cy="392" r="8" fill="#F5F4F7"/>
<circle cx="872" cy="392" r="8" fill="#F5F4F7"/>
<circle cx="920" cy="392" r="8" fill="#F5F4F7"/>
<circle cx="968" cy="392" r="8" fill="#F5F4F7"/>
<circle cx="1016" cy="392" r="8" fill="white"/>
<circle cx="1064" cy="392" r="8" fill="white"/>
<circle cx="1112" cy="392" r="8" fill="#F5F4F7"/>
<circle cx="1160" cy="392" r="8" fill="white"/>
<circle cx="1208" cy="392" r="8" fill="#F5F4F7"/>
<circle cx="1256" cy="392" r="8" fill="white"/>
<circle cx="1304" cy="392" r="8" fill="#F5F4F7"/>
<circle cx="1352" cy="392" r="8" fill="#F5F4F7"/>
<circle cx="1400" cy="392" r="8" fill="#F5F4F7"/>
<circle cx="1448" cy="392" r="8" fill="white"/>
<circle cx="1496" cy="392" r="8" fill="#F5F4F7"/>
<circle cx="8" cy="440" r="8" fill="#F5F4F7"/>
<circle cx="56" cy="440" r="8" fill="#F5F4F7"/>
<circle cx="104" cy="440" r="8" fill="#F5F4F7"/>
<circle cx="152" cy="440" r="8" fill="#F5F4F7"/>
<circle cx="200" cy="440" r="8" fill="white"/>
<circle cx="248" cy="440" r="8" fill="#F5F4F7"/>
<circle cx="296" cy="440" r="8" fill="#F5F4F7"/>
<circle cx="344" cy="440" r="8" fill="#F5F4F7"/>
<circle cx="392" cy="440" r="8" fill="white"/>
<circle cx="440" cy="440" r="8" fill="#F5F4F7"/>
<circle cx="488" cy="440" r="8" fill="white"/>
<circle cx="536" cy="440" r="8" fill="#F5F4F7"/>
<circle cx="584" cy="440" r="8" fill="white"/>
<circle cx="632" cy="440" r="8" fill="#F5F4F7"/>
<circle cx="680" cy="440" r="8" fill="white"/>
<circle cx="728" cy="440" r="8" fill="#F5F4F7"/>
<circle cx="776" cy="440" r="8" fill="#F5F4F7"/>
<circle cx="824" cy="440" r="8" fill="#F5F4F7"/>
<circle cx="872" cy="440" r="8" fill="#F5F4F7"/>
<circle cx="920" cy="440" r="8" fill="#F5F4F7"/>
<circle cx="968" cy="440" r="8" fill="#F5F4F7"/>
<circle cx="1016" cy="440" r="8" fill="#F5F4F7"/>
<circle cx="1064" cy="440" r="8" fill="white"/>
<circle cx="1112" cy="440" r="8" fill="white"/>
<circle cx="1160" cy="440" r="8" fill="#F5F4F7"/>
<circle cx="1208" cy="440" r="8" fill="#F5F4F7"/>
<circle cx="1256" cy="440" r="8" fill="#F5F4F7"/>
<circle cx="1304" cy="440" r="8" fill="white"/>
<circle cx="1352" cy="440" r="8" fill="#F5F4F7"/>
<circle cx="1400" cy="440" r="8" fill="#F5F4F7"/>
<circle cx="1448" cy="440" r="8" fill="#F5F4F7"/>
<circle cx="1496" cy="440" r="8" fill="#F5F4F7"/>
<circle cx="8" cy="488" r="8" fill="#F5F4F7"/>
<circle cx="56" cy="488" r="8" fill="#F5F4F7"/>
<circle cx="104" cy="488" r="8" fill="#F5F4F7"/>
<circle cx="152" cy="488" r="8" fill="white"/>
<circle cx="200" cy="488" r="8" fill="white"/>
<circle cx="248" cy="488" r="8" fill="#F5F4F7"/>
<circle cx="296" cy="488" r="8" fill="#F5F4F7"/>
<circle cx="344" cy="488" r="8" fill="#F5F4F7"/>
<circle cx="392" cy="488" r="8" fill="#F5F4F7"/>
<circle cx="440" cy="488" r="8" fill="#F5F4F7"/>
<circle cx="488" cy="488" r="8" fill="white"/>
<circle cx="536" cy="488" r="8" fill="#F5F4F7"/>
<circle cx="584" cy="488" r="8" fill="white"/>
<circle cx="632" cy="488" r="8" fill="white"/>
<circle cx="680" cy="488" r="8" fill="#F5F4F7"/>
<circle cx="728" cy="488" r="8" fill="#F5F4F7"/>
<circle cx="776" cy="488" r="8" fill="#F5F4F7"/>
<circle cx="824" cy="488" r="8" fill="#F5F4F7"/>
<circle cx="872" cy="488" r="8" fill="#F5F4F7"/>
<circle cx="920" cy="488" r="8" fill="#F5F4F7"/>
<circle cx="968" cy="488" r="8" fill="#F5F4F7"/>
<circle cx="1016" cy="488" r="8" fill="#F5F4F7"/>
<circle cx="1064" cy="488" r="8" fill="#F5F4F7"/>
<circle cx="1112" cy="488" r="8" fill="#F5F4F7"/>
<circle cx="1160" cy="488" r="8" fill="white"/>
<circle cx="1208" cy="488" r="8" fill="#F5F4F7"/>
<circle cx="1256" cy="488" r="8" fill="#F5F4F7"/>
<circle cx="1304" cy="488" r="8" fill="#F5F4F7"/>
<circle cx="1352" cy="488" r="8" fill="#F5F4F7"/>
<circle cx="1400" cy="488" r="8" fill="white"/>
<circle cx="1448" cy="488" r="8" fill="#F5F4F7"/>
<circle cx="1496" cy="488" r="8" fill="#F5F4F7"/>
<circle cx="8" cy="536" r="8" fill="#F5F4F7"/>
<circle cx="56" cy="536" r="8" fill="#F5F4F7"/>
<circle cx="104" cy="536" r="8" fill="white"/>
<circle cx="152" cy="536" r="8" fill="#F5F4F7"/>
<circle cx="200" cy="536" r="8" fill="#F5F4F7"/>
<circle cx="248" cy="536" r="8" fill="#F5F4F7"/>
<circle cx="296" cy="536" r="8" fill="white"/>
<circle cx="344" cy="536" r="8" fill="#F5F4F7"/>
<circle cx="392" cy="536" r="8" fill="#F5F4F7"/>
<circle cx="440" cy="536" r="8" fill="#F5F4F7"/>
<circle cx="488" cy="536" r="8" fill="#F5F4F7"/>
<circle cx="536" cy="536" r="8" fill="#F5F4F7"/>
<circle cx="584" cy="536" r="8" fill="#F5F4F7"/>
<circle cx="632" cy="536" r="8" fill="white"/>
<circle cx="680" cy="536" r="8" fill="#44FDBA"/>
<circle cx="728" cy="536" r="8" fill="#F5F4F7"/>
<circle cx="776" cy="536" r="8" fill="#F5F4F7"/>
<circle cx="824" cy="536" r="8" fill="white"/>
<circle cx="872" cy="536" r="8" fill="#F5F4F7"/>
<circle cx="920" cy="536" r="8" fill="#F5F4F7"/>
<circle cx="968" cy="536" r="8" fill="#F5F4F7"/>
<circle cx="1016" cy="536" r="8" fill="#F5F4F7"/>
<circle cx="1064" cy="536" r="8" fill="white"/>
<circle cx="1112" cy="536" r="8" fill="#F5F4F7"/>
<circle cx="1160" cy="536" r="8" fill="white"/>
<circle cx="1208" cy="536" r="8" fill="white"/>
<circle cx="1256" cy="536" r="8" fill="#F5F4F7"/>
<circle cx="1304" cy="536" r="8" fill="#F5F4F7"/>
<circle cx="1352" cy="536" r="8" fill="#F5F4F7"/>
<circle cx="1400" cy="536" r="8" fill="#F5F4F7"/>
<circle cx="1448" cy="536" r="8" fill="white"/>
<circle cx="1496" cy="536" r="8" fill="#F5F4F7"/>
<circle cx="8" cy="584" r="8" fill="#F5F4F7"/>
<circle cx="56" cy="584" r="8" fill="#F5F4F7"/>
<circle cx="104" cy="584" r="8" fill="#F5F4F7"/>
<circle cx="152" cy="584" r="8" fill="white"/>
<circle cx="200" cy="584" r="8" fill="#F5F4F7"/>
<circle cx="248" cy="584" r="8" fill="#F5F4F7"/>
<circle cx="296" cy="584" r="8" fill="#F5F4F7"/>
<circle cx="344" cy="584" r="8" fill="white"/>
<circle cx="392" cy="584" r="8" fill="#F5F4F7"/>
<circle cx="440" cy="584" r="8" fill="#F5F4F7"/>
<circle cx="488" cy="584" r="8" fill="#F5F4F7"/>
<circle cx="536" cy="584" r="8" fill="#F5F4F7"/>
<circle cx="584" cy="584" r="8" fill="white"/>
<circle cx="632" cy="584" r="8" fill="#F5F4F7"/>
<circle cx="680" cy="584" r="8" fill="#F5F4F7"/>
<circle cx="728" cy="584" r="8" fill="white"/>
<circle cx="776" cy="584" r="8" fill="#F5F4F7"/>
<circle cx="824" cy="584" r="8" fill="white"/>
<circle cx="872" cy="584" r="8" fill="#F5F4F7"/>
<circle cx="920" cy="584" r="8" fill="#F5F4F7"/>
<circle cx="968" cy="584" r="8" fill="#F5F4F7"/>
<circle cx="1016" cy="584" r="8" fill="#F5F4F7"/>
<circle cx="1064" cy="584" r="8" fill="white"/>
<circle cx="1112" cy="584" r="8" fill="#F5F4F7"/>
<circle cx="1160" cy="584" r="8" fill="#F5F4F7"/>
<circle cx="1208" cy="584" r="8" fill="#F5F4F7"/>
<circle cx="1256" cy="584" r="8" fill="#F5F4F7"/>
<circle cx="1304" cy="584" r="8" fill="#F5F4F7"/>
<circle cx="1352" cy="584" r="8" fill="#F5F4F7"/>
<circle cx="1400" cy="584" r="8" fill="#F5F4F7"/>
<circle cx="1448" cy="584" r="8" fill="white"/>
<circle cx="1496" cy="584" r="8" fill="#F5F4F7"/>
<circle cx="8" cy="632" r="8" fill="#F5F4F7"/>
<circle cx="56" cy="632" r="8" fill="#F5F4F7"/>
<circle cx="104" cy="632" r="8" fill="white"/>
<circle cx="152" cy="632" r="8" fill="#F5F4F7"/>
<circle cx="200" cy="632" r="8" fill="white"/>
<circle cx="248" cy="632" r="8" fill="white"/>
<circle cx="296" cy="632" r="8" fill="#F5F4F7"/>
<circle cx="344" cy="632" r="8" fill="#F5F4F7"/>
<circle cx="392" cy="632" r="8" fill="#F5F4F7"/>
<circle cx="440" cy="632" r="8" fill="#F5F4F7"/>
<circle cx="488" cy="632" r="8" fill="#F5F4F7"/>
<circle cx="536" cy="632" r="8" fill="white"/>
<circle cx="584" cy="632" r="8" fill="white"/>
<circle cx="632" cy="632" r="8" fill="white"/>
<circle cx="680" cy="632" r="8" fill="#F5F4F7"/>
<circle cx="728" cy="632" r="8" fill="white"/>
<circle cx="776" cy="632" r="8" fill="#F5F4F7"/>
<circle cx="824" cy="632" r="8" fill="#F5F4F7"/>
<circle cx="872" cy="632" r="8" fill="#F5F4F7"/>
<circle cx="920" cy="632" r="8" fill="#F5F4F7"/>
<circle cx="968" cy="632" r="8" fill="#F5F4F7"/>
<circle cx="1016" cy="632" r="8" fill="#F5F4F7"/>
<circle cx="1064" cy="632" r="8" fill="white"/>
<circle cx="1112" cy="632" r="8" fill="#F5F4F7"/>
<circle cx="1160" cy="632" r="8" fill="#F5F4F7"/>
<circle cx="1208" cy="632" r="8" fill="#F5F4F7"/>
<circle cx="1256" cy="632" r="8" fill="#F5F4F7"/>
<circle cx="1304" cy="632" r="8" fill="#F5F4F7"/>
<circle cx="1352" cy="632" r="8" fill="white"/>
<circle cx="1400" cy="632" r="8" fill="#F5F4F7"/>
<circle cx="1448" cy="632" r="8" fill="#F5F4F7"/>
<circle cx="1496" cy="632" r="8" fill="#F5F4F7"/>
<circle cx="8" cy="680" r="8" fill="white"/>
<circle cx="56" cy="680" r="8" fill="#F5F4F7"/>
<circle cx="104" cy="680" r="8" fill="#F5F4F7"/>
<circle cx="152" cy="680" r="8" fill="white"/>
<circle cx="200" cy="680" r="8" fill="#F5F4F7"/>
<circle cx="248" cy="680" r="8" fill="#F5F4F7"/>
<circle cx="296" cy="680" r="8" fill="#F5F4F7"/>
<circle cx="344" cy="680" r="8" fill="#F5F4F7"/>
<circle cx="392" cy="680" r="8" fill="#F5F4F7"/>
<circle cx="440" cy="680" r="8" fill="#F5F4F7"/>
<circle cx="488" cy="680" r="8" fill="#F5F4F7"/>
<circle cx="536" cy="680" r="8" fill="#F5F4F7"/>
<circle cx="584" cy="680" r="8" fill="white"/>
<circle cx="632" cy="680" r="8" fill="white"/>
<circle cx="680" cy="680" r="8" fill="#F5F4F7"/>
<circle cx="728" cy="680" r="8" fill="white"/>
<circle cx="776" cy="680" r="8" fill="#F5F4F7"/>
<circle cx="824" cy="680" r="8" fill="#F5F4F7"/>
<circle cx="872" cy="680" r="8" fill="#F5F4F7"/>
<circle cx="920" cy="680" r="8" fill="#F5F4F7"/>
<circle cx="968" cy="680" r="8" fill="#F5F4F7"/>
<circle cx="1016" cy="680" r="8" fill="white"/>
<circle cx="1064" cy="680" r="8" fill="#F5F4F7"/>
<circle cx="1112" cy="680" r="8" fill="white"/>
<circle cx="1160" cy="680" r="8" fill="#F5F4F7"/>
<circle cx="1208" cy="680" r="8" fill="#F5F4F7"/>
<circle cx="1256" cy="680" r="8" fill="white"/>
<circle cx="1304" cy="680" r="8" fill="#F5F4F7"/>
<circle cx="1352" cy="680" r="8" fill="#F5F4F7"/>
<circle cx="1400" cy="680" r="8" fill="#F5F4F7"/>
<circle cx="1448" cy="680" r="8" fill="#F5F4F7"/>
<circle cx="1496" cy="680" r="8" fill="#F5F4F7"/>
<circle cx="8" cy="728" r="8" fill="#F5F4F7"/>
<circle cx="56" cy="728" r="8" fill="#F5F4F7"/>
<circle cx="104" cy="728" r="8" fill="white"/>
<circle cx="152" cy="728" r="8" fill="#F5F4F7"/>
<circle cx="200" cy="728" r="8" fill="#F5F4F7"/>
<circle cx="248" cy="728" r="8" fill="#F5F4F7"/>
<circle cx="296" cy="728" r="8" fill="white"/>
<circle cx="344" cy="728" r="8" fill="#F5F4F7"/>
<circle cx="392" cy="728" r="8" fill="#F5F4F7"/>
<circle cx="440" cy="728" r="8" fill="#F5F4F7"/>
<circle cx="488" cy="728" r="8" fill="#F5F4F7"/>
<circle cx="536" cy="728" r="8" fill="#F5F4F7"/>
<circle cx="584" cy="728" r="8" fill="#F5F4F7"/>
<circle cx="632" cy="728" r="8" fill="#F5F4F7"/>
<circle cx="680" cy="728" r="8" fill="white"/>
<circle cx="728" cy="728" r="8" fill="#F5F4F7"/>
<circle cx="776" cy="728" r="8" fill="#F5F4F7"/>
<circle cx="824" cy="728" r="8" fill="#F5F4F7"/>
<circle cx="872" cy="728" r="8" fill="#F5F4F7"/>
<circle cx="920" cy="728" r="8" fill="#F5F4F7"/>
<circle cx="968" cy="728" r="8" fill="#F5F4F7"/>
<circle cx="1016" cy="728" r="8" fill="#F5F4F7"/>
<circle cx="1064" cy="728" r="8" fill="#F5F4F7"/>
<circle cx="1112" cy="728" r="8" fill="#F5F4F7"/>
<circle cx="1160" cy="728" r="8" fill="#F5F4F7"/>
<circle cx="1208" cy="728" r="8" fill="#FDD444"/>
<circle cx="1256" cy="728" r="8" fill="#F5F4F7"/>
<circle cx="1304" cy="728" r="8" fill="white"/>
<circle cx="1352" cy="728" r="8" fill="#F5F4F7"/>
<circle cx="1400" cy="728" r="8" fill="white"/>
<circle cx="1448" cy="728" r="8" fill="white"/>
<circle cx="1496" cy="728" r="8" fill="white"/>
<circle cx="8" cy="776" r="8" fill="#F5F4F7"/>
<circle cx="56" cy="776" r="8" fill="#F5F4F7"/>
<circle cx="104" cy="776" r="8" fill="white"/>
<circle cx="152" cy="776" r="20" fill="#7D44FD"/>
<circle cx="200" cy="776" r="8" fill="white"/>
<circle cx="248" cy="776" r="8" fill="#F5F4F7"/>
<circle cx="296" cy="776" r="8" fill="white"/>
<circle cx="344" cy="776" r="8" fill="#F5F4F7"/>
<circle cx="392" cy="776" r="8" fill="#F5F4F7"/>
<circle cx="440" cy="776" r="8" fill="white"/>
<circle cx="488" cy="776" r="8" fill="white"/>
<circle cx="536" cy="776" r="8" fill="#F5F4F7"/>
<circle cx="584" cy="776" r="8" fill="#F5F4F7"/>
<circle cx="632" cy="776" r="8" fill="#F5F4F7"/>
<circle cx="680" cy="776" r="8" fill="#F5F4F7"/>
<circle cx="728" cy="776" r="8" fill="white"/>
<circle cx="776" cy="776" r="8" fill="#F5F4F7"/>
<circle cx="824" cy="776" r="8" fill="#F5F4F7"/>
<circle cx="872" cy="776" r="8" fill="#F5F4F7"/>
<circle cx="920" cy="776" r="8" fill="#F5F4F7"/>
<circle cx="968" cy="776" r="8" fill="#F5F4F7"/>
<circle cx="1016" cy="776" r="8" fill="#F5F4F7"/>
<circle cx="1064" cy="776" r="8" fill="#F5F4F7"/>
<circle cx="1112" cy="776" r="8" fill="white"/>
<circle cx="1160" cy="776" r="8" fill="#F5F4F7"/>
<circle cx="1208" cy="776" r="8" fill="#F5F4F7"/>
<circle cx="1256" cy="776" r="8" fill="#F5F4F7"/>
<circle cx="1304" cy="776" r="8" fill="#F5F4F7"/>
<circle cx="1352" cy="776" r="8" fill="#F5F4F7"/>
<circle cx="1400" cy="776" r="8" fill="#F5F4F7"/>
<circle cx="1448" cy="776" r="8" fill="#F5F4F7"/>
<circle cx="1496" cy="776" r="8" fill="white"/>
<circle cx="8" cy="824" r="8" fill="white"/>
<circle cx="56" cy="824" r="8" fill="#F5F4F7"/>
<circle cx="104" cy="824" r="8" fill="#F5F4F7"/>
<circle cx="152" cy="824" r="8" fill="#F5F4F7"/>
<circle cx="200" cy="824" r="8" fill="white"/>
<circle cx="248" cy="824" r="8" fill="#F5F4F7"/>
<circle cx="296" cy="824" r="8" fill="#F5F4F7"/>
<circle cx="344" cy="824" r="8" fill="#F5F4F7"/>
<circle cx="392" cy="824" r="8" fill="#F5F4F7"/>
<circle cx="440" cy="824" r="8" fill="#F5F4F7"/>
<circle cx="488" cy="824" r="8" fill="white"/>
<circle cx="536" cy="824" r="8" fill="white"/>
<circle cx="584" cy="824" r="8" fill="#F5F4F7"/>
<circle cx="632" cy="824" r="8" fill="#F5F4F7"/>
<circle cx="680" cy="824" r="8" fill="#F5F4F7"/>
<circle cx="728" cy="824" r="8" fill="white"/>
<circle cx="776" cy="824" r="8" fill="#F5F4F7"/>
<circle cx="824" cy="824" r="8" fill="#F5F4F7"/>
<circle cx="872" cy="824" r="8" fill="#F5F4F7"/>
<circle cx="920" cy="824" r="8" fill="#F5F4F7"/>
<circle cx="968" cy="824" r="8" fill="#F5F4F7"/>
<circle cx="1016" cy="824" r="8" fill="#F5F4F7"/>
<circle cx="1064" cy="824" r="8" fill="#F5F4F7"/>
<circle cx="1112" cy="824" r="8" fill="#F5F4F7"/>
<circle cx="1160" cy="824" r="8" fill="white"/>
<circle cx="1208" cy="824" r="8" fill="#F5F4F7"/>
<circle cx="1256" cy="824" r="8" fill="#F5F4F7"/>
<circle cx="1304" cy="824" r="8" fill="white"/>
<circle cx="1352" cy="824" r="8" fill="#F5F4F7"/>
<circle cx="1400" cy="824" r="8" fill="white"/>
<circle cx="1448" cy="824" r="8" fill="#F5F4F7"/>
<circle cx="1496" cy="824" r="8" fill="#F5F4F7"/>
<circle cx="8" cy="872" r="8" fill="#F5F4F7"/>
<circle cx="56" cy="872" r="8" fill="white"/>
<circle cx="104" cy="872" r="8" fill="white"/>
<circle cx="152" cy="872" r="8" fill="#F5F4F7"/>
<circle cx="200" cy="872" r="8" fill="#F5F4F7"/>
<circle cx="248" cy="872" r="8" fill="#F5F4F7"/>
<circle cx="296" cy="872" r="8" fill="#F5F4F7"/>
<circle cx="344" cy="872" r="8" fill="white"/>
<circle cx="392" cy="872" r="8" fill="white"/>
<circle cx="440" cy="872" r="8" fill="#F5F4F7"/>
<circle cx="488" cy="872" r="8" fill="#F5F4F7"/>
<circle cx="536" cy="872" r="8" fill="white"/>
<circle cx="584" cy="872" r="8" fill="#F5F4F7"/>
<circle cx="632" cy="872" r="8" fill="white"/>
<circle cx="680" cy="872" r="8" fill="#F5F4F7"/>
<circle cx="728" cy="872" r="8" fill="#F5F4F7"/>
<circle cx="776" cy="872" r="8" fill="#F5F4F7"/>
<circle cx="824" cy="872" r="8" fill="white"/>
<circle cx="872" cy="872" r="8" fill="#F5F4F7"/>
<circle cx="920" cy="872" r="8" fill="white"/>
<circle cx="968" cy="872" r="8" fill="#F5F4F7"/>
<circle cx="1016" cy="872" r="8" fill="#F5F4F7"/>
<circle cx="1064" cy="872" r="8" fill="white"/>
<circle cx="1112" cy="872" r="8" fill="white"/>
<circle cx="1160" cy="872" r="8" fill="white"/>
<circle cx="1208" cy="872" r="8" fill="#F5F4F7"/>
<circle cx="1256" cy="872" r="8" fill="#F5F4F7"/>
<circle cx="1304" cy="872" r="8" fill="white"/>
<circle cx="1352" cy="872" r="8" fill="#F5F4F7"/>
<circle cx="1400" cy="872" r="8" fill="#F5F4F7"/>
<circle cx="1448" cy="872" r="8" fill="#F5F4F7"/>
<circle cx="1496" cy="872" r="8" fill="#F5F4F7"/>
<circle cx="8" cy="920" r="8" fill="#F5F4F7"/>
<circle cx="56" cy="920" r="8" fill="#F5F4F7"/>
<circle cx="104" cy="920" r="8" fill="#F5F4F7"/>
<circle cx="152" cy="920" r="8" fill="#F5F4F7"/>
<circle cx="200" cy="920" r="8" fill="white"/>
<circle cx="248" cy="920" r="8" fill="white"/>
<circle cx="296" cy="920" r="8" fill="#F5F4F7"/>
<circle cx="344" cy="920" r="8" fill="#F5F4F7"/>
<circle cx="392" cy="920" r="8" fill="#F5F4F7"/>
<circle cx="440" cy="920" r="8" fill="white"/>
<circle cx="488" cy="920" r="8" fill="#F5F4F7"/>
<circle cx="536" cy="920" r="8" fill="#F5F4F7"/>
<circle cx="584" cy="920" r="8" fill="#F5F4F7"/>
<circle cx="632" cy="920" r="8" fill="#F5F4F7"/>
<circle cx="680" cy="920" r="8" fill="#F5F4F7"/>
<circle cx="728" cy="920" r="8" fill="#F5F4F7"/>
<circle cx="776" cy="920" r="8" fill="#F5F4F7"/>
<circle cx="824" cy="920" r="8" fill="#F5F4F7"/>
<circle cx="872" cy="920" r="8" fill="#F5F4F7"/>
<circle cx="920" cy="920" r="8" fill="#F5F4F7"/>
<circle cx="968" cy="920" r="8" fill="#F5F4F7"/>
<circle cx="1016" cy="920" r="8" fill="#F5F4F7"/>
<circle cx="1064" cy="920" r="8" fill="#F5F4F7"/>
<circle cx="1112" cy="920" r="8" fill="white"/>
<circle cx="1160" cy="920" r="8" fill="#F5F4F7"/>
<circle cx="1208" cy="920" r="8" fill="white"/>
<circle cx="1256" cy="920" r="8" fill="#F5F4F7"/>
<circle cx="1304" cy="920" r="8" fill="#F5F4F7"/>
<circle cx="1352" cy="920" r="8" fill="#F5F4F7"/>
<circle cx="1400" cy="920" r="8" fill="#F5F4F7"/>
<circle cx="1448" cy="920" r="8" fill="#F5F4F7"/>
<circle cx="1496" cy="920" r="8" fill="#F5F4F7"/>
<circle cx="8" cy="968" r="8" fill="#F5F4F7"/>
<circle cx="56" cy="968" r="8" fill="white"/>
<circle cx="104" cy="968" r="8" fill="white"/>
<circle cx="152" cy="968" r="8" fill="#F5F4F7"/>
<circle cx="200" cy="968" r="8" fill="white"/>
<circle cx="248" cy="968" r="8" fill="#F5F4F7"/>
<circle cx="296" cy="968" r="8" fill="white"/>
<circle cx="344" cy="968" r="8" fill="#F5F4F7"/>
<circle cx="392" cy="968" r="8" fill="#F5F4F7"/>
<circle cx="440" cy="968" r="8" fill="#F5F4F7"/>
<circle cx="488" cy="968" r="8" fill="#F5F4F7"/>
<circle cx="536" cy="968" r="8" fill="#F5F4F7"/>
<circle cx="584" cy="968" r="8" fill="white"/>
<circle cx="632" cy="968" r="8" fill="#F5F4F7"/>
<circle cx="680" cy="968" r="8" fill="#F5F4F7"/>
<circle cx="728" cy="968" r="8" fill="#F5F4F7"/>
<circle cx="776" cy="968" r="8" fill="#F5F4F7"/>
<circle cx="824" cy="968" r="8" fill="#F5F4F7"/>
<circle cx="872" cy="968" r="8" fill="#F5F4F7"/>
<circle cx="920" cy="968" r="8" fill="#F5F4F7"/>
<circle cx="968" cy="968" r="8" fill="#F5F4F7"/>
<circle cx="1016" cy="968" r="8" fill="#F5F4F7"/>
<circle cx="1064" cy="968" r="8" fill="#F5F4F7"/>
<circle cx="1112" cy="968" r="8" fill="white"/>
<circle cx="1160" cy="968" r="8" fill="#F5F4F7"/>
<circle cx="1208" cy="968" r="8" fill="white"/>
<circle cx="1256" cy="968" r="8" fill="#F5F4F7"/>
<circle cx="1304" cy="968" r="8" fill="white"/>
<circle cx="1352" cy="968" r="8" fill="#F5F4F7"/>
<circle cx="1400" cy="968" r="8" fill="white"/>
<circle cx="1448" cy="968" r="8" fill="white"/>
<circle cx="1496" cy="968" r="8" fill="white"/>
<circle cx="8" cy="1016" r="8" fill="#F5F4F7"/>
<circle cx="56" cy="1016" r="8" fill="white"/>
<circle cx="104" cy="1016" r="8" fill="#F5F4F7"/>
<circle cx="152" cy="1016" r="8" fill="#F5F4F7"/>
<circle cx="200" cy="1016" r="8" fill="#F5F4F7"/>
<circle cx="248" cy="1016" r="8" fill="#F5F4F7"/>
<circle cx="296" cy="1016" r="8" fill="#F5F4F7"/>
<circle cx="344" cy="1016" r="8" fill="#F5F4F7"/>
<circle cx="392" cy="1016" r="8" fill="#F5F4F7"/>
<circle cx="440" cy="1016" r="8" fill="#F5F4F7"/>
<circle cx="488" cy="1016" r="8" fill="white"/>
<circle cx="536" cy="1016" r="8" fill="#F5F4F7"/>
<circle cx="584" cy="1016" r="8" fill="#F5F4F7"/>
<circle cx="632" cy="1016" r="8" fill="white"/>
<circle cx="680" cy="1016" r="8" fill="white"/>
<circle cx="728" cy="1016" r="8" fill="#F5F4F7"/>
<circle cx="776" cy="1016" r="8" fill="white"/>
<circle cx="824" cy="1016" r="8" fill="#F5F4F7"/>
<circle cx="872" cy="1016" r="8" fill="#FD4487"/>
<circle cx="920" cy="1016" r="8" fill="#F5F4F7"/>
<circle cx="968" cy="1016" r="8" fill="#F5F4F7"/>
<circle cx="1016" cy="1016" r="8" fill="#F5F4F7"/>
<circle cx="1064" cy="1016" r="8" fill="#F5F4F7"/>
<circle cx="1112" cy="1016" r="8" fill="white"/>
<circle cx="1160" cy="1016" r="8" fill="#F5F4F7"/>
<circle cx="1208" cy="1016" r="8" fill="white"/>
<circle cx="1256" cy="1016" r="8" fill="#F5F4F7"/>
<circle cx="1304" cy="1016" r="8" fill="white"/>
<circle cx="1352" cy="1016" r="8" fill="#F5F4F7"/>
<circle cx="1400" cy="1016" r="8" fill="#F5F4F7"/>
<circle cx="1448" cy="1016" r="8" fill="#F5F4F7"/>
<circle cx="1496" cy="1016" r="8" fill="#F5F4F7"/>
<circle cx="8" cy="1064" r="8" fill="#F5F4F7"/>
<circle cx="56" cy="1064" r="8" fill="#F5F4F7"/>
<circle cx="104" cy="1064" r="8" fill="#F5F4F7"/>
<circle cx="152" cy="1064" r="8" fill="#F5F4F7"/>
<circle cx="200" cy="1064" r="8" fill="white"/>
<circle cx="248" cy="1064" r="8" fill="#F5F4F7"/>
<circle cx="296" cy="1064" r="8" fill="#F5F4F7"/>
<circle cx="344" cy="1064" r="8" fill="#F5F4F7"/>
<circle cx="392" cy="1064" r="8" fill="#F5F4F7"/>
<circle cx="440" cy="1064" r="8" fill="#F5F4F7"/>
<circle cx="488" cy="1064" r="8" fill="#F5F4F7"/>
<circle cx="536" cy="1064" r="8" fill="white"/>
<circle cx="584" cy="1064" r="8" fill="#F5F4F7"/>
<circle cx="632" cy="1064" r="8" fill="#F5F4F7"/>
<circle cx="680" cy="1064" r="8" fill="white"/>
<circle cx="728" cy="1064" r="8" fill="#F5F4F7"/>
<circle cx="776" cy="1064" r="8" fill="#F5F4F7"/>
<circle cx="824" cy="1064" r="8" fill="#F5F4F7"/>
<circle cx="872" cy="1064" r="8" fill="white"/>
<circle cx="920" cy="1064" r="8" fill="#F5F4F7"/>
<circle cx="968" cy="1064" r="8" fill="#F5F4F7"/>
<circle cx="1016" cy="1064" r="8" fill="#F5F4F7"/>
<circle cx="1064" cy="1064" r="8" fill="#F5F4F7"/>
<circle cx="1112" cy="1064" r="8" fill="white"/>
<circle cx="1160" cy="1064" r="8" fill="white"/>
<circle cx="1208" cy="1064" r="8" fill="#F5F4F7"/>
<circle cx="1256" cy="1064" r="8" fill="#F5F4F7"/>
<circle cx="1304" cy="1064" r="8" fill="#F5F4F7"/>
<circle cx="1352" cy="1064" r="8" fill="#F5F4F7"/>
<circle cx="1400" cy="1064" r="8" fill="white"/>
<circle cx="1448" cy="1064" r="8" fill="#F5F4F7"/>
<circle cx="1496" cy="1064" r="8" fill="#F5F4F7"/>
<circle cx="8" cy="1112" r="8" fill="#F5F4F7"/>
<circle cx="56" cy="1112" r="8" fill="#F5F4F7"/>
<circle cx="104" cy="1112" r="8" fill="#F5F4F7"/>
<circle cx="152" cy="1112" r="8" fill="#F5F4F7"/>
<circle cx="200" cy="1112" r="8" fill="#F5F4F7"/>
<circle cx="248" cy="1112" r="8" fill="white"/>
<circle cx="296" cy="1112" r="8" fill="#F5F4F7"/>
<circle cx="344" cy="1112" r="8" fill="#F5F4F7"/>
<circle cx="392" cy="1112" r="8" fill="#F5F4F7"/>
<circle cx="440" cy="1112" r="8" fill="#F5F4F7"/>
<circle cx="488" cy="1112" r="8" fill="white"/>
<circle cx="536" cy="1112" r="8" fill="#F5F4F7"/>
<circle cx="584" cy="1112" r="8" fill="#F5F4F7"/>
<circle cx="632" cy="1112" r="8" fill="#F5F4F7"/>
<circle cx="680" cy="1112" r="8" fill="#F5F4F7"/>
<circle cx="728" cy="1112" r="8" fill="#F5F4F7"/>
<circle cx="776" cy="1112" r="8" fill="#F5F4F7"/>
<circle cx="824" cy="1112" r="8" fill="#F5F4F7"/>
<circle cx="872" cy="1112" r="8" fill="#F5F4F7"/>
<circle cx="920" cy="1112" r="8" fill="#F5F4F7"/>
<circle cx="968" cy="1112" r="8" fill="white"/>
<circle cx="1016" cy="1112" r="8" fill="#F5F4F7"/>
<circle cx="1064" cy="1112" r="8" fill="#F5F4F7"/>
<circle cx="1112" cy="1112" r="8" fill="#F5F4F7"/>
<circle cx="1160" cy="1112" r="8" fill="#F5F4F7"/>
<circle cx="1208" cy="1112" r="8" fill="#F5F4F7"/>
<circle cx="1256" cy="1112" r="8" fill="white"/>
<circle cx="1304" cy="1112" r="8" fill="#F5F4F7"/>
<circle cx="1352" cy="1112" r="8" fill="#F5F4F7"/>
<circle cx="1400" cy="1112" r="8" fill="white"/>
<circle cx="1448" cy="1112" r="8" fill="#F5F4F7"/>
<circle cx="1496" cy="1112" r="8" fill="#F5F4F7"/>
</svg>
