<?xml version="1.0" encoding="utf-8"?>
<!-- Generator: Adobe Illustrator 19.0.0, SVG Export Plug-In . SVG Version: 6.00 Build 0)  -->
<svg version="1.1" id="Layer_1" xmlns="http://www.w3.org/2000/svg" xmlns:xlink="http://www.w3.org/1999/xlink" x="0px" y="0px"
	 viewBox="0 0 1540 1120" style="enable-background:new 0 0 1540 1120;" xml:space="preserve">
<style type="text/css">
	.st0{fill:#F5F4F7;}
	.st1{fill:#FFFFFF;}
	.st2{fill:#6A5CA8;}
	.st3{fill:#FDD445;}
	.st4{fill:#EF4887;}
	.st5{fill:#7BC9A6;}
</style>
<circle id="XMLID_768_" class="st0" cx="17" cy="9" r="8"/>
<circle id="XMLID_767_" class="st1" cx="65" cy="9" r="8"/>
<circle id="XMLID_766_" class="st1" cx="113" cy="9" r="8"/>
<circle id="XMLID_765_" class="st0" cx="161" cy="9" r="8"/>
<circle id="XMLID_764_" class="st0" cx="209" cy="9" r="8"/>
<circle id="XMLID_763_" class="st0" cx="257" cy="9" r="8"/>
<circle id="XMLID_762_" class="st1" cx="305" cy="9" r="8"/>
<circle id="XMLID_761_" class="st1" cx="353" cy="9" r="8"/>
<circle id="XMLID_760_" class="st1" cx="401" cy="9" r="8"/>
<circle id="XMLID_759_" class="st0" cx="449" cy="9" r="8"/>
<circle id="XMLID_758_" class="st0" cx="497" cy="9" r="8"/>
<circle id="XMLID_757_" class="st0" cx="545" cy="9" r="8"/>
<circle id="XMLID_756_" class="st0" cx="593" cy="9" r="8"/>
<circle id="XMLID_755_" class="st2" cx="641" cy="9" r="8"/>
<circle id="XMLID_754_" class="st1" cx="689" cy="9" r="8"/>
<circle id="XMLID_753_" class="st0" cx="737" cy="9" r="8"/>
<circle id="XMLID_752_" class="st0" cx="785" cy="9" r="8"/>
<circle id="XMLID_751_" class="st0" cx="833" cy="9" r="8"/>
<circle id="XMLID_750_" class="st0" cx="881" cy="9" r="8"/>
<circle id="XMLID_749_" class="st0" cx="929" cy="9" r="8"/>
<circle id="XMLID_748_" class="st0" cx="977" cy="9" r="8"/>
<circle id="XMLID_747_" class="st1" cx="1025" cy="9" r="8"/>
<circle id="XMLID_746_" class="st0" cx="1073" cy="9" r="8"/>
<circle id="XMLID_745_" class="st0" cx="1121" cy="9" r="8"/>
<circle id="XMLID_744_" class="st0" cx="1169" cy="9" r="8"/>
<circle id="XMLID_743_" class="st0" cx="1217" cy="9" r="8"/>
<circle id="XMLID_742_" class="st0" cx="1265" cy="9" r="8"/>
<circle id="XMLID_741_" class="st1" cx="1313" cy="9" r="8"/>
<circle id="XMLID_740_" class="st1" cx="1361" cy="9" r="8"/>
<circle id="XMLID_739_" class="st0" cx="1409" cy="9" r="8"/>
<circle id="XMLID_738_" class="st0" cx="1457" cy="9" r="8"/>
<circle id="XMLID_737_" class="st3" cx="1505" cy="9" r="8"/>
<circle id="XMLID_736_" class="st0" cx="17" cy="57" r="8"/>
<circle id="XMLID_735_" class="st3" cx="65" cy="57" r="8"/>
<circle id="XMLID_734_" class="st1" cx="113" cy="57" r="8"/>
<circle id="XMLID_733_" class="st0" cx="161" cy="57" r="8"/>
<circle id="XMLID_732_" class="st0" cx="209" cy="57" r="8"/>
<circle id="XMLID_731_" class="st0" cx="257" cy="57" r="8"/>
<circle id="XMLID_730_" class="st0" cx="305" cy="57" r="8"/>
<circle id="XMLID_729_" class="st0" cx="353" cy="57" r="8"/>
<circle id="XMLID_728_" class="st1" cx="401" cy="57" r="8"/>
<circle id="XMLID_727_" class="st0" cx="449" cy="57" r="8"/>
<circle id="XMLID_726_" class="st0" cx="497" cy="57" r="8"/>
<circle id="XMLID_725_" class="st0" cx="545" cy="57" r="8"/>
<circle id="XMLID_724_" class="st0" cx="593" cy="57" r="8"/>
<circle id="XMLID_723_" class="st1" cx="641" cy="57" r="8"/>
<circle id="XMLID_722_" class="st1" cx="689" cy="57" r="8"/>
<circle id="XMLID_721_" class="st1" cx="737" cy="57" r="8"/>
<circle id="XMLID_720_" class="st0" cx="785" cy="57" r="8"/>
<circle id="XMLID_719_" class="st0" cx="833" cy="57" r="8"/>
<circle id="XMLID_718_" class="st0" cx="881" cy="57" r="8"/>
<circle id="XMLID_717_" class="st1" cx="929" cy="57" r="8"/>
<circle id="XMLID_716_" class="st0" cx="977" cy="57" r="8"/>
<circle id="XMLID_715_" class="st1" cx="1025" cy="57" r="8"/>
<circle id="XMLID_714_" class="st0" cx="1073" cy="57" r="8"/>
<circle id="XMLID_713_" class="st0" cx="1121" cy="57" r="8"/>
<circle id="XMLID_712_" class="st1" cx="1169" cy="57" r="8"/>
<circle id="XMLID_711_" class="st0" cx="1217" cy="57" r="8"/>
<circle id="XMLID_710_" class="st0" cx="1265" cy="57" r="8"/>
<circle id="XMLID_709_" class="st0" cx="1313" cy="57" r="8"/>
<circle id="XMLID_708_" class="st0" cx="1361" cy="57" r="8"/>
<circle id="XMLID_707_" class="st0" cx="1409" cy="57" r="8"/>
<circle id="XMLID_706_" class="st0" cx="1457" cy="57" r="8"/>
<circle id="XMLID_705_" class="st0" cx="1505" cy="57" r="8"/>
<circle id="XMLID_704_" class="st0" cx="17" cy="105" r="8"/>
<circle id="XMLID_703_" class="st1" cx="65" cy="105" r="8"/>
<circle id="XMLID_702_" class="st1" cx="113" cy="105" r="8"/>
<circle id="XMLID_701_" class="st0" cx="161" cy="105" r="8"/>
<circle id="XMLID_700_" class="st0" cx="209" cy="105" r="8"/>
<circle id="XMLID_699_" class="st1" cx="257" cy="105" r="8"/>
<circle id="XMLID_698_" class="st1" cx="305" cy="105" r="8"/>
<circle id="XMLID_697_" class="st1" cx="353" cy="105" r="8"/>
<circle id="XMLID_696_" class="st0" cx="401" cy="105" r="8"/>
<circle id="XMLID_695_" class="st0" cx="449" cy="105" r="8"/>
<circle id="XMLID_694_" class="st1" cx="497" cy="105" r="8"/>
<circle id="XMLID_693_" class="st0" cx="545" cy="105" r="8"/>
<circle id="XMLID_692_" class="st1" cx="593" cy="105" r="8"/>
<circle id="XMLID_691_" class="st0" cx="641" cy="105" r="8"/>
<circle id="XMLID_690_" class="st0" cx="689" cy="105" r="8"/>
<circle id="XMLID_689_" class="st0" cx="737" cy="105" r="8"/>
<circle id="XMLID_688_" class="st0" cx="785" cy="105" r="8"/>
<circle id="XMLID_687_" class="st0" cx="833" cy="105" r="8"/>
<circle id="XMLID_686_" class="st1" cx="881" cy="105" r="8"/>
<circle id="XMLID_685_" class="st0" cx="929" cy="105" r="8"/>
<circle id="XMLID_684_" class="st0" cx="977" cy="105" r="8"/>
<circle id="XMLID_683_" class="st0" cx="1025" cy="105" r="8"/>
<circle id="XMLID_682_" class="st0" cx="1073" cy="105" r="8"/>
<circle id="XMLID_681_" class="st0" cx="1121" cy="105" r="8"/>
<circle id="XMLID_680_" class="st0" cx="1169" cy="105" r="8"/>
<circle id="XMLID_679_" class="st4" cx="1217" cy="105" r="8"/>
<circle id="XMLID_678_" class="st0" cx="1265" cy="105" r="8"/>
<circle id="XMLID_677_" class="st1" cx="1313" cy="105" r="8"/>
<circle id="XMLID_676_" class="st1" cx="1361" cy="105" r="8"/>
<circle id="XMLID_675_" class="st1" cx="1409" cy="105" r="8"/>
<circle id="XMLID_674_" class="st1" cx="1457" cy="105" r="8"/>
<circle id="XMLID_673_" class="st0" cx="1505" cy="105" r="8"/>
<circle id="XMLID_672_" class="st0" cx="17" cy="153" r="8"/>
<circle id="XMLID_671_" class="st0" cx="65" cy="153" r="8"/>
<circle id="XMLID_670_" class="st0" cx="113" cy="153" r="8"/>
<circle id="XMLID_669_" class="st0" cx="161" cy="153" r="8"/>
<circle id="XMLID_668_" class="st1" cx="209" cy="153" r="8"/>
<circle id="XMLID_667_" class="st0" cx="257" cy="153" r="8"/>
<circle id="XMLID_666_" class="st1" cx="305" cy="153" r="8"/>
<circle id="XMLID_665_" class="st0" cx="353" cy="153" r="8"/>
<circle id="XMLID_664_" class="st0" cx="401" cy="153" r="8"/>
<circle id="XMLID_663_" class="st0" cx="449" cy="153" r="8"/>
<circle id="XMLID_662_" class="st0" cx="497" cy="153" r="8"/>
<circle id="XMLID_661_" class="st1" cx="545" cy="153" r="8"/>
<circle id="XMLID_660_" class="st0" cx="593" cy="153" r="8"/>
<circle id="XMLID_659_" class="st1" cx="641" cy="153" r="8"/>
<circle id="XMLID_658_" class="st0" cx="689" cy="153" r="8"/>
<circle id="XMLID_657_" class="st0" cx="737" cy="153" r="8"/>
<circle id="XMLID_656_" class="st0" cx="785" cy="153" r="8"/>
<circle id="XMLID_655_" class="st0" cx="833" cy="153" r="8"/>
<circle id="XMLID_654_" class="st0" cx="881" cy="153" r="8"/>
<circle id="XMLID_653_" class="st0" cx="929" cy="153" r="8"/>
<circle id="XMLID_652_" class="st1" cx="977" cy="153" r="8"/>
<circle id="XMLID_651_" class="st0" cx="1025" cy="153" r="8"/>
<circle id="XMLID_650_" class="st0" cx="1073" cy="153" r="8"/>
<circle id="XMLID_649_" class="st0" cx="1121" cy="153" r="8"/>
<circle id="XMLID_648_" class="st0" cx="1169" cy="153" r="8"/>
<circle id="XMLID_647_" class="st1" cx="1217" cy="153" r="8"/>
<circle id="XMLID_646_" class="st1" cx="1265" cy="153" r="8"/>
<circle id="XMLID_645_" class="st5" cx="1313" cy="153" r="8"/>
<circle id="XMLID_644_" class="st0" cx="1361" cy="153" r="8"/>
<circle id="XMLID_643_" class="st0" cx="1409" cy="153" r="8"/>
<circle id="XMLID_642_" class="st0" cx="1457" cy="153" r="8"/>
<circle id="XMLID_641_" class="st0" cx="1505" cy="153" r="8"/>
<circle id="XMLID_640_" class="st5" cx="17" cy="201" r="8"/>
<circle id="XMLID_639_" class="st0" cx="65" cy="201" r="8"/>
<circle id="XMLID_638_" class="st1" cx="113" cy="201" r="8"/>
<circle id="XMLID_637_" class="st0" cx="161" cy="201" r="8"/>
<circle id="XMLID_636_" class="st0" cx="209" cy="201" r="8"/>
<circle id="XMLID_635_" class="st0" cx="257" cy="201" r="8"/>
<circle id="XMLID_634_" class="st0" cx="305" cy="201" r="8"/>
<circle id="XMLID_633_" class="st0" cx="353" cy="201" r="8"/>
<circle id="XMLID_632_" class="st0" cx="401" cy="201" r="8"/>
<circle id="XMLID_631_" class="st0" cx="449" cy="201" r="8"/>
<circle id="XMLID_630_" class="st0" cx="497" cy="201" r="8"/>
<circle id="XMLID_629_" class="st1" cx="545" cy="201" r="8"/>
<circle id="XMLID_628_" class="st0" cx="593" cy="201" r="8"/>
<circle id="XMLID_627_" class="st0" cx="641" cy="201" r="8"/>
<circle id="XMLID_626_" class="st0" cx="689" cy="201" r="8"/>
<circle id="XMLID_625_" class="st0" cx="737" cy="201" r="8"/>
<circle id="XMLID_624_" class="st0" cx="785" cy="201" r="8"/>
<circle id="XMLID_623_" class="st0" cx="833" cy="201" r="8"/>
<circle id="XMLID_622_" class="st0" cx="881" cy="201" r="8"/>
<circle id="XMLID_621_" class="st0" cx="929" cy="201" r="8"/>
<circle id="XMLID_620_" class="st1" cx="977" cy="201" r="8"/>
<circle id="XMLID_619_" class="st0" cx="1025" cy="201" r="8"/>
<circle id="XMLID_618_" class="st0" cx="1073" cy="201" r="8"/>
<circle id="XMLID_617_" class="st0" cx="1121" cy="201" r="8"/>
<circle id="XMLID_616_" class="st0" cx="1169" cy="201" r="8"/>
<circle id="XMLID_615_" class="st1" cx="1217" cy="201" r="8"/>
<circle id="XMLID_614_" class="st1" cx="1265" cy="201" r="8"/>
<circle id="XMLID_613_" class="st0" cx="1313" cy="201" r="8"/>
<circle id="XMLID_612_" class="st0" cx="1361" cy="201" r="8"/>
<circle id="XMLID_611_" class="st0" cx="1409" cy="201" r="8"/>
<circle id="XMLID_610_" class="st0" cx="1457" cy="201" r="8"/>
<circle id="XMLID_609_" class="st0" cx="1505" cy="201" r="8"/>
<circle id="XMLID_608_" class="st0" cx="17" cy="249" r="8"/>
<circle id="XMLID_607_" class="st1" cx="65" cy="249" r="8"/>
<circle id="XMLID_606_" class="st0" cx="113" cy="249" r="8"/>
<circle id="XMLID_605_" class="st0" cx="161" cy="249" r="8"/>
<circle id="XMLID_604_" class="st0" cx="209" cy="249" r="8"/>
<circle id="XMLID_603_" class="st0" cx="257" cy="249" r="8"/>
<circle id="XMLID_602_" class="st1" cx="305" cy="249" r="8"/>
<circle id="XMLID_601_" class="st0" cx="353" cy="249" r="8"/>
<circle id="XMLID_600_" class="st0" cx="401" cy="249" r="8"/>
<circle id="XMLID_599_" class="st0" cx="449" cy="249" r="8"/>
<circle id="XMLID_598_" class="st0" cx="497" cy="249" r="8"/>
<circle id="XMLID_597_" class="st1" cx="545" cy="249" r="8"/>
<circle id="XMLID_596_" class="st1" cx="593" cy="249" r="8"/>
<circle id="XMLID_595_" class="st0" cx="641" cy="249" r="8"/>
<circle id="XMLID_594_" class="st0" cx="689" cy="249" r="8"/>
<circle id="XMLID_593_" class="st0" cx="737" cy="249" r="8"/>
<circle id="XMLID_592_" class="st1" cx="785" cy="249" r="8"/>
<circle id="XMLID_591_" class="st1" cx="833" cy="249" r="8"/>
<circle id="XMLID_590_" class="st0" cx="881" cy="249" r="8"/>
<circle id="XMLID_589_" class="st0" cx="929" cy="249" r="8"/>
<circle id="XMLID_588_" class="st0" cx="977" cy="249" r="8"/>
<circle id="XMLID_587_" class="st1" cx="1025" cy="249" r="8"/>
<circle id="XMLID_586_" class="st1" cx="1073" cy="249" r="8"/>
<circle id="XMLID_585_" class="st0" cx="1121" cy="249" r="8"/>
<circle id="XMLID_584_" class="st0" cx="1169" cy="249" r="8"/>
<circle id="XMLID_583_" class="st1" cx="1217" cy="249" r="8"/>
<circle id="XMLID_582_" class="st0" cx="1265" cy="249" r="8"/>
<circle id="XMLID_581_" class="st0" cx="1313" cy="249" r="8"/>
<circle id="XMLID_580_" class="st0" cx="1361" cy="249" r="8"/>
<circle id="XMLID_579_" class="st0" cx="1409" cy="249" r="8"/>
<circle id="XMLID_578_" class="st0" cx="1457" cy="249" r="8"/>
<circle id="XMLID_577_" class="st0" cx="1505" cy="249" r="8"/>
<circle id="XMLID_576_" class="st1" cx="17" cy="297" r="8"/>
<circle id="XMLID_575_" class="st0" cx="65" cy="297" r="8"/>
<circle id="XMLID_574_" class="st0" cx="113" cy="297" r="8"/>
<circle id="XMLID_573_" class="st0" cx="161" cy="297" r="8"/>
<circle id="XMLID_572_" class="st0" cx="209" cy="297" r="8"/>
<circle id="XMLID_571_" class="st1" cx="257" cy="297" r="8"/>
<circle id="XMLID_570_" class="st0" cx="305" cy="297" r="8"/>
<circle id="XMLID_569_" class="st0" cx="353" cy="297" r="8"/>
<circle id="XMLID_568_" class="st0" cx="401" cy="297" r="8"/>
<circle id="XMLID_567_" class="st1" cx="449" cy="297" r="8"/>
<circle id="XMLID_566_" class="st0" cx="497" cy="297" r="8"/>
<circle id="XMLID_565_" class="st0" cx="545" cy="297" r="8"/>
<circle id="XMLID_564_" class="st0" cx="593" cy="297" r="8"/>
<circle id="XMLID_563_" class="st1" cx="641" cy="297" r="8"/>
<circle id="XMLID_562_" class="st0" cx="689" cy="297" r="8"/>
<circle id="XMLID_561_" class="st1" cx="737" cy="297" r="8"/>
<circle id="XMLID_560_" class="st0" cx="785" cy="297" r="8"/>
<circle id="XMLID_559_" class="st1" cx="833" cy="297" r="8"/>
<circle id="XMLID_558_" class="st1" cx="881" cy="297" r="8"/>
<circle id="XMLID_557_" class="st1" cx="929" cy="297" r="8"/>
<circle id="XMLID_556_" class="st0" cx="977" cy="297" r="8"/>
<circle id="XMLID_555_" class="st0" cx="1025" cy="297" r="8"/>
<circle id="XMLID_554_" class="st0" cx="1073" cy="297" r="8"/>
<circle id="XMLID_553_" class="st0" cx="1121" cy="297" r="8"/>
<circle id="XMLID_552_" class="st0" cx="1169" cy="297" r="8"/>
<circle id="XMLID_551_" class="st0" cx="1217" cy="297" r="8"/>
<circle id="XMLID_550_" class="st0" cx="1265" cy="297" r="8"/>
<circle id="XMLID_549_" class="st0" cx="1313" cy="297" r="8"/>
<circle id="XMLID_548_" class="st0" cx="1361" cy="297" r="8"/>
<circle id="XMLID_547_" class="st0" cx="1409" cy="297" r="8"/>
<circle id="XMLID_546_" class="st0" cx="1457" cy="297" r="8"/>
<circle id="XMLID_545_" class="st0" cx="1505" cy="297" r="8"/>
<circle id="XMLID_544_" class="st0" cx="17" cy="345" r="8"/>
<circle id="XMLID_543_" class="st0" cx="65" cy="345" r="8"/>
<circle id="XMLID_542_" class="st1" cx="113" cy="345" r="8"/>
<circle id="XMLID_541_" class="st0" cx="161" cy="345" r="8"/>
<circle id="XMLID_540_" class="st0" cx="209" cy="345" r="8"/>
<circle id="XMLID_539_" class="st1" cx="257" cy="345" r="8"/>
<circle id="XMLID_538_" class="st4" cx="305" cy="345" r="8"/>
<circle id="XMLID_537_" class="st0" cx="353" cy="345" r="8"/>
<circle id="XMLID_536_" class="st0" cx="401" cy="345" r="8"/>
<circle id="XMLID_535_" class="st0" cx="449" cy="345" r="8"/>
<circle id="XMLID_534_" class="st0" cx="497" cy="345" r="8"/>
<circle id="XMLID_533_" class="st1" cx="545" cy="345" r="8"/>
<circle id="XMLID_532_" class="st1" cx="593" cy="345" r="8"/>
<circle id="XMLID_531_" class="st0" cx="641" cy="345" r="8"/>
<circle id="XMLID_530_" class="st0" cx="689" cy="345" r="8"/>
<circle id="XMLID_529_" class="st0" cx="737" cy="345" r="8"/>
<circle id="XMLID_528_" class="st1" cx="785" cy="345" r="8"/>
<circle id="XMLID_527_" class="st0" cx="833" cy="345" r="8"/>
<circle id="XMLID_526_" class="st0" cx="881" cy="345" r="8"/>
<circle id="XMLID_525_" class="st0" cx="929" cy="345" r="8"/>
<circle id="XMLID_524_" class="st0" cx="977" cy="345" r="8"/>
<circle id="XMLID_523_" class="st0" cx="1025" cy="345" r="8"/>
<circle id="XMLID_522_" class="st0" cx="1073" cy="345" r="8"/>
<circle id="XMLID_521_" class="st0" cx="1121" cy="345" r="8"/>
<circle id="XMLID_520_" class="st0" cx="1169" cy="345" r="8"/>
<circle id="XMLID_519_" class="st0" cx="1217" cy="345" r="8"/>
<circle id="XMLID_518_" class="st0" cx="1265" cy="345" r="8"/>
<circle id="XMLID_517_" class="st0" cx="1313" cy="345" r="8"/>
<circle id="XMLID_516_" class="st0" cx="1361" cy="345" r="8"/>
<circle id="XMLID_515_" class="st0" cx="1409" cy="345" r="8"/>
<circle id="XMLID_514_" class="st1" cx="1457" cy="345" r="8"/>
<circle id="XMLID_513_" class="st0" cx="1505" cy="345" r="8"/>
<circle id="XMLID_512_" class="st1" cx="17" cy="393" r="8"/>
<circle id="XMLID_511_" class="st0" cx="65" cy="393" r="8"/>
<circle id="XMLID_510_" class="st1" cx="113" cy="393" r="8"/>
<circle id="XMLID_509_" class="st0" cx="161" cy="393" r="8"/>
<circle id="XMLID_508_" class="st0" cx="209" cy="393" r="8"/>
<circle id="XMLID_507_" class="st0" cx="257" cy="393" r="8"/>
<circle id="XMLID_506_" class="st0" cx="305" cy="393" r="8"/>
<circle id="XMLID_505_" class="st2" cx="353" cy="393" r="8"/>
<circle id="XMLID_504_" class="st0" cx="401" cy="393" r="8"/>
<circle id="XMLID_503_" class="st1" cx="449" cy="393" r="8"/>
<circle id="XMLID_502_" class="st1" cx="497" cy="393" r="8"/>
<circle id="XMLID_501_" class="st0" cx="545" cy="393" r="8"/>
<circle id="XMLID_500_" class="st0" cx="593" cy="393" r="8"/>
<circle id="XMLID_499_" class="st0" cx="641" cy="393" r="8"/>
<circle id="XMLID_498_" class="st0" cx="689" cy="393" r="8"/>
<circle id="XMLID_497_" class="st0" cx="737" cy="393" r="8"/>
<circle id="XMLID_496_" class="st1" cx="785" cy="393" r="8"/>
<circle id="XMLID_495_" class="st0" cx="833" cy="393" r="8"/>
<circle id="XMLID_494_" class="st0" cx="881" cy="393" r="8"/>
<circle id="XMLID_493_" class="st0" cx="929" cy="393" r="8"/>
<circle id="XMLID_492_" class="st0" cx="977" cy="393" r="8"/>
<circle id="XMLID_491_" class="st1" cx="1025" cy="393" r="8"/>
<circle id="XMLID_490_" class="st1" cx="1073" cy="393" r="8"/>
<circle id="XMLID_489_" class="st0" cx="1121" cy="393" r="8"/>
<circle id="XMLID_488_" class="st1" cx="1169" cy="393" r="8"/>
<circle id="XMLID_487_" class="st0" cx="1217" cy="393" r="8"/>
<circle id="XMLID_486_" class="st1" cx="1265" cy="393" r="8"/>
<circle id="XMLID_485_" class="st0" cx="1313" cy="393" r="8"/>
<circle id="XMLID_484_" class="st0" cx="1361" cy="393" r="8"/>
<circle id="XMLID_483_" class="st0" cx="1409" cy="393" r="8"/>
<circle id="XMLID_482_" class="st1" cx="1457" cy="393" r="8"/>
<circle id="XMLID_481_" class="st0" cx="1505" cy="393" r="8"/>
<circle id="XMLID_480_" class="st0" cx="17" cy="441" r="8"/>
<circle id="XMLID_479_" class="st0" cx="65" cy="441" r="8"/>
<circle id="XMLID_478_" class="st0" cx="113" cy="441" r="8"/>
<circle id="XMLID_477_" class="st0" cx="161" cy="441" r="8"/>
<circle id="XMLID_476_" class="st1" cx="209" cy="441" r="8"/>
<circle id="XMLID_475_" class="st0" cx="257" cy="441" r="8"/>
<circle id="XMLID_474_" class="st0" cx="305" cy="441" r="8"/>
<circle id="XMLID_473_" class="st0" cx="353" cy="441" r="8"/>
<circle id="XMLID_472_" class="st1" cx="401" cy="441" r="8"/>
<circle id="XMLID_471_" class="st0" cx="449" cy="441" r="8"/>
<circle id="XMLID_470_" class="st1" cx="497" cy="441" r="8"/>
<circle id="XMLID_469_" class="st0" cx="545" cy="441" r="8"/>
<circle id="XMLID_468_" class="st1" cx="593" cy="441" r="8"/>
<circle id="XMLID_467_" class="st0" cx="641" cy="441" r="8"/>
<circle id="XMLID_466_" class="st1" cx="689" cy="441" r="8"/>
<circle id="XMLID_465_" class="st0" cx="737" cy="441" r="8"/>
<circle id="XMLID_464_" class="st0" cx="785" cy="441" r="8"/>
<circle id="XMLID_463_" class="st0" cx="833" cy="441" r="8"/>
<circle id="XMLID_462_" class="st0" cx="881" cy="441" r="8"/>
<circle id="XMLID_461_" class="st0" cx="929" cy="441" r="8"/>
<circle id="XMLID_460_" class="st0" cx="977" cy="441" r="8"/>
<circle id="XMLID_459_" class="st0" cx="1025" cy="441" r="8"/>
<circle id="XMLID_458_" class="st1" cx="1073" cy="441" r="8"/>
<circle id="XMLID_457_" class="st1" cx="1121" cy="441" r="8"/>
<circle id="XMLID_456_" class="st0" cx="1169" cy="441" r="8"/>
<circle id="XMLID_455_" class="st0" cx="1217" cy="441" r="8"/>
<circle id="XMLID_454_" class="st0" cx="1265" cy="441" r="8"/>
<circle id="XMLID_453_" class="st1" cx="1313" cy="441" r="8"/>
<circle id="XMLID_452_" class="st0" cx="1361" cy="441" r="8"/>
<circle id="XMLID_451_" class="st0" cx="1409" cy="441" r="8"/>
<circle id="XMLID_450_" class="st0" cx="1457" cy="441" r="8"/>
<circle id="XMLID_449_" class="st0" cx="1505" cy="441" r="8"/>
<circle id="XMLID_448_" class="st0" cx="17" cy="489" r="8"/>
<circle id="XMLID_447_" class="st0" cx="65" cy="489" r="8"/>
<circle id="XMLID_446_" class="st0" cx="113" cy="489" r="8"/>
<circle id="XMLID_445_" class="st1" cx="161" cy="489" r="8"/>
<circle id="XMLID_444_" class="st1" cx="209" cy="489" r="8"/>
<circle id="XMLID_443_" class="st0" cx="257" cy="489" r="8"/>
<circle id="XMLID_442_" class="st0" cx="305" cy="489" r="8"/>
<circle id="XMLID_441_" class="st0" cx="353" cy="489" r="8"/>
<circle id="XMLID_440_" class="st0" cx="401" cy="489" r="8"/>
<circle id="XMLID_439_" class="st0" cx="449" cy="489" r="8"/>
<circle id="XMLID_438_" class="st1" cx="497" cy="489" r="8"/>
<circle id="XMLID_437_" class="st0" cx="545" cy="489" r="8"/>
<circle id="XMLID_436_" class="st1" cx="593" cy="489" r="8"/>
<circle id="XMLID_435_" class="st1" cx="641" cy="489" r="8"/>
<circle id="XMLID_434_" class="st0" cx="689" cy="489" r="8"/>
<circle id="XMLID_433_" class="st0" cx="737" cy="489" r="8"/>
<circle id="XMLID_432_" class="st0" cx="785" cy="489" r="8"/>
<circle id="XMLID_431_" class="st0" cx="833" cy="489" r="8"/>
<circle id="XMLID_430_" class="st0" cx="881" cy="489" r="8"/>
<circle id="XMLID_429_" class="st0" cx="929" cy="489" r="8"/>
<circle id="XMLID_428_" class="st0" cx="977" cy="489" r="8"/>
<circle id="XMLID_427_" class="st0" cx="1025" cy="489" r="8"/>
<circle id="XMLID_426_" class="st0" cx="1073" cy="489" r="8"/>
<circle id="XMLID_425_" class="st0" cx="1121" cy="489" r="8"/>
<circle id="XMLID_424_" class="st1" cx="1169" cy="489" r="8"/>
<circle id="XMLID_423_" class="st0" cx="1217" cy="489" r="8"/>
<circle id="XMLID_422_" class="st0" cx="1265" cy="489" r="8"/>
<circle id="XMLID_421_" class="st0" cx="1313" cy="489" r="8"/>
<circle id="XMLID_420_" class="st0" cx="1361" cy="489" r="8"/>
<circle id="XMLID_419_" class="st1" cx="1409" cy="489" r="8"/>
<circle id="XMLID_418_" class="st0" cx="1457" cy="489" r="8"/>
<circle id="XMLID_417_" class="st0" cx="1505" cy="489" r="8"/>
<circle id="XMLID_416_" class="st0" cx="17" cy="537" r="8"/>
<circle id="XMLID_415_" class="st0" cx="65" cy="537" r="8"/>
<circle id="XMLID_414_" class="st1" cx="113" cy="537" r="8"/>
<circle id="XMLID_413_" class="st0" cx="161" cy="537" r="8"/>
<circle id="XMLID_412_" class="st0" cx="209" cy="537" r="8"/>
<circle id="XMLID_411_" class="st0" cx="257" cy="537" r="8"/>
<circle id="XMLID_410_" class="st1" cx="305" cy="537" r="8"/>
<circle id="XMLID_409_" class="st0" cx="353" cy="537" r="8"/>
<circle id="XMLID_408_" class="st0" cx="401" cy="537" r="8"/>
<circle id="XMLID_407_" class="st0" cx="449" cy="537" r="8"/>
<circle id="XMLID_406_" class="st0" cx="497" cy="537" r="8"/>
<circle id="XMLID_405_" class="st0" cx="545" cy="537" r="8"/>
<circle id="XMLID_404_" class="st0" cx="593" cy="537" r="8"/>
<circle id="XMLID_403_" class="st1" cx="641" cy="537" r="8"/>
<circle id="XMLID_402_" class="st5" cx="689" cy="537" r="8"/>
<circle id="XMLID_401_" class="st0" cx="737" cy="537" r="8"/>
<circle id="XMLID_400_" class="st0" cx="785" cy="537" r="8"/>
<circle id="XMLID_399_" class="st1" cx="833" cy="537" r="8"/>
<circle id="XMLID_398_" class="st0" cx="881" cy="537" r="8"/>
<circle id="XMLID_397_" class="st0" cx="929" cy="537" r="8"/>
<circle id="XMLID_396_" class="st0" cx="977" cy="537" r="8"/>
<circle id="XMLID_395_" class="st0" cx="1025" cy="537" r="8"/>
<circle id="XMLID_394_" class="st1" cx="1073" cy="537" r="8"/>
<circle id="XMLID_393_" class="st0" cx="1121" cy="537" r="8"/>
<circle id="XMLID_392_" class="st1" cx="1169" cy="537" r="8"/>
<circle id="XMLID_391_" class="st1" cx="1217" cy="537" r="8"/>
<circle id="XMLID_390_" class="st0" cx="1265" cy="537" r="8"/>
<circle id="XMLID_389_" class="st0" cx="1313" cy="537" r="8"/>
<circle id="XMLID_388_" class="st0" cx="1361" cy="537" r="8"/>
<circle id="XMLID_387_" class="st0" cx="1409" cy="537" r="8"/>
<circle id="XMLID_386_" class="st1" cx="1457" cy="537" r="8"/>
<circle id="XMLID_385_" class="st0" cx="1505" cy="537" r="8"/>
<circle id="XMLID_384_" class="st0" cx="17" cy="585" r="8"/>
<circle id="XMLID_383_" class="st0" cx="65" cy="585" r="8"/>
<circle id="XMLID_382_" class="st0" cx="113" cy="585" r="8"/>
<circle id="XMLID_381_" class="st1" cx="161" cy="585" r="8"/>
<circle id="XMLID_380_" class="st0" cx="209" cy="585" r="8"/>
<circle id="XMLID_379_" class="st0" cx="257" cy="585" r="8"/>
<circle id="XMLID_378_" class="st0" cx="305" cy="585" r="8"/>
<circle id="XMLID_377_" class="st1" cx="353" cy="585" r="8"/>
<circle id="XMLID_376_" class="st0" cx="401" cy="585" r="8"/>
<circle id="XMLID_375_" class="st0" cx="449" cy="585" r="8"/>
<circle id="XMLID_374_" class="st0" cx="497" cy="585" r="8"/>
<circle id="XMLID_373_" class="st0" cx="545" cy="585" r="8"/>
<circle id="XMLID_372_" class="st1" cx="593" cy="585" r="8"/>
<circle id="XMLID_371_" class="st0" cx="641" cy="585" r="8"/>
<circle id="XMLID_370_" class="st0" cx="689" cy="585" r="8"/>
<circle id="XMLID_369_" class="st1" cx="737" cy="585" r="8"/>
<circle id="XMLID_368_" class="st0" cx="785" cy="585" r="8"/>
<circle id="XMLID_367_" class="st1" cx="833" cy="585" r="8"/>
<circle id="XMLID_366_" class="st0" cx="881" cy="585" r="8"/>
<circle id="XMLID_365_" class="st0" cx="929" cy="585" r="8"/>
<circle id="XMLID_364_" class="st0" cx="977" cy="585" r="8"/>
<circle id="XMLID_363_" class="st0" cx="1025" cy="585" r="8"/>
<circle id="XMLID_362_" class="st1" cx="1073" cy="585" r="8"/>
<circle id="XMLID_361_" class="st0" cx="1121" cy="585" r="8"/>
<circle id="XMLID_360_" class="st0" cx="1169" cy="585" r="8"/>
<circle id="XMLID_359_" class="st0" cx="1217" cy="585" r="8"/>
<circle id="XMLID_358_" class="st0" cx="1265" cy="585" r="8"/>
<circle id="XMLID_357_" class="st0" cx="1313" cy="585" r="8"/>
<circle id="XMLID_356_" class="st0" cx="1361" cy="585" r="8"/>
<circle id="XMLID_355_" class="st0" cx="1409" cy="585" r="8"/>
<circle id="XMLID_354_" class="st1" cx="1457" cy="585" r="8"/>
<circle id="XMLID_353_" class="st0" cx="1505" cy="585" r="8"/>
<circle id="XMLID_352_" class="st0" cx="17" cy="633" r="8"/>
<circle id="XMLID_351_" class="st0" cx="65" cy="633" r="8"/>
<circle id="XMLID_350_" class="st1" cx="113" cy="633" r="8"/>
<circle id="XMLID_349_" class="st0" cx="161" cy="633" r="8"/>
<circle id="XMLID_348_" class="st1" cx="209" cy="633" r="8"/>
<circle id="XMLID_347_" class="st1" cx="257" cy="633" r="8"/>
<circle id="XMLID_346_" class="st0" cx="305" cy="633" r="8"/>
<circle id="XMLID_345_" class="st0" cx="353" cy="633" r="8"/>
<circle id="XMLID_344_" class="st0" cx="401" cy="633" r="8"/>
<circle id="XMLID_343_" class="st0" cx="449" cy="633" r="8"/>
<circle id="XMLID_342_" class="st0" cx="497" cy="633" r="8"/>
<circle id="XMLID_341_" class="st1" cx="545" cy="633" r="8"/>
<circle id="XMLID_340_" class="st1" cx="593" cy="633" r="8"/>
<circle id="XMLID_339_" class="st1" cx="641" cy="633" r="8"/>
<circle id="XMLID_338_" class="st0" cx="689" cy="633" r="8"/>
<circle id="XMLID_337_" class="st1" cx="737" cy="633" r="8"/>
<circle id="XMLID_336_" class="st0" cx="785" cy="633" r="8"/>
<circle id="XMLID_335_" class="st0" cx="833" cy="633" r="8"/>
<circle id="XMLID_334_" class="st0" cx="881" cy="633" r="8"/>
<circle id="XMLID_333_" class="st0" cx="929" cy="633" r="8"/>
<circle id="XMLID_332_" class="st0" cx="977" cy="633" r="8"/>
<circle id="XMLID_331_" class="st0" cx="1025" cy="633" r="8"/>
<circle id="XMLID_330_" class="st1" cx="1073" cy="633" r="8"/>
<circle id="XMLID_329_" class="st0" cx="1121" cy="633" r="8"/>
<circle id="XMLID_328_" class="st0" cx="1169" cy="633" r="8"/>
<circle id="XMLID_327_" class="st0" cx="1217" cy="633" r="8"/>
<circle id="XMLID_326_" class="st0" cx="1265" cy="633" r="8"/>
<circle id="XMLID_325_" class="st0" cx="1313" cy="633" r="8"/>
<circle id="XMLID_324_" class="st1" cx="1361" cy="633" r="8"/>
<circle id="XMLID_323_" class="st0" cx="1409" cy="633" r="8"/>
<circle id="XMLID_322_" class="st0" cx="1457" cy="633" r="8"/>
<circle id="XMLID_321_" class="st0" cx="1505" cy="633" r="8"/>
<circle id="XMLID_320_" class="st1" cx="17" cy="681" r="8"/>
<circle id="XMLID_319_" class="st0" cx="65" cy="681" r="8"/>
<circle id="XMLID_318_" class="st0" cx="113" cy="681" r="8"/>
<circle id="XMLID_317_" class="st1" cx="161" cy="681" r="8"/>
<circle id="XMLID_316_" class="st0" cx="209" cy="681" r="8"/>
<circle id="XMLID_315_" class="st0" cx="257" cy="681" r="8"/>
<circle id="XMLID_314_" class="st0" cx="305" cy="681" r="8"/>
<circle id="XMLID_313_" class="st0" cx="353" cy="681" r="8"/>
<circle id="XMLID_312_" class="st0" cx="401" cy="681" r="8"/>
<circle id="XMLID_311_" class="st0" cx="449" cy="681" r="8"/>
<circle id="XMLID_310_" class="st2" cx="689" cy="681" r="8"/>
<circle id="XMLID_309_" class="st0" cx="545" cy="681" r="8"/>
<circle id="XMLID_308_" class="st1" cx="593" cy="681" r="8"/>
<circle id="XMLID_307_" class="st1" cx="641" cy="681" r="8"/>
<circle id="XMLID_306_" class="st0" cx="497" cy="681" r="8"/>
<circle id="XMLID_305_" class="st1" cx="737" cy="681" r="8"/>
<circle id="XMLID_304_" class="st0" cx="785" cy="681" r="8"/>
<circle id="XMLID_303_" class="st0" cx="833" cy="681" r="8"/>
<circle id="XMLID_302_" class="st0" cx="881" cy="681" r="8"/>
<circle id="XMLID_301_" class="st0" cx="929" cy="681" r="8"/>
<circle id="XMLID_300_" class="st0" cx="977" cy="681" r="8"/>
<circle id="XMLID_299_" class="st1" cx="1025" cy="681" r="8"/>
<circle id="XMLID_298_" class="st0" cx="1073" cy="681" r="8"/>
<circle id="XMLID_297_" class="st1" cx="1121" cy="681" r="8"/>
<circle id="XMLID_296_" class="st0" cx="1169" cy="681" r="8"/>
<circle id="XMLID_295_" class="st0" cx="1217" cy="681" r="8"/>
<circle id="XMLID_294_" class="st1" cx="1265" cy="681" r="8"/>
<circle id="XMLID_293_" class="st0" cx="1313" cy="681" r="8"/>
<circle id="XMLID_292_" class="st0" cx="1361" cy="681" r="8"/>
<circle id="XMLID_291_" class="st0" cx="1409" cy="681" r="8"/>
<circle id="XMLID_290_" class="st0" cx="1457" cy="681" r="8"/>
<circle id="XMLID_289_" class="st0" cx="1505" cy="681" r="8"/>
<circle id="XMLID_288_" class="st3" cx="17" cy="729" r="8"/>
<circle id="XMLID_287_" class="st0" cx="65" cy="729" r="8"/>
<circle id="XMLID_286_" class="st1" cx="113" cy="729" r="8"/>
<circle id="XMLID_285_" class="st0" cx="161" cy="729" r="8"/>
<circle id="XMLID_284_" class="st0" cx="209" cy="729" r="8"/>
<circle id="XMLID_283_" class="st0" cx="257" cy="729" r="8"/>
<circle id="XMLID_282_" class="st1" cx="305" cy="729" r="8"/>
<circle id="XMLID_281_" class="st0" cx="353" cy="729" r="8"/>
<circle id="XMLID_280_" class="st0" cx="401" cy="729" r="8"/>
<circle id="XMLID_279_" class="st0" cx="449" cy="729" r="8"/>
<circle id="XMLID_278_" class="st3" cx="497" cy="729" r="8"/>
<circle id="XMLID_277_" class="st0" cx="545" cy="729" r="8"/>
<circle id="XMLID_276_" class="st0" cx="593" cy="729" r="8"/>
<circle id="XMLID_275_" class="st0" cx="641" cy="729" r="8"/>
<circle id="XMLID_274_" class="st1" cx="689" cy="729" r="8"/>
<circle id="XMLID_273_" class="st0" cx="737" cy="729" r="8"/>
<circle id="XMLID_272_" class="st0" cx="785" cy="729" r="8"/>
<circle id="XMLID_271_" class="st0" cx="833" cy="729" r="8"/>
<circle id="XMLID_270_" class="st0" cx="881" cy="729" r="8"/>
<circle id="XMLID_269_" class="st0" cx="929" cy="729" r="8"/>
<circle id="XMLID_268_" class="st0" cx="977" cy="729" r="8"/>
<circle id="XMLID_267_" class="st0" cx="1025" cy="729" r="8"/>
<circle id="XMLID_266_" class="st0" cx="1073" cy="729" r="8"/>
<circle id="XMLID_265_" class="st0" cx="1121" cy="729" r="8"/>
<circle id="XMLID_264_" class="st0" cx="1169" cy="729" r="8"/>
<circle id="XMLID_263_" class="st3" cx="1217" cy="729" r="8"/>
<circle id="XMLID_262_" class="st5" cx="1265" cy="729" r="8"/>
<circle id="XMLID_261_" class="st1" cx="1313" cy="729" r="8"/>
<circle id="XMLID_260_" class="st0" cx="1361" cy="729" r="8"/>
<circle id="XMLID_259_" class="st1" cx="1409" cy="729" r="8"/>
<circle id="XMLID_258_" class="st1" cx="1457" cy="729" r="8"/>
<circle id="XMLID_257_" class="st1" cx="1505" cy="729" r="8"/>
<circle id="XMLID_256_" class="st0" cx="17" cy="777" r="8"/>
<circle id="XMLID_255_" class="st0" cx="65" cy="777" r="8"/>
<circle id="XMLID_254_" class="st1" cx="113" cy="777" r="8"/>
<circle id="XMLID_253_" class="st1" cx="209" cy="777" r="8"/>
<circle id="XMLID_252_" class="st0" cx="257" cy="777" r="8"/>
<circle id="XMLID_251_" class="st1" cx="305" cy="777" r="8"/>
<circle id="XMLID_250_" class="st0" cx="353" cy="777" r="8"/>
<circle id="XMLID_249_" class="st0" cx="401" cy="777" r="8"/>
<circle id="XMLID_248_" class="st1" cx="449" cy="777" r="8"/>
<circle id="XMLID_247_" class="st1" cx="497" cy="777" r="8"/>
<circle id="XMLID_246_" class="st0" cx="545" cy="777" r="8"/>
<circle id="XMLID_245_" class="st0" cx="593" cy="777" r="8"/>
<circle id="XMLID_244_" class="st0" cx="641" cy="777" r="8"/>
<circle id="XMLID_243_" class="st0" cx="689" cy="777" r="8"/>
<circle id="XMLID_242_" class="st1" cx="737" cy="777" r="8"/>
<circle id="XMLID_241_" class="st0" cx="785" cy="777" r="8"/>
<circle id="XMLID_240_" class="st0" cx="833" cy="777" r="8"/>
<circle id="XMLID_239_" class="st0" cx="881" cy="777" r="8"/>
<circle id="XMLID_238_" class="st0" cx="929" cy="777" r="8"/>
<circle id="XMLID_237_" class="st0" cx="977" cy="777" r="8"/>
<circle id="XMLID_236_" class="st0" cx="1025" cy="777" r="8"/>
<circle id="XMLID_235_" class="st0" cx="1073" cy="777" r="8"/>
<circle id="XMLID_234_" class="st1" cx="1121" cy="777" r="8"/>
<circle id="XMLID_233_" class="st0" cx="1169" cy="777" r="8"/>
<circle id="XMLID_232_" class="st0" cx="1217" cy="777" r="8"/>
<circle id="XMLID_231_" class="st0" cx="1265" cy="777" r="8"/>
<circle id="XMLID_230_" class="st0" cx="1313" cy="777" r="8"/>
<circle id="XMLID_229_" class="st0" cx="1361" cy="777" r="8"/>
<circle id="XMLID_228_" class="st0" cx="1409" cy="777" r="8"/>
<circle id="XMLID_227_" class="st0" cx="1457" cy="777" r="8"/>
<circle id="XMLID_226_" class="st1" cx="1505" cy="777" r="8"/>
<circle id="XMLID_225_" class="st1" cx="17" cy="825" r="8"/>
<circle id="XMLID_224_" class="st0" cx="65" cy="825" r="8"/>
<circle id="XMLID_223_" class="st0" cx="113" cy="825" r="8"/>
<circle id="XMLID_222_" class="st0" cx="161" cy="825" r="8"/>
<circle id="XMLID_221_" class="st1" cx="209" cy="825" r="8"/>
<circle id="XMLID_220_" class="st0" cx="257" cy="825" r="8"/>
<circle id="XMLID_219_" class="st0" cx="305" cy="825" r="8"/>
<circle id="XMLID_218_" class="st0" cx="353" cy="825" r="8"/>
<circle id="XMLID_217_" class="st0" cx="401" cy="825" r="8"/>
<circle id="XMLID_216_" class="st0" cx="449" cy="825" r="8"/>
<circle id="XMLID_215_" class="st1" cx="497" cy="825" r="8"/>
<circle id="XMLID_214_" class="st1" cx="545" cy="825" r="8"/>
<circle id="XMLID_213_" class="st0" cx="593" cy="825" r="8"/>
<circle id="XMLID_212_" class="st0" cx="641" cy="825" r="8"/>
<circle id="XMLID_211_" class="st0" cx="689" cy="825" r="8"/>
<circle id="XMLID_210_" class="st1" cx="737" cy="825" r="8"/>
<circle id="XMLID_209_" class="st0" cx="785" cy="825" r="8"/>
<circle id="XMLID_208_" class="st0" cx="833" cy="825" r="8"/>
<circle id="XMLID_207_" class="st0" cx="881" cy="825" r="8"/>
<circle id="XMLID_206_" class="st0" cx="929" cy="825" r="8"/>
<circle id="XMLID_205_" class="st0" cx="977" cy="825" r="8"/>
<circle id="XMLID_204_" class="st0" cx="1025" cy="825" r="8"/>
<circle id="XMLID_203_" class="st0" cx="1073" cy="825" r="8"/>
<circle id="XMLID_202_" class="st0" cx="1121" cy="825" r="8"/>
<circle id="XMLID_201_" class="st1" cx="1169" cy="825" r="8"/>
<circle id="XMLID_200_" class="st0" cx="1217" cy="825" r="8"/>
<circle id="XMLID_199_" class="st0" cx="1265" cy="825" r="8"/>
<circle id="XMLID_198_" class="st1" cx="1313" cy="825" r="8"/>
<circle id="XMLID_197_" class="st0" cx="1361" cy="825" r="8"/>
<circle id="XMLID_196_" class="st1" cx="1409" cy="825" r="8"/>
<circle id="XMLID_195_" class="st0" cx="1457" cy="825" r="8"/>
<circle id="XMLID_194_" class="st0" cx="1505" cy="825" r="8"/>
<circle id="XMLID_193_" class="st0" cx="17" cy="873" r="8"/>
<circle id="XMLID_192_" class="st1" cx="65" cy="873" r="8"/>
<circle id="XMLID_191_" class="st1" cx="113" cy="873" r="8"/>
<circle id="XMLID_190_" class="st0" cx="161" cy="873" r="8"/>
<circle id="XMLID_189_" class="st0" cx="209" cy="873" r="8"/>
<circle id="XMLID_188_" class="st0" cx="257" cy="873" r="8"/>
<circle id="XMLID_187_" class="st0" cx="305" cy="873" r="8"/>
<circle id="XMLID_186_" class="st1" cx="353" cy="873" r="8"/>
<circle id="XMLID_185_" class="st1" cx="401" cy="873" r="8"/>
<circle id="XMLID_184_" class="st0" cx="449" cy="873" r="8"/>
<circle id="XMLID_183_" class="st0" cx="497" cy="873" r="8"/>
<circle id="XMLID_182_" class="st1" cx="545" cy="873" r="8"/>
<circle id="XMLID_181_" class="st0" cx="593" cy="873" r="8"/>
<circle id="XMLID_180_" class="st1" cx="641" cy="873" r="8"/>
<circle id="XMLID_179_" class="st0" cx="689" cy="873" r="8"/>
<circle id="XMLID_178_" class="st0" cx="737" cy="873" r="8"/>
<circle id="XMLID_177_" class="st0" cx="785" cy="873" r="8"/>
<circle id="XMLID_176_" class="st1" cx="833" cy="873" r="8"/>
<circle id="XMLID_175_" class="st0" cx="881" cy="873" r="8"/>
<circle id="XMLID_174_" class="st1" cx="929" cy="873" r="8"/>
<circle id="XMLID_173_" class="st0" cx="977" cy="873" r="8"/>
<circle id="XMLID_172_" class="st0" cx="1025" cy="873" r="8"/>
<circle id="XMLID_171_" class="st1" cx="1073" cy="873" r="8"/>
<circle id="XMLID_170_" class="st1" cx="1121" cy="873" r="8"/>
<circle id="XMLID_169_" class="st1" cx="1169" cy="873" r="8"/>
<circle id="XMLID_168_" class="st0" cx="1217" cy="873" r="8"/>
<circle id="XMLID_167_" class="st0" cx="1265" cy="873" r="8"/>
<circle id="XMLID_166_" class="st1" cx="1313" cy="873" r="8"/>
<circle id="XMLID_165_" class="st0" cx="1361" cy="873" r="8"/>
<circle id="XMLID_164_" class="st0" cx="1409" cy="873" r="8"/>
<circle id="XMLID_163_" class="st0" cx="1457" cy="873" r="8"/>
<circle id="XMLID_162_" class="st0" cx="1505" cy="873" r="8"/>
<circle id="XMLID_161_" class="st0" cx="17" cy="921" r="8"/>
<circle id="XMLID_160_" class="st0" cx="65" cy="921" r="8"/>
<circle id="XMLID_159_" class="st0" cx="113" cy="921" r="8"/>
<circle id="XMLID_158_" class="st5" cx="161" cy="921" r="8"/>
<circle id="XMLID_157_" class="st1" cx="209" cy="921" r="8"/>
<circle id="XMLID_156_" class="st1" cx="257" cy="921" r="8"/>
<circle id="XMLID_155_" class="st0" cx="305" cy="921" r="8"/>
<circle id="XMLID_154_" class="st0" cx="353" cy="921" r="8"/>
<circle id="XMLID_153_" class="st0" cx="401" cy="921" r="8"/>
<circle id="XMLID_152_" class="st1" cx="449" cy="921" r="8"/>
<circle id="XMLID_151_" class="st0" cx="497" cy="921" r="8"/>
<circle id="XMLID_150_" class="st0" cx="545" cy="921" r="8"/>
<circle id="XMLID_149_" class="st0" cx="593" cy="921" r="8"/>
<circle id="XMLID_148_" class="st0" cx="641" cy="921" r="8"/>
<circle id="XMLID_147_" class="st0" cx="689" cy="921" r="8"/>
<circle id="XMLID_146_" class="st0" cx="737" cy="921" r="8"/>
<circle id="XMLID_145_" class="st0" cx="785" cy="921" r="8"/>
<circle id="XMLID_144_" class="st0" cx="833" cy="921" r="8"/>
<circle id="XMLID_143_" class="st0" cx="881" cy="921" r="8"/>
<circle id="XMLID_142_" class="st0" cx="929" cy="921" r="8"/>
<circle id="XMLID_141_" class="st0" cx="977" cy="921" r="8"/>
<circle id="XMLID_140_" class="st0" cx="1025" cy="921" r="8"/>
<circle id="XMLID_139_" class="st0" cx="1073" cy="921" r="8"/>
<circle id="XMLID_138_" class="st1" cx="1121" cy="921" r="8"/>
<circle id="XMLID_137_" class="st0" cx="1169" cy="921" r="8"/>
<circle id="XMLID_136_" class="st1" cx="1217" cy="921" r="8"/>
<circle id="XMLID_135_" class="st0" cx="1265" cy="921" r="8"/>
<circle id="XMLID_134_" class="st0" cx="1313" cy="921" r="8"/>
<circle id="XMLID_133_" class="st0" cx="1361" cy="921" r="8"/>
<circle id="XMLID_132_" class="st0" cx="1409" cy="921" r="8"/>
<circle id="XMLID_131_" class="st0" cx="1457" cy="921" r="8"/>
<circle id="XMLID_130_" class="st0" cx="1505" cy="921" r="8"/>
<circle id="XMLID_129_" class="st0" cx="17" cy="969" r="8"/>
<circle id="XMLID_128_" class="st1" cx="65" cy="969" r="8"/>
<circle id="XMLID_127_" class="st1" cx="113" cy="969" r="8"/>
<circle id="XMLID_126_" class="st4" cx="161" cy="969" r="8"/>
<circle id="XMLID_125_" class="st1" cx="209" cy="969" r="8"/>
<circle id="XMLID_124_" class="st0" cx="257" cy="969" r="8"/>
<circle id="XMLID_123_" class="st1" cx="305" cy="969" r="8"/>
<circle id="XMLID_122_" class="st0" cx="353" cy="969" r="8"/>
<circle id="XMLID_121_" class="st0" cx="401" cy="969" r="8"/>
<circle id="XMLID_120_" class="st0" cx="449" cy="969" r="8"/>
<circle id="XMLID_119_" class="st0" cx="497" cy="969" r="8"/>
<circle id="XMLID_118_" class="st0" cx="545" cy="969" r="8"/>
<circle id="XMLID_117_" class="st1" cx="593" cy="969" r="8"/>
<circle id="XMLID_116_" class="st0" cx="641" cy="969" r="8"/>
<circle id="XMLID_115_" class="st0" cx="689" cy="969" r="8"/>
<circle id="XMLID_114_" class="st0" cx="737" cy="969" r="8"/>
<circle id="XMLID_113_" class="st0" cx="785" cy="969" r="8"/>
<circle id="XMLID_112_" class="st0" cx="833" cy="969" r="8"/>
<circle id="XMLID_111_" class="st0" cx="881" cy="969" r="8"/>
<circle id="XMLID_110_" class="st0" cx="929" cy="969" r="8"/>
<circle id="XMLID_109_" class="st0" cx="977" cy="969" r="8"/>
<circle id="XMLID_108_" class="st0" cx="1025" cy="969" r="8"/>
<circle id="XMLID_107_" class="st0" cx="1073" cy="969" r="8"/>
<circle id="XMLID_106_" class="st1" cx="1121" cy="969" r="8"/>
<circle id="XMLID_105_" class="st0" cx="1169" cy="969" r="8"/>
<circle id="XMLID_104_" class="st1" cx="1217" cy="969" r="8"/>
<circle id="XMLID_103_" class="st0" cx="1265" cy="969" r="8"/>
<circle id="XMLID_102_" class="st1" cx="1313" cy="969" r="8"/>
<circle id="XMLID_101_" class="st0" cx="1361" cy="969" r="8"/>
<circle id="XMLID_100_" class="st1" cx="1409" cy="969" r="8"/>
<circle id="XMLID_99_" class="st1" cx="1457" cy="969" r="8"/>
<circle id="XMLID_98_" class="st1" cx="1505" cy="969" r="8"/>
<circle id="XMLID_97_" class="st0" cx="17" cy="1017" r="8"/>
<circle id="XMLID_96_" class="st1" cx="65" cy="1017" r="8"/>
<circle id="XMLID_95_" class="st0" cx="113" cy="1017" r="8"/>
<circle id="XMLID_94_" class="st0" cx="161" cy="1017" r="8"/>
<circle id="XMLID_93_" class="st0" cx="209" cy="1017" r="8"/>
<circle id="XMLID_92_" class="st0" cx="257" cy="1017" r="8"/>
<circle id="XMLID_91_" class="st0" cx="305" cy="1017" r="8"/>
<circle id="XMLID_90_" class="st0" cx="353" cy="1017" r="8"/>
<circle id="XMLID_89_" class="st0" cx="401" cy="1017" r="8"/>
<circle id="XMLID_88_" class="st0" cx="449" cy="1017" r="8"/>
<circle id="XMLID_87_" class="st1" cx="497" cy="1017" r="8"/>
<circle id="XMLID_86_" class="st0" cx="545" cy="1017" r="8"/>
<circle id="XMLID_85_" class="st0" cx="593" cy="1017" r="8"/>
<circle id="XMLID_84_" class="st1" cx="641" cy="1017" r="8"/>
<circle id="XMLID_83_" class="st1" cx="689" cy="1017" r="8"/>
<circle id="XMLID_82_" class="st0" cx="737" cy="1017" r="8"/>
<circle id="XMLID_81_" class="st1" cx="785" cy="1017" r="8"/>
<circle id="XMLID_80_" class="st0" cx="833" cy="1017" r="8"/>
<circle id="XMLID_79_" class="st4" cx="881" cy="1017" r="8"/>
<circle id="XMLID_78_" class="st0" cx="929" cy="1017" r="8"/>
<circle id="XMLID_77_" class="st0" cx="977" cy="1017" r="8"/>
<circle id="XMLID_76_" class="st0" cx="1025" cy="1017" r="8"/>
<circle id="XMLID_75_" class="st0" cx="1073" cy="1017" r="8"/>
<circle id="XMLID_74_" class="st1" cx="1121" cy="1017" r="8"/>
<circle id="XMLID_73_" class="st0" cx="1169" cy="1017" r="8"/>
<circle id="XMLID_72_" class="st1" cx="1217" cy="1017" r="8"/>
<circle id="XMLID_71_" class="st0" cx="1265" cy="1017" r="8"/>
<circle id="XMLID_70_" class="st1" cx="1313" cy="1017" r="8"/>
<circle id="XMLID_69_" class="st0" cx="1361" cy="1017" r="8"/>
<circle id="XMLID_68_" class="st0" cx="1409" cy="1017" r="8"/>
<circle id="XMLID_67_" class="st0" cx="1457" cy="1017" r="8"/>
<circle id="XMLID_66_" class="st0" cx="1505" cy="1017" r="8"/>
<circle id="XMLID_65_" class="st0" cx="17" cy="1065" r="8"/>
<circle id="XMLID_64_" class="st0" cx="65" cy="1065" r="8"/>
<circle id="XMLID_63_" class="st0" cx="113" cy="1065" r="8"/>
<circle id="XMLID_62_" class="st0" cx="161" cy="1065" r="8"/>
<circle id="XMLID_61_" class="st1" cx="209" cy="1065" r="8"/>
<circle id="XMLID_60_" class="st0" cx="257" cy="1065" r="8"/>
<circle id="XMLID_59_" class="st0" cx="305" cy="1065" r="8"/>
<circle id="XMLID_58_" class="st0" cx="353" cy="1065" r="8"/>
<circle id="XMLID_57_" class="st0" cx="401" cy="1065" r="8"/>
<circle id="XMLID_56_" class="st0" cx="449" cy="1065" r="8"/>
<circle id="XMLID_55_" class="st0" cx="497" cy="1065" r="8"/>
<circle id="XMLID_54_" class="st1" cx="545" cy="1065" r="8"/>
<circle id="XMLID_53_" class="st0" cx="593" cy="1065" r="8"/>
<circle id="XMLID_52_" class="st0" cx="641" cy="1065" r="8"/>
<circle id="XMLID_51_" class="st1" cx="689" cy="1065" r="8"/>
<circle id="XMLID_50_" class="st0" cx="737" cy="1065" r="8"/>
<circle id="XMLID_49_" class="st0" cx="785" cy="1065" r="8"/>
<circle id="XMLID_48_" class="st0" cx="833" cy="1065" r="8"/>
<circle id="XMLID_47_" class="st1" cx="881" cy="1065" r="8"/>
<circle id="XMLID_46_" class="st0" cx="929" cy="1065" r="8"/>
<circle id="XMLID_45_" class="st0" cx="977" cy="1065" r="8"/>
<circle id="XMLID_44_" class="st0" cx="1025" cy="1065" r="8"/>
<circle id="XMLID_43_" class="st0" cx="1073" cy="1065" r="8"/>
<circle id="XMLID_42_" class="st1" cx="1121" cy="1065" r="8"/>
<circle id="XMLID_41_" class="st1" cx="1169" cy="1065" r="8"/>
<circle id="XMLID_40_" class="st0" cx="1217" cy="1065" r="8"/>
<circle id="XMLID_39_" class="st0" cx="1265" cy="1065" r="8"/>
<circle id="XMLID_38_" class="st0" cx="1313" cy="1065" r="8"/>
<circle id="XMLID_37_" class="st2" cx="1361" cy="1065" r="8"/>
<circle id="XMLID_36_" class="st1" cx="1409" cy="1065" r="8"/>
<circle id="XMLID_35_" class="st0" cx="1457" cy="1065" r="8"/>
<circle id="XMLID_34_" class="st0" cx="1505" cy="1065" r="8"/>
<circle id="XMLID_33_" class="st0" cx="17" cy="1113" r="8"/>
<circle id="XMLID_32_" class="st2" cx="65" cy="1113" r="8"/>
<circle id="XMLID_31_" class="st0" cx="113" cy="1113" r="8"/>
<circle id="XMLID_30_" class="st0" cx="161" cy="1113" r="8"/>
<circle id="XMLID_29_" class="st0" cx="209" cy="1113" r="8"/>
<circle id="XMLID_28_" class="st1" cx="257" cy="1113" r="8"/>
<circle id="XMLID_27_" class="st0" cx="305" cy="1113" r="8"/>
<circle id="XMLID_26_" class="st0" cx="353" cy="1113" r="8"/>
<circle id="XMLID_25_" class="st0" cx="401" cy="1113" r="8"/>
<circle id="XMLID_24_" class="st0" cx="449" cy="1113" r="8"/>
<circle id="XMLID_23_" class="st1" cx="497" cy="1113" r="8"/>
<circle id="XMLID_22_" class="st0" cx="545" cy="1113" r="8"/>
<circle id="XMLID_21_" class="st0" cx="593" cy="1113" r="8"/>
<circle id="XMLID_20_" class="st0" cx="641" cy="1113" r="8"/>
<circle id="XMLID_19_" class="st0" cx="689" cy="1113" r="8"/>
<circle id="XMLID_18_" class="st0" cx="737" cy="1113" r="8"/>
<circle id="XMLID_17_" class="st0" cx="785" cy="1113" r="8"/>
<circle id="XMLID_16_" class="st0" cx="833" cy="1113" r="8"/>
<circle id="XMLID_15_" class="st0" cx="881" cy="1113" r="8"/>
<circle id="XMLID_14_" class="st0" cx="929" cy="1113" r="8"/>
<circle id="XMLID_13_" class="st1" cx="977" cy="1113" r="8"/>
<circle id="XMLID_12_" class="st0" cx="1025" cy="1113" r="8"/>
<circle id="XMLID_11_" class="st0" cx="1073" cy="1113" r="8"/>
<circle id="XMLID_10_" class="st0" cx="1121" cy="1113" r="8"/>
<circle id="XMLID_9_" class="st0" cx="1169" cy="1113" r="8"/>
<circle id="XMLID_8_" class="st0" cx="1217" cy="1113" r="8"/>
<circle id="XMLID_7_" class="st1" cx="1265" cy="1113" r="8"/>
<circle id="XMLID_6_" class="st0" cx="1313" cy="1113" r="8"/>
<circle id="XMLID_5_" class="st0" cx="1361" cy="1113" r="8"/>
<circle id="XMLID_4_" class="st1" cx="1409" cy="1113" r="8"/>
<circle id="XMLID_3_" class="st0" cx="1457" cy="1113" r="8"/>
<circle id="XMLID_2_" class="st0" cx="1505" cy="1113" r="8"/>
</svg>
