<svg width="178" height="139" viewBox="0 0 178 139" fill="none" xmlns="http://www.w3.org/2000/svg">
<circle cx="13.0329" cy="5.31023" r="5.31023" fill="#FDD444"/>
<circle cx="44.8942" cy="5.31023" r="5.31023" fill="#FDD444"/>
<circle cx="76.7557" cy="5.31023" r="5.31023" fill="#F5F4F7"/>
<circle cx="108.617" cy="5.31023" r="5.31023" fill="#FDD444"/>
<circle cx="140.478" cy="5.31023" r="5.31023" fill="#FD4487"/>
<circle cx="172.34" cy="5.31023" r="5.31023" fill="#F5F4F7"/>
<circle cx="13.0329" cy="37.1716" r="5.31023" fill="#F5F4F7"/>
<circle cx="44.8942" cy="37.1716" r="5.31023" fill="#F5F4F7"/>
<circle cx="76.7557" cy="37.1716" r="5.31023" fill="#FD4487"/>
<circle cx="108.617" cy="37.1716" r="5.31023" fill="#F5F4F7"/>
<circle cx="140.478" cy="37.1716" r="5.31023" fill="#F5F4F7"/>
<circle cx="172.34" cy="37.1716" r="5.31023" fill="#FDD444"/>
<circle cx="13.0329" cy="69.0329" r="5.31023" fill="#F5F4F7"/>
<circle cx="44.8942" cy="69.0329" r="5.31023" fill="#F5F4F7"/>
<circle cx="76.7557" cy="69.0329" r="5.31023" fill="#FD4487"/>
<circle cx="108.617" cy="69.0329" r="5.31023" fill="#FD4487"/>
<circle cx="140.478" cy="69.0329" r="5.31023" fill="#FDD444"/>
<circle cx="172.34" cy="69.0329" r="5.31023" fill="#F5F4F7"/>
<circle cx="140.478" cy="100.894" r="5.31023" fill="#F5F4F7"/>
<circle cx="13.0329" cy="100.894" r="5.31023" fill="#FD4487"/>
<circle cx="44.8942" cy="100.894" r="5.31023" fill="#F5F4F7"/>
<circle cx="76.7557" cy="100.894" r="5.31023" fill="#FDD444"/>
<circle cx="108.617" cy="100.894" r="5.31023" fill="#F5F4F7"/>
<circle cx="172.34" cy="100.894" r="5.31023" fill="#FD4487"/>
<circle cx="13.0329" cy="132.756" r="5.31023" fill="#FD4487"/>
<circle cx="44.8942" cy="132.756" r="5.31023" fill="#F5F4F7"/>
<circle cx="76.7557" cy="132.756" r="5.31023" fill="#F5F4F7"/>
<circle cx="108.617" cy="132.756" r="5.31023" fill="#F5F4F7"/>
<circle cx="140.478" cy="132.756" r="5.31023" fill="#FDD444"/>
<circle cx="172.34" cy="132.756" r="5.31023" fill="#FD4487"/>
</svg>
