<svg width="352" height="208" viewBox="0 0 352 208" fill="none" xmlns="http://www.w3.org/2000/svg">
<circle cx="8" cy="8" r="8" fill="#44FDBA"/>
<circle cx="56" cy="8" r="8" fill="#F5F4F7"/>
<circle cx="104" cy="8" r="8" fill="#F5F4F7"/>
<circle cx="152" cy="8" r="8" fill="#F5F4F7"/>
<circle cx="200" cy="8" r="8" fill="#7D44FD"/>
<circle cx="248" cy="8" r="8" fill="#F5F4F7"/>
<circle cx="296" cy="8" r="8" fill="#44FDBA"/>
<circle cx="344" cy="8" r="8" fill="#F5F4F7"/>
<circle cx="56" cy="56" r="8" fill="#F5F4F7"/>
<circle cx="104" cy="56" r="8" fill="#F5F4F7"/>
<circle cx="152" cy="56" r="8" fill="#F5F4F7"/>
<circle cx="200" cy="56" r="8" fill="#44FDBA"/>
<circle cx="248" cy="56" r="8" fill="#7D44FD"/>
<circle cx="296" cy="56" r="8" fill="#7D44FD"/>
<circle cx="344" cy="56" r="8" fill="#F5F4F7"/>
<circle cx="8" cy="104" r="8" fill="#F5F4F7"/>
<circle cx="56" cy="104" r="8" fill="#7D44FD"/>
<circle cx="104" cy="104" r="8" fill="#FD4487"/>
<circle cx="152" cy="104" r="8" fill="#7D44FD"/>
<circle cx="200" cy="104" r="8" fill="#44FDBA"/>
<circle cx="248" cy="104" r="8" fill="#44FDBA"/>
<circle cx="296" cy="104" r="8" fill="#F5F4F7"/>
<circle cx="344" cy="104" r="8" fill="#F5F4F7"/>
<circle cx="8" cy="152" r="8" fill="#F5F4F7"/>
<circle cx="296" cy="152" r="8" fill="#7D44FD"/>
<circle cx="104" cy="152" r="8" fill="#FDD444"/>
<circle cx="152" cy="152" r="8" fill="#F5F4F7"/>
<circle cx="200" cy="152" r="8" fill="#F5F4F7"/>
<circle cx="248" cy="152" r="8" fill="#F5F4F7"/>
<circle cx="344" cy="152" r="8" fill="#44FDBA"/>
<circle cx="56" cy="200" r="8" fill="#F5F4F7"/>
<circle cx="104" cy="200" r="8" fill="#44FDBA"/>
<circle cx="152" cy="200" r="8" fill="#7D44FD"/>
<circle cx="200" cy="200" r="8" fill="#F5F4F7"/>
<circle cx="296" cy="200" r="8" fill="#F5F4F7"/>
<circle cx="344" cy="200" r="8" fill="#FDD444"/>
</svg>
