<svg width="256" height="26" viewBox="0 0 256 26" fill="none" xmlns="http://www.w3.org/2000/svg">
<path d="M4.30927 6.60786C3.08006 7.82131 1.99268 9.19236 1.04713 10.6737C0.999853 10.7368 0.952576 10.8156 0.921058 10.8943C0.716189 10.3585 0.542837 9.82272 0.416764 9.30267C-1.34826 2.57352 2.65456 -1.38202 9.36796 0.446036C10.2347 0.682423 11.1015 0.997606 11.9525 1.39158C10.6917 1.94315 9.46251 2.58928 8.32785 3.36148C6.89377 4.30703 5.53849 5.37865 4.30927 6.60786Z" fill="white"/>
<path d="M12.8035 23.6751C8.46978 21.5791 4.38816 17.6236 2.02429 13.3213C2.27644 12.7855 2.5601 12.2812 2.85953 11.7769C3.679 10.4059 4.64031 9.09788 5.72769 7.90018C7.88669 5.53631 10.4397 3.48762 13.3551 2.11658C17.6889 4.54348 21.6287 8.71966 23.6616 13.1322C23.4725 13.5104 23.2676 13.8729 23.047 14.2196C22.2118 15.5906 21.2504 16.8987 20.1473 18.0806C18.0671 20.3499 15.5929 22.3198 12.8035 23.6751Z" fill="white"/>
<path d="M16.0659 24.9348C15.5301 24.793 14.9943 24.6039 14.4585 24.399C15.5144 23.7214 16.5072 22.9649 17.4212 22.1455C18.6819 21.0581 19.8166 19.8446 20.8567 18.5681C21.8968 17.2917 22.8266 15.9364 23.6303 14.518C23.8037 14.2186 23.977 13.9034 24.1346 13.5883C24.4971 14.4077 24.7965 15.243 25.0171 16.0782C26.7664 22.8074 22.7636 26.7787 16.0659 24.9348Z" fill="white"/>
<path d="M25.0171 9.80684C24.6862 10.9573 24.2292 12.0604 23.6619 13.1163C23.4727 13.4945 23.2679 13.8569 23.0473 14.2036C22.212 15.5747 21.2507 16.8827 20.1476 18.0646C18.0358 20.334 15.5774 22.3196 12.788 23.6591C12.6777 23.7222 12.5674 23.7694 12.4571 23.8167C12.2838 23.8955 12.0946 23.9901 11.9055 24.0689L11.3382 24.2895L10.7709 24.5101C10.5818 24.5732 10.3927 24.6362 10.2036 24.6835C9.44711 24.9356 8.65915 25.109 7.8712 25.2035C6.29528 25.4084 4.64057 25.2666 3.25377 24.5259C2.90707 24.3525 2.59188 24.1161 2.29246 23.864C2.00879 23.5961 1.74089 23.3124 1.52026 22.9972C1.07901 22.3511 0.763823 21.6262 0.62199 20.854C0.306807 19.3096 0.495917 17.6864 0.921414 16.1578C1.18932 15.1807 1.56754 14.2352 2.0088 13.3211C2.26094 12.7853 2.54461 12.281 2.84403 11.7767C3.6635 10.4057 4.62481 9.09768 5.71219 7.89998C7.8712 5.53611 10.4242 3.48742 13.3396 2.11638C13.3396 2.11638 13.3554 2.11638 13.3554 2.10062C13.5287 2.02182 13.7178 1.92727 13.9069 1.84847L14.4585 1.62784L15.0258 1.40722C15.215 1.34418 15.4041 1.28114 15.5932 1.23387C16.3496 0.981719 17.1376 0.792609 17.9413 0.698055C19.5172 0.493186 21.1877 0.619258 22.5902 1.35994C22.9369 1.53329 23.2679 1.76968 23.5673 2.02182C23.8667 2.28973 24.1346 2.57339 24.3553 2.90433C24.8123 3.55046 25.1275 4.29114 25.285 5.0791C25.6318 6.62349 25.4426 8.26244 25.0171 9.80684Z" fill="white"/>
<path d="M31.2859 13.2903C31.2859 12.4844 31.411 11.7341 31.6611 11.0394C31.9112 10.3308 32.2655 9.71948 32.724 9.20539C33.1964 8.69131 33.7661 8.28837 34.433 7.9966C35.0999 7.70482 35.8502 7.55893 36.6839 7.55893C37.712 7.55893 38.6846 7.7465 39.6016 8.12164L39.0598 10.1849C38.768 10.0599 38.4345 9.95568 38.0594 9.87232C37.6981 9.78895 37.3091 9.74727 36.8923 9.74727C35.9058 9.74727 35.1555 10.0599 34.6414 10.6851C34.1273 11.2965 33.8703 12.1649 33.8703 13.2903C33.8703 14.374 34.1134 15.2355 34.5997 15.8746C35.086 16.4999 35.9058 16.8125 37.059 16.8125C37.4897 16.8125 37.9135 16.7708 38.3303 16.6874C38.7472 16.6041 39.1084 16.4999 39.4141 16.3748L39.7684 18.459C39.4905 18.5979 39.0667 18.7229 38.4971 18.8341C37.9413 18.9452 37.3647 19.0008 36.7672 19.0008C35.8363 19.0008 35.0235 18.8619 34.3288 18.584C33.648 18.2922 33.0783 17.8962 32.6198 17.396C32.1752 16.882 31.8417 16.2776 31.6194 15.5828C31.3971 14.8742 31.2859 14.1101 31.2859 13.2903Z" fill="white"/>
<path d="M51.3549 13.2695C51.3549 14.1309 51.2298 14.9159 50.9797 15.6245C50.7296 16.3331 50.3753 16.9375 49.9168 17.4377C49.4583 17.9379 48.9025 18.327 48.2495 18.6048C47.6104 18.8827 46.9018 19.0217 46.1237 19.0217C45.3456 19.0217 44.637 18.8827 43.9979 18.6048C43.3587 18.327 42.8099 17.9379 42.3514 17.4377C41.8929 16.9375 41.5316 16.3331 41.2677 15.6245C41.0176 14.9159 40.8925 14.1309 40.8925 13.2695C40.8925 12.408 41.0176 11.6299 41.2677 10.9352C41.5316 10.2266 41.8929 9.62222 42.3514 9.12203C42.8238 8.62184 43.3796 8.23975 44.0187 7.97575C44.6578 7.69787 45.3595 7.55893 46.1237 7.55893C46.8879 7.55893 47.5895 7.69787 48.2287 7.97575C48.8817 8.23975 49.4375 8.62184 49.896 9.12203C50.3545 9.62222 50.7088 10.2266 50.9589 10.9352C51.2229 11.6299 51.3549 12.408 51.3549 13.2695ZM48.7705 13.2695C48.7705 12.1857 48.5343 11.3312 48.0619 10.706C47.6034 10.0668 46.9573 9.74727 46.1237 9.74727C45.29 9.74727 44.637 10.0668 44.1646 10.706C43.7061 11.3312 43.4768 12.1857 43.4768 13.2695C43.4768 14.3671 43.7061 15.2355 44.1646 15.8746C44.637 16.5138 45.29 16.8333 46.1237 16.8333C46.9573 16.8333 47.6034 16.5138 48.0619 15.8746C48.5343 15.2355 48.7705 14.3671 48.7705 13.2695Z" fill="white"/>
<path d="M60.1636 12.9985C60.1636 11.8592 60.0177 11.0394 59.7259 10.5392C59.448 10.0252 58.9201 9.76811 58.142 9.76811C57.8641 9.76811 57.5584 9.78895 57.225 9.83064C56.8915 9.87232 56.6414 9.90705 56.4747 9.93484V18.7299H53.9529V8.18417C54.4392 8.04523 55.0714 7.91323 55.8494 7.78818C56.6414 7.66314 57.4751 7.60061 58.3504 7.60061C59.1007 7.60061 59.712 7.69787 60.1844 7.89239C60.6707 8.08691 61.0737 8.34395 61.3932 8.66352C61.5461 8.55237 61.7406 8.43427 61.9768 8.30922C62.213 8.18417 62.477 8.07301 62.7688 7.97575C63.0605 7.8646 63.3662 7.77429 63.6858 7.70482C64.0192 7.63535 64.3527 7.60061 64.6862 7.60061C65.5337 7.60061 66.2284 7.72566 66.7703 7.97575C67.3261 8.21196 67.7568 8.55237 68.0625 8.99698C68.382 9.4277 68.5974 9.95568 68.7085 10.5809C68.8336 11.1923 68.8961 11.8661 68.8961 12.6025V18.7299H66.3743V12.9985C66.3743 11.8592 66.2354 11.0394 65.9575 10.5392C65.6796 10.0252 65.1447 9.76811 64.3527 9.76811C63.9498 9.76811 63.5677 9.83758 63.2064 9.97652C62.8452 10.1016 62.5742 10.2266 62.3936 10.3517C62.5048 10.699 62.5812 11.0672 62.6229 11.4563C62.6645 11.8453 62.6854 12.2621 62.6854 12.7067V18.7299H60.1636V12.9985Z" fill="white"/>
<path d="M79.2175 13.332C79.2175 12.2065 78.9604 11.3312 78.4463 10.706C77.9461 10.0807 77.1333 9.76811 76.0079 9.76811C75.7717 9.76811 75.5216 9.78201 75.2576 9.80979C75.0075 9.82369 74.7574 9.86537 74.5073 9.93484V16.1664C74.7296 16.3192 75.0214 16.4651 75.3827 16.6041C75.7578 16.7291 76.1538 16.7916 76.5706 16.7916C77.4876 16.7916 78.1545 16.479 78.5714 15.8538C79.0021 15.2285 79.2175 14.3879 79.2175 13.332ZM81.8018 13.2903C81.8018 14.124 81.6906 14.8881 81.4683 15.5828C81.2599 16.2776 80.9542 16.875 80.5513 17.3752C80.1484 17.8754 79.6412 18.2644 79.0299 18.5423C78.4324 18.8202 77.7516 18.9591 76.9874 18.9591C76.4734 18.9591 76.0009 18.8966 75.5702 18.7716C75.1395 18.6465 74.7852 18.5076 74.5073 18.3547V22.5855H71.9855V8.18417C72.4996 8.04523 73.1318 7.91323 73.8821 7.78818C74.6324 7.66314 75.4243 7.60061 76.258 7.60061C77.1194 7.60061 77.8906 7.73261 78.5714 7.9966C79.2522 8.26059 79.8288 8.64268 80.3012 9.14287C80.7875 9.62917 81.1557 10.2266 81.4058 10.9352C81.6698 11.6299 81.8018 12.415 81.8018 13.2903Z" fill="white"/>
<path d="M88.2356 16.9584C89.0136 16.9584 89.6042 16.9167 90.0071 16.8333V14.0406C89.8681 13.9989 89.6667 13.9572 89.4027 13.9155C89.1387 13.8739 88.8469 13.853 88.5273 13.853C88.2495 13.853 87.9646 13.8739 87.6729 13.9155C87.395 13.9572 87.1379 14.0336 86.9017 14.1448C86.6794 14.2559 86.4988 14.4157 86.3599 14.6241C86.2209 14.8187 86.1514 15.0688 86.1514 15.3744C86.1514 15.9719 86.339 16.3887 86.7142 16.6249C87.0893 16.8472 87.5964 16.9584 88.2356 16.9584ZM88.0272 7.55893C88.8608 7.55893 89.5625 7.66314 90.1321 7.87155C90.7018 8.07996 91.1534 8.37174 91.4868 8.74688C91.8342 9.12203 92.0773 9.58054 92.2163 10.1224C92.3691 10.6504 92.4455 11.234 92.4455 11.8731V18.4798C92.0565 18.5632 91.466 18.6604 90.674 18.7716C89.8959 18.8966 89.0136 18.9591 88.0272 18.9591C87.3741 18.9591 86.7767 18.8966 86.2348 18.7716C85.6929 18.6465 85.2275 18.4451 84.8384 18.1672C84.4633 17.8893 84.1646 17.528 83.9423 17.0834C83.7338 16.6388 83.6296 16.09 83.6296 15.437C83.6296 14.8117 83.7477 14.2837 83.9839 13.853C84.234 13.4223 84.5675 13.0749 84.9843 12.8109C85.4011 12.5331 85.8805 12.3385 86.4224 12.2274C86.9781 12.1023 87.5548 12.0398 88.1522 12.0398C88.4301 12.0398 88.7219 12.0607 89.0275 12.1023C89.3332 12.1301 89.6597 12.1857 90.0071 12.2691V11.8522C90.0071 11.5605 89.9724 11.2826 89.9029 11.0186C89.8334 10.7546 89.7084 10.5253 89.5277 10.3308C89.361 10.1224 89.1317 9.96263 88.84 9.85148C88.5621 9.74032 88.2078 9.68475 87.7771 9.68475C87.1935 9.68475 86.6586 9.72643 86.1723 9.80979C85.686 9.89316 85.29 9.99042 84.9843 10.1016L84.6717 8.05912C84.9913 7.94797 85.4567 7.83681 86.0681 7.72566C86.6794 7.61451 87.3324 7.55893 88.0272 7.55893Z" fill="white"/>
<path d="M101.745 10.1016C101.536 10.0321 101.244 9.96263 100.869 9.89316C100.508 9.80979 100.084 9.76811 99.5978 9.76811C99.32 9.76811 99.0212 9.7959 98.7017 9.85148C98.396 9.90705 98.1806 9.95568 98.0556 9.99736V18.7299H95.5338V8.3509C96.0201 8.17027 96.6245 8.00354 97.347 7.85071C98.0834 7.68398 98.8962 7.60061 99.7854 7.60061C99.9521 7.60061 100.147 7.6145 100.369 7.64229C100.591 7.65619 100.814 7.68398 101.036 7.72566C101.258 7.75345 101.474 7.79513 101.682 7.85071C101.89 7.89239 102.057 7.93407 102.182 7.97575L101.745 10.1016Z" fill="white"/>
<path d="M103.335 13.332C103.335 12.3733 103.474 11.5327 103.752 10.8102C104.044 10.0877 104.426 9.49023 104.898 9.01782C105.371 8.53152 105.913 8.17027 106.524 7.93407C107.135 7.68398 107.76 7.55893 108.4 7.55893C109.9 7.55893 111.067 8.02439 111.901 8.9553C112.748 9.88621 113.172 11.2756 113.172 13.1236C113.172 13.2625 113.165 13.4223 113.151 13.6029C113.151 13.7696 113.144 13.9225 113.131 14.0614H105.94C106.01 14.9368 106.315 15.6176 106.857 16.1039C107.413 16.5763 108.212 16.8125 109.254 16.8125C109.865 16.8125 110.421 16.7569 110.921 16.6458C111.435 16.5346 111.838 16.4165 112.13 16.2915L112.464 18.3547C112.325 18.4242 112.13 18.5006 111.88 18.584C111.644 18.6535 111.366 18.716 111.046 18.7716C110.741 18.841 110.407 18.8966 110.046 18.9383C109.685 18.98 109.317 19.0008 108.941 19.0008C107.983 19.0008 107.149 18.8619 106.44 18.584C105.732 18.2922 105.148 17.8962 104.69 17.396C104.231 16.882 103.891 16.2845 103.669 15.6037C103.446 14.909 103.335 14.1517 103.335 13.332ZM110.65 12.2065C110.65 11.8592 110.602 11.5327 110.505 11.227C110.407 10.9074 110.261 10.6365 110.067 10.4142C109.886 10.178 109.657 9.99737 109.379 9.87232C109.115 9.73337 108.796 9.6639 108.42 9.6639C108.031 9.6639 107.691 9.74032 107.399 9.89316C107.107 10.0321 106.857 10.2197 106.649 10.4559C106.454 10.6921 106.302 10.963 106.19 11.2687C106.079 11.5744 106.003 11.887 105.961 12.2065H110.65Z" fill="white"/>
<path d="M119.681 16.9584C120.459 16.9584 121.049 16.9167 121.452 16.8333V14.0406C121.313 13.9989 121.112 13.9572 120.848 13.9155C120.584 13.8739 120.292 13.853 119.973 13.853C119.695 13.853 119.41 13.8739 119.118 13.9155C118.84 13.9572 118.583 14.0336 118.347 14.1448C118.125 14.2559 117.944 14.4157 117.805 14.6241C117.666 14.8187 117.597 15.0688 117.597 15.3744C117.597 15.9719 117.784 16.3887 118.159 16.6249C118.534 16.8472 119.042 16.9584 119.681 16.9584ZM119.472 7.55893C120.306 7.55893 121.008 7.66314 121.577 7.87155C122.147 8.07996 122.599 8.37174 122.932 8.74688C123.279 9.12203 123.523 9.58054 123.661 10.1224C123.814 10.6504 123.891 11.234 123.891 11.8731V18.4798C123.502 18.5632 122.911 18.6604 122.119 18.7716C121.341 18.8966 120.459 18.9591 119.472 18.9591C118.819 18.9591 118.222 18.8966 117.68 18.7716C117.138 18.6465 116.673 18.4451 116.284 18.1672C115.908 17.8893 115.61 17.528 115.387 17.0834C115.179 16.6388 115.075 16.09 115.075 15.437C115.075 14.8117 115.193 14.2837 115.429 13.853C115.679 13.4223 116.013 13.0749 116.43 12.8109C116.846 12.5331 117.326 12.3385 117.868 12.2274C118.423 12.1023 119 12.0398 119.597 12.0398C119.875 12.0398 120.167 12.0607 120.473 12.1023C120.778 12.1301 121.105 12.1857 121.452 12.2691V11.8522C121.452 11.5605 121.418 11.2826 121.348 11.0186C121.279 10.7546 121.154 10.5253 120.973 10.3308C120.806 10.1224 120.577 9.96263 120.285 9.85148C120.007 9.74032 119.653 9.68475 119.222 9.68475C118.639 9.68475 118.104 9.72643 117.617 9.80979C117.131 9.89316 116.735 9.99042 116.43 10.1016L116.117 8.05912C116.436 7.94797 116.902 7.83681 117.513 7.72566C118.125 7.61451 118.778 7.55893 119.472 7.55893Z" fill="white"/>
<path d="M130.772 18.9383C130.022 18.9244 129.397 18.841 128.896 18.6882C128.41 18.5354 128.021 18.32 127.729 18.0421C127.437 17.7503 127.229 17.396 127.104 16.9792C126.993 16.5485 126.937 16.0622 126.937 15.5203V2.97383L129.459 2.55701V15.041C129.459 15.3466 129.48 15.6037 129.522 15.8121C129.577 16.0205 129.668 16.2011 129.793 16.354C129.918 16.4929 130.084 16.6041 130.293 16.6874C130.515 16.7569 130.793 16.8125 131.126 16.8542L130.772 18.9383Z" fill="white"/>
<path d="M136.959 18.9383C136.209 18.9244 135.584 18.841 135.084 18.6882C134.597 18.5354 134.208 18.32 133.917 18.0421C133.625 17.7503 133.416 17.396 133.291 16.9792C133.18 16.5485 133.125 16.0622 133.125 15.5203V2.97383L135.646 2.55701V15.041C135.646 15.3466 135.667 15.6037 135.709 15.8121C135.764 16.0205 135.855 16.2011 135.98 16.354C136.105 16.4929 136.272 16.6041 136.48 16.6874C136.702 16.7569 136.98 16.8125 137.314 16.8542L136.959 18.9383Z" fill="white"/>
<path d="M146.585 13.2486C146.585 12.1788 146.37 11.3312 145.939 10.706C145.523 10.0807 144.856 9.76811 143.939 9.76811C143.522 9.76811 143.126 9.83064 142.751 9.95568C142.389 10.0807 142.098 10.2197 141.875 10.3725V16.6458C142.056 16.6874 142.285 16.7291 142.563 16.7708C142.855 16.7986 143.202 16.8125 143.605 16.8125C144.536 16.8125 145.266 16.4999 145.794 15.8746C146.321 15.2355 146.585 14.3602 146.585 13.2486ZM149.17 13.2903C149.17 14.1656 149.038 14.9576 148.774 15.6662C148.524 16.3609 148.156 16.9584 147.669 17.4586C147.197 17.9588 146.62 18.3408 145.939 18.6048C145.259 18.8688 144.487 19.0008 143.626 19.0008C142.792 19.0008 141.993 18.9383 141.229 18.8133C140.479 18.6882 139.854 18.5493 139.354 18.3964V2.97383L141.875 2.55701V8.20501C142.167 8.05217 142.521 7.91323 142.938 7.78818C143.369 7.66314 143.841 7.60061 144.355 7.60061C145.12 7.60061 145.8 7.73955 146.398 8.01744C147.009 8.28143 147.516 8.66352 147.919 9.16371C148.322 9.6639 148.628 10.2683 148.836 10.9769C149.059 11.6716 149.17 12.4427 149.17 13.2903Z" fill="white"/>
<path d="M157.979 10.1016C157.771 10.0321 157.479 9.96263 157.104 9.89316C156.743 9.80979 156.319 9.76811 155.833 9.76811C155.555 9.76811 155.256 9.7959 154.937 9.85148C154.631 9.90705 154.416 9.95568 154.291 9.99736V18.7299H151.769V8.3509C152.255 8.17027 152.859 8.00354 153.582 7.85071C154.318 7.68398 155.131 7.60061 156.02 7.60061C156.187 7.60061 156.382 7.6145 156.604 7.64229C156.826 7.65619 157.049 7.68398 157.271 7.72566C157.493 7.75345 157.709 7.79513 157.917 7.85071C158.125 7.89239 158.292 7.93407 158.417 7.97575L157.979 10.1016Z" fill="white"/>
<path d="M170.032 13.2695C170.032 14.1309 169.907 14.9159 169.657 15.6245C169.407 16.3331 169.053 16.9375 168.594 17.4377C168.136 17.9379 167.58 18.327 166.927 18.6048C166.288 18.8827 165.579 19.0217 164.801 19.0217C164.023 19.0217 163.315 18.8827 162.675 18.6048C162.036 18.327 161.488 17.9379 161.029 17.4377C160.571 16.9375 160.209 16.3331 159.945 15.6245C159.695 14.9159 159.57 14.1309 159.57 13.2695C159.57 12.408 159.695 11.6299 159.945 10.9352C160.209 10.2266 160.571 9.62222 161.029 9.12203C161.501 8.62184 162.057 8.23975 162.696 7.97575C163.335 7.69787 164.037 7.55893 164.801 7.55893C165.565 7.55893 166.267 7.69787 166.906 7.97575C167.559 8.23975 168.115 8.62184 168.574 9.12203C169.032 9.62222 169.386 10.2266 169.636 10.9352C169.9 11.6299 170.032 12.408 170.032 13.2695ZM167.448 13.2695C167.448 12.1857 167.212 11.3312 166.74 10.706C166.281 10.0668 165.635 9.74727 164.801 9.74727C163.968 9.74727 163.315 10.0668 162.842 10.706C162.384 11.3312 162.154 12.1857 162.154 13.2695C162.154 14.3671 162.384 15.2355 162.842 15.8746C163.315 16.5138 163.968 16.8333 164.801 16.8333C165.635 16.8333 166.281 16.5138 166.74 15.8746C167.212 15.2355 167.448 14.3671 167.448 13.2695Z" fill="white"/>
<path d="M175.152 12.0815C175.472 11.748 175.812 11.3937 176.174 11.0186C176.535 10.6296 176.889 10.2475 177.236 9.87232C177.584 9.48328 177.91 9.11508 178.216 8.76773C178.536 8.40648 178.806 8.09386 179.029 7.82987H182.009C181.314 8.60794 180.578 9.41381 179.8 10.2475C179.036 11.0811 178.265 11.8939 177.487 12.6859C177.903 13.0333 178.341 13.457 178.8 13.9572C179.258 14.4435 179.703 14.9646 180.133 15.5203C180.564 16.0761 180.967 16.6319 181.342 17.1876C181.717 17.7434 182.03 18.2575 182.28 18.7299H179.362C179.112 18.2992 178.82 17.8476 178.487 17.3752C178.167 16.9028 177.82 16.4443 177.445 15.9997C177.07 15.5551 176.688 15.1382 176.299 14.7492C175.91 14.3463 175.527 14.0059 175.152 13.728V18.7299H172.63V2.97383L175.152 2.55701V12.0815Z" fill="white"/>
<path d="M183.017 13.332C183.017 12.3733 183.156 11.5327 183.433 10.8102C183.725 10.0877 184.107 9.49023 184.58 9.01782C185.052 8.53152 185.594 8.17027 186.205 7.93407C186.817 7.68398 187.442 7.55893 188.081 7.55893C189.582 7.55893 190.749 8.02439 191.582 8.9553C192.43 9.88621 192.854 11.2756 192.854 13.1236C192.854 13.2625 192.847 13.4223 192.833 13.6029C192.833 13.7696 192.826 13.9225 192.812 14.0614H185.622C185.691 14.9368 185.997 15.6176 186.539 16.1039C187.095 16.5763 187.894 16.8125 188.936 16.8125C189.547 16.8125 190.103 16.7569 190.603 16.6458C191.117 16.5346 191.52 16.4165 191.812 16.2915L192.145 18.3547C192.006 18.4242 191.812 18.5006 191.562 18.584C191.325 18.6535 191.047 18.716 190.728 18.7716C190.422 18.841 190.089 18.8966 189.728 18.9383C189.366 18.98 188.998 19.0008 188.623 19.0008C187.664 19.0008 186.831 18.8619 186.122 18.584C185.413 18.2922 184.83 17.8962 184.371 17.396C183.913 16.882 183.572 16.2845 183.35 15.6037C183.128 14.909 183.017 14.1517 183.017 13.332ZM190.332 12.2065C190.332 11.8592 190.283 11.5327 190.186 11.227C190.089 10.9074 189.943 10.6365 189.748 10.4142C189.568 10.178 189.339 9.99737 189.061 9.87232C188.797 9.73337 188.477 9.6639 188.102 9.6639C187.713 9.6639 187.372 9.74032 187.081 9.89316C186.789 10.0321 186.539 10.2197 186.33 10.4559C186.136 10.6921 185.983 10.963 185.872 11.2687C185.761 11.5744 185.684 11.887 185.643 12.2065H190.332Z" fill="white"/>
<path d="M201.738 10.1016C201.53 10.0321 201.238 9.96263 200.863 9.89316C200.502 9.80979 200.078 9.76811 199.592 9.76811C199.314 9.76811 199.015 9.7959 198.695 9.85148C198.39 9.90705 198.174 9.95568 198.049 9.99736V18.7299H195.527V8.3509C196.014 8.17027 196.618 8.00354 197.341 7.85071C198.077 7.68398 198.89 7.60061 199.779 7.60061C199.946 7.60061 200.14 7.6145 200.363 7.64229C200.585 7.65619 200.807 7.68398 201.03 7.72566C201.252 7.75345 201.467 7.79513 201.676 7.85071C201.884 7.89239 202.051 7.93407 202.176 7.97575L201.738 10.1016Z" fill="white"/>
<path d="M206.663 16.9167C207.33 16.9167 207.817 16.8403 208.122 16.6874C208.428 16.5207 208.581 16.2428 208.581 15.8538C208.581 15.4925 208.414 15.1938 208.081 14.9576C207.761 14.7214 207.226 14.4644 206.476 14.1865C206.017 14.0197 205.594 13.8461 205.204 13.6654C204.829 13.4709 204.503 13.2486 204.225 12.9985C203.947 12.7484 203.725 12.4497 203.558 12.1023C203.405 11.7411 203.329 11.3034 203.329 10.7893C203.329 9.78895 203.697 9.00393 204.433 8.43426C205.17 7.85071 206.17 7.55893 207.435 7.55893C208.074 7.55893 208.685 7.62145 209.269 7.7465C209.852 7.85765 210.29 7.96881 210.582 8.07996L210.123 10.1224C209.845 9.99736 209.491 9.88621 209.06 9.78895C208.629 9.6778 208.129 9.62222 207.56 9.62222C207.046 9.62222 206.629 9.71253 206.309 9.89316C205.99 10.0599 205.83 10.3239 205.83 10.6851C205.83 10.8658 205.858 11.0255 205.913 11.1645C205.983 11.3034 206.094 11.4354 206.247 11.5605C206.399 11.6716 206.601 11.7897 206.851 11.9148C207.101 12.0259 207.407 12.144 207.768 12.2691C208.365 12.4914 208.873 12.7137 209.289 12.936C209.706 13.1444 210.047 13.3876 210.311 13.6654C210.589 13.9294 210.79 14.2351 210.915 14.5825C211.04 14.9298 211.103 15.3466 211.103 15.8329C211.103 16.875 210.714 17.667 209.936 18.2089C209.171 18.7368 208.074 19.0008 206.643 19.0008C205.684 19.0008 204.913 18.9175 204.329 18.7507C203.746 18.5979 203.336 18.4728 203.1 18.3756L203.537 16.2706C203.912 16.4234 204.357 16.5693 204.871 16.7083C205.399 16.8472 205.996 16.9167 206.663 16.9167Z" fill="white"/>
<path d="M216.293 17.3544C216.293 17.8407 216.126 18.2366 215.793 18.5423C215.473 18.848 215.084 19.0008 214.625 19.0008C214.153 19.0008 213.757 18.848 213.437 18.5423C213.118 18.2366 212.958 17.8407 212.958 17.3544C212.958 16.8681 213.118 16.4721 213.437 16.1664C213.757 15.8468 214.153 15.6871 214.625 15.6871C215.084 15.6871 215.473 15.8468 215.793 16.1664C216.126 16.4721 216.293 16.8681 216.293 17.3544Z" fill="white"/>
<path d="M218.39 13.2903C218.39 12.4844 218.515 11.7341 218.765 11.0394C219.015 10.3308 219.369 9.71948 219.828 9.20539C220.3 8.69131 220.87 8.28837 221.537 7.9966C222.204 7.70482 222.954 7.55893 223.788 7.55893C224.816 7.55893 225.789 7.7465 226.706 8.12164L226.164 10.1849C225.872 10.0599 225.539 9.95568 225.163 9.87232C224.802 9.78895 224.413 9.74727 223.996 9.74727C223.01 9.74727 222.259 10.0599 221.745 10.6851C221.231 11.2965 220.974 12.1649 220.974 13.2903C220.974 14.374 221.217 15.2355 221.704 15.8746C222.19 16.4999 223.01 16.8125 224.163 16.8125C224.594 16.8125 225.017 16.7708 225.434 16.6874C225.851 16.6041 226.212 16.4999 226.518 16.3748L226.872 18.459C226.594 18.5979 226.171 18.7229 225.601 18.8341C225.045 18.9452 224.469 19.0008 223.871 19.0008C222.94 19.0008 222.127 18.8619 221.433 18.584C220.752 18.2922 220.182 17.8962 219.724 17.396C219.279 16.882 218.946 16.2776 218.723 15.5828C218.501 14.8742 218.39 14.1101 218.39 13.2903Z" fill="white"/>
<path d="M238.459 13.2695C238.459 14.1309 238.334 14.9159 238.084 15.6245C237.834 16.3331 237.479 16.9375 237.021 17.4377C236.562 17.9379 236.007 18.327 235.353 18.6048C234.714 18.8827 234.006 19.0217 233.228 19.0217C232.45 19.0217 231.741 18.8827 231.102 18.6048C230.463 18.327 229.914 17.9379 229.455 17.4377C228.997 16.9375 228.636 16.3331 228.372 15.6245C228.122 14.9159 227.996 14.1309 227.996 13.2695C227.996 12.408 228.122 11.6299 228.372 10.9352C228.636 10.2266 228.997 9.62222 229.455 9.12203C229.928 8.62184 230.484 8.23975 231.123 7.97575C231.762 7.69787 232.463 7.55893 233.228 7.55893C233.992 7.55893 234.693 7.69787 235.333 7.97575C235.986 8.23975 236.541 8.62184 237 9.12203C237.458 9.62222 237.813 10.2266 238.063 10.9352C238.327 11.6299 238.459 12.408 238.459 13.2695ZM235.875 13.2695C235.875 12.1857 235.638 11.3312 235.166 10.706C234.707 10.0668 234.061 9.74727 233.228 9.74727C232.394 9.74727 231.741 10.0668 231.269 10.706C230.81 11.3312 230.581 12.1857 230.581 13.2695C230.581 14.3671 230.81 15.2355 231.269 15.8746C231.741 16.5138 232.394 16.8333 233.228 16.8333C234.061 16.8333 234.707 16.5138 235.166 15.8746C235.638 15.2355 235.875 14.3671 235.875 13.2695Z" fill="white"/>
<path d="M247.268 12.9985C247.268 11.8592 247.122 11.0394 246.83 10.5392C246.552 10.0252 246.024 9.76811 245.246 9.76811C244.968 9.76811 244.662 9.78895 244.329 9.83064C243.995 9.87232 243.745 9.90705 243.579 9.93484V18.7299H241.057V8.18417C241.543 8.04523 242.175 7.91323 242.953 7.78818C243.745 7.66314 244.579 7.60061 245.454 7.60061C246.205 7.60061 246.816 7.69787 247.288 7.89239C247.775 8.08691 248.178 8.34395 248.497 8.66352C248.65 8.55237 248.845 8.43427 249.081 8.30922C249.317 8.18417 249.581 8.07301 249.873 7.97575C250.165 7.8646 250.47 7.77429 250.79 7.70482C251.123 7.63535 251.457 7.60061 251.79 7.60061C252.638 7.60061 253.332 7.72566 253.874 7.97575C254.43 8.21196 254.861 8.55237 255.166 8.99698C255.486 9.4277 255.701 9.95568 255.813 10.5809C255.938 11.1923 256 11.8661 256 12.6025V18.7299H253.478V12.9985C253.478 11.8592 253.339 11.0394 253.061 10.5392C252.784 10.0252 252.249 9.76811 251.457 9.76811C251.054 9.76811 250.672 9.83758 250.31 9.97652C249.949 10.1016 249.678 10.2266 249.498 10.3517C249.609 10.699 249.685 11.0672 249.727 11.4563C249.769 11.8453 249.789 12.2621 249.789 12.7067V18.7299H247.268V12.9985Z" fill="white"/>
</svg>
