<svg width="375" height="478" viewBox="0 0 375 478" fill="none" xmlns="http://www.w3.org/2000/svg">
<circle cx="304" cy="230" r="8" fill="white"/>
<circle cx="352" cy="230" r="8" fill="#D4D2D9"/>
<circle cx="208" cy="278" r="8" fill="white"/>
<circle cx="256" cy="278" r="8" fill="#F5F4F7"/>
<circle cx="304" cy="278" r="8" fill="#F5F4F7"/>
<circle cx="352" cy="278" r="8" fill="#F5F4F7"/>
<circle cx="16" cy="326" r="8" fill="#D4D2D9"/>
<circle cx="64" cy="326" r="8" fill="white"/>
<circle cx="112" cy="326" r="8" fill="white"/>
<circle cx="160" cy="326" r="8" fill="#F5F4F7"/>
<circle cx="208" cy="326" r="8" fill="white"/>
<circle cx="256" cy="326" r="8" fill="#F5F4F7"/>
<circle cx="304" cy="326" r="8" fill="#D4D2D9"/>
<circle cx="352" cy="326" r="8" fill="#F5F4F7"/>
<circle cx="16" cy="374" r="8" fill="#F5F4F7"/>
<circle cx="64" cy="374" r="8" fill="#F5F4F7"/>
<circle cx="112" cy="374" r="8" fill="#F5F4F7"/>
<circle cx="160" cy="374" r="8" fill="white"/>
<circle cx="208" cy="374" r="8" fill="#F5F4F7"/>
<circle cx="256" cy="374" r="8" fill="#F5F4F7"/>
<circle cx="304" cy="374" r="8" fill="#D4D2D9"/>
<circle cx="352" cy="374" r="8" fill="#F5F4F7"/>
<circle cx="16" cy="422" r="8" fill="#D4D2D9"/>
<circle cx="64" cy="422" r="8" fill="#D4D2D9"/>
<circle cx="112" cy="422" r="8" fill="#F5F4F7"/>
<circle cx="160" cy="422" r="8" fill="#F5F4F7"/>
<circle cx="208" cy="422" r="8" fill="white"/>
<circle cx="256" cy="422" r="8" fill="#F5F4F7"/>
<circle cx="304" cy="422" r="8" fill="#F5F4F7"/>
<circle cx="352" cy="422" r="8" fill="#F5F4F7"/>
<circle cx="16" cy="470" r="8" fill="white"/>
<circle cx="64" cy="470" r="8" fill="#F5F4F7"/>
<circle cx="112" cy="470" r="8" fill="#F5F4F7"/>
<circle cx="160" cy="470" r="8" fill="#F5F4F7"/>
<circle cx="208" cy="470" r="8" fill="white"/>
<circle cx="256" cy="470" r="8" fill="#F5F4F7"/>
<circle cx="304" cy="470" r="8" fill="#F5F4F7"/>
<circle cx="352" cy="470" r="8" fill="#F5F4F7"/>
</svg>
